<svg width="32" height="32" viewBox="0 0 32 32" fill="none" xmlns="http://www.w3.org/2000/svg">
<rect width="32" height="32" rx="16" fill="#BBDDDA" fill-opacity="0.3"/>
<path d="M20.6875 19.5732H17.875V28C20.8577 27.5252 23.5529 25.9364 25.4227 23.5505C27.2926 21.1646 28.1997 18.1571 27.9631 15.1279C27.7264 12.0988 26.3634 9.27083 24.146 7.20821C21.9286 5.14559 19.0198 4 16 4C12.9802 4 10.0714 5.14559 7.85399 7.20821C5.63658 9.27083 4.27358 12.0988 4.03693 15.1279C3.80028 18.1571 4.70738 21.1646 6.57725 23.5505C8.44713 25.9364 11.1423 27.5252 14.125 28V19.5732H11.0625V16.0516H14.125V13.2217C14.2917 9.4905 16.7083 8.06507 21.375 8.94548V11.9011H19.75C18.5417 11.9431 17.9167 12.5719 17.875 13.7877V16.0516H21.2187" fill="#1877F2"/>
</svg>
