<svg width="32" height="32" viewBox="0 0 32 32" fill="none" xmlns="http://www.w3.org/2000/svg">
<rect width="32" height="32" rx="16" fill="#BBDDDA" fill-opacity="0.3"/>
<g clip-path="url(#clip0_181_152)">
<path d="M27.4392 16.2245C27.4392 15.2413 27.3594 14.5238 27.1868 13.7797H15.9588V18.2176H22.5494C22.4165 19.3205 21.699 20.9815 20.1045 22.0976L20.0821 22.2462L23.6322 24.9964L23.8782 25.0209C26.137 22.9347 27.4392 19.8653 27.4392 16.2245Z" fill="#4285F4"/>
<path d="M15.9588 27.9178C19.1877 27.9178 21.8983 26.8548 23.8782 25.0211L20.1045 22.0978C19.0947 22.8021 17.7393 23.2937 15.9588 23.2937C12.7964 23.2937 10.1124 21.2076 9.15557 18.3242L9.01533 18.3361L5.32391 21.193L5.27563 21.3272C7.24217 25.2337 11.2816 27.9178 15.9588 27.9178Z" fill="#34A853"/>
<path d="M9.15551 18.3238C8.90305 17.5797 8.75695 16.7824 8.75695 15.9586C8.75695 15.1347 8.90305 14.3375 9.14223 13.5934L9.13554 13.4349L5.39786 10.5322L5.27557 10.5904C4.46507 12.2115 4 14.0319 4 15.9586C4 17.8853 4.46507 19.7056 5.27557 21.3267L9.15551 18.3238Z" fill="#FBBC05"/>
<path d="M15.9588 8.62403C18.2044 8.62403 19.7191 9.59402 20.5828 10.4046L23.9579 7.10928C21.8851 5.1826 19.1876 4 15.9588 4C11.2816 4 7.24214 6.68406 5.2756 10.5906L9.14226 13.5936C10.1123 10.7102 12.7964 8.62403 15.9588 8.62403Z" fill="#EB4335"/>
</g>
<defs>
<clipPath id="clip0_181_152">
<rect width="24" height="24" fill="white" transform="translate(4 4)"/>
</clipPath>
</defs>
</svg>
