<svg width="85" height="91" viewBox="0 0 85 91" fill="none" xmlns="http://www.w3.org/2000/svg">
<path fill-rule="evenodd" clip-rule="evenodd" d="M54.4826 63.3047L56.1468 60.795C56.407 60.2866 56.6929 59.7908 56.955 59.2841C58.5037 56.3041 59.4916 53.0173 60.0616 49.7195C60.0689 49.6777 60.0744 49.6359 60.0817 49.5942C59.8948 49.5597 59.6913 49.5433 59.4567 49.5597C58.4945 49.1928 58.5844 50.2897 58.3259 50.4858C58.2233 50.5621 57.9704 50.4004 57.5214 50.3659C57.4059 49.8593 57.9392 49.2546 58.1592 49.0221C56.9385 48.7988 54.9445 48.2394 53.8888 47.3696C53.634 47.1589 53.3353 47.4059 53.1099 47.2098C52.9706 47.0881 52.9761 46.7213 52.8661 46.5905C51.3046 44.9961 51.7811 47.3896 50.9252 44.5948C50.8611 44.4423 50.7419 44.2098 50.6668 44.0682L49.5488 41.4913C49.0008 40.6142 48.0423 40.5161 47.4613 39.6063C47.1332 39.0924 47.1919 38.8745 46.7245 38.3551C46.0922 37.6505 45.7018 37.8794 45.4159 36.9804C45.2143 36.3467 45.4251 35.9272 44.3639 35.0664C43.684 34.5144 42.5037 33.995 41.4865 33.7444C41.6093 34.9538 42.0326 34.7377 42.8391 35.4423C43.2588 35.8092 43.8727 36.5265 44.5105 37.3545C44.9559 37.9338 45.3225 38.5731 45.733 39.1778C46.314 40.0349 46.8876 40.8303 47.1094 41.3424C47.245 41.6566 47.4137 42.1523 47.7307 42.6808C48.0405 43.1965 48.5958 43.5924 48.9202 44.2098C49.624 45.5464 50.3094 47.2116 50.6925 48.0125C49.3289 47.0718 48.4217 46.8629 48.1156 46.4398C47.8462 46.0675 47.6116 45.4574 47.2927 44.5203C46.6897 42.7552 46.3763 41.8672 45.3426 40.4054C44.4537 39.1487 43.9937 37.7631 43.0682 36.521C42.544 35.8182 42.1115 35.5822 41.6844 34.8431C41.6386 34.7813 41.3399 34.449 41.1859 34.0459C41.0943 33.8061 41.0998 33.5428 40.9806 33.3104C40.79 32.9363 40.4656 32.86 40.5279 32.5005C40.6672 31.696 41.4352 31.7414 41.842 31.5598C42.3186 31.3473 42.6668 31.0495 42.007 30.2995C42.2581 29.3479 41.8915 29.5967 41.8347 29.446C41.8127 29.3897 41.897 29.2699 41.8127 29.1028C40.7351 28.6107 41.9557 28.4327 41.6899 27.8643C41.5506 27.6773 39.9781 27.4866 40.0862 26.8383C40.1541 26.4315 40.2274 26.2172 39.7472 26.0629C39.0856 24.7681 39.4448 24.9134 39.4081 24.5302C39.3385 23.7911 38.215 23.9963 37.645 24.049C36.3364 24.1688 35.0461 24.6555 33.996 25.4164C33.0374 26.1119 32.5133 28.9339 33.1052 30.1324C33.6111 31.1548 34.0711 31.6996 34.5678 32.1917C34.9105 32.5295 35.5245 32.9254 36.0908 33.067C36.3272 33.1252 36.0652 33.3794 36.2796 33.4393C36.5325 33.5083 36.6663 33.3758 36.9247 33.3957C38.1838 33.4938 39.5218 33.363 40.242 33.8189C40.44 33.9442 40.3392 34.242 40.484 34.6342C40.801 35.4859 40.988 35.3915 41.2867 35.6403C41.8017 36.0688 43.3321 39.8097 43.651 40.7213C43.6601 40.7504 42.4743 38.8781 42.3369 38.6965C40.8505 36.7371 37.9108 34.6596 36.0413 33.8969C35.9295 34.1421 35.7298 34.5126 35.3742 34.725C35.1048 34.8848 34.6668 34.8376 34.4138 35.061C34.1151 35.3243 33.7797 35.5713 33.4241 35.7983C34.2471 36.3322 35.0187 36.9605 35.6931 37.6342C36.6425 38.5821 37.524 39.7371 38.3103 40.8194C39.1094 41.9181 39.8901 43.0676 40.5811 44.2352L40.5921 44.2552L42.4194 47.6765L42.4304 47.6983C43.0095 48.9114 43.5062 50.0827 44.1751 51.2594C45.4398 53.4821 46.8363 55.6195 48.4748 57.5917C50.4744 59.9996 51.9167 61.6958 54.4826 63.2974V63.3047ZM39.3238 69.37C39.0581 69.281 38.8271 69.3519 38.6475 69.2774C38.0629 69.0304 37.4232 68.9941 36.8331 68.7798C36.5472 68.6745 36.2539 68.5873 35.957 68.5201C34.3992 68.1624 30.8784 66.5989 29.5405 65.7653C26.7419 64.022 24.0257 61.4215 22.0243 58.8265C21.5368 58.1928 20.1678 56.1934 19.8049 55.4379C19.5538 54.9149 19.277 54.4028 19.0039 53.8925C18.5201 52.9864 17.9959 51.7334 17.6697 50.7582C17.4736 50.1698 17.2757 49.5814 17.107 48.984C17.0081 48.6317 17.0062 48.2594 16.8449 47.9198C16.5902 47.3823 16.2346 44.8981 16.1815 44.2843C16.1558 43.9901 16.1595 43.6886 16.0917 43.3944C16.1668 44.7255 15.8846 46.0603 16.1998 47.3914C16.2915 47.7782 16.2566 48.2031 16.3318 48.6081C16.4491 49.2528 16.4582 49.921 16.691 50.5421C16.8321 50.9144 16.8431 51.3121 16.9989 51.6916C17.1272 52.0039 17.1767 52.3708 17.2885 52.7104C18.4853 56.3259 20.4537 59.5366 23.1478 62.2442C26.203 65.3132 30.3781 67.7338 34.6154 68.7308C35.3852 68.9124 36.155 69.114 36.9467 69.1975C37.7165 69.2774 38.4771 69.4554 39.3183 69.3737L39.3238 69.37ZM40.7974 16.1477C41.0796 16.1658 41.3747 16.1386 41.6441 16.2094C42.5751 16.4546 44.4721 16.5181 45.9273 16.8741C48.363 17.4697 50.5403 18.1961 52.747 19.4201C56.0551 21.2542 58.7603 23.4352 61.0897 26.4261C61.7349 27.256 62.7612 28.9484 63.2744 29.8655L64.6013 32.6094C65.131 34.0785 65.4737 35.0719 65.8751 36.6082C66.161 37.705 66.6229 40.2147 66.5386 41.3224C66.5056 41.7601 66.6907 42.1378 66.7951 42.5482C66.8483 41.889 66.874 41.2298 66.8428 40.5742C66.7805 39.2195 66.9747 37.8576 66.6705 36.5065C66.5367 35.9127 66.5019 35.2989 66.3938 34.696C66.2856 34.0949 65.9484 33.5465 65.9869 32.9181C65.9887 32.8982 65.9722 32.8782 65.9631 32.8582C65.7688 32.4787 65.4004 30.9751 65.1695 30.5501C64.8891 30.0308 64.7351 29.4587 64.451 28.943C63.3642 26.9708 63.5896 27.0816 61.9988 25.1531C59.629 22.2838 56.495 19.9866 53.108 18.4231C51.2863 17.5823 48.7846 16.7796 46.7777 16.4764C43.9002 16.0424 43.64 16.1568 40.7955 16.1477H40.7974ZM41.1749 71.0916C39.7857 71.1969 37.3408 70.8773 35.9112 70.5704C31.2468 69.568 26.8757 67.4088 23.3439 64.2236C21.2839 62.364 20.0083 60.6716 18.4669 58.3852C17.9776 57.657 17.2848 56.0844 16.8669 55.2364L15.727 52.2763L15.0232 49.1765C14.9645 48.6317 14.8692 48.0724 14.7318 47.5403C14.5833 46.9628 14.6695 46.3745 14.5503 45.8169C14.3506 44.889 14.3835 43.9501 14.3872 43.024C14.389 42.2921 14.2937 41.5294 14.4569 40.8249C14.6163 40.1366 14.5082 39.4375 14.7116 38.7547C14.8362 38.3352 14.7922 37.8503 14.9224 37.4163C15.0892 36.857 15.0727 36.2686 15.3128 35.7093C15.4942 35.2898 15.5492 34.7958 15.6811 34.34C16.121 32.84 16.8871 31.0077 17.5652 29.6403C18.5568 27.6391 19.6876 25.923 21.086 24.1743C21.9914 23.0429 23.5602 21.7881 24.7002 20.8311C25.3417 20.2917 28.0688 18.5484 28.8166 18.1779C29.6413 17.7693 30.4716 17.3662 31.3183 16.9976C31.8865 16.7506 32.4729 16.5472 33.0448 16.3111C33.6001 16.0823 34.1994 15.9661 34.7694 15.7663C35.8269 15.3977 37.7971 15.0073 38.9958 14.8202C52.6279 12.6937 63.9489 18.9897 69.3702 31.696C69.7221 32.5223 70.2921 34.6106 70.4772 35.4641C70.7246 36.6064 70.8712 37.7595 71.027 38.9163C71.2048 40.2328 71.3367 43.2056 71.1241 44.5676C71.005 45.3303 71.0032 46.1039 70.8437 46.8575C70.6861 47.6057 70.556 48.3647 70.3415 49.0966C69.7386 51.1595 69.2272 52.9119 68.2247 54.8605C66.1702 58.8465 63.3074 62.4893 59.6932 65.206C59.4256 65.4076 59.0719 65.3912 58.742 65.3295C57.8164 65.1534 57.0448 64.6939 56.3759 64.0511C55.3917 63.1049 55.958 63.5735 57.01 61.4524C57.2923 60.884 57.6112 60.3356 57.9044 59.7726C59.5007 56.7018 60.5253 53.3042 61.1136 49.9047C61.1906 49.4561 61.1796 49.0022 61.2712 48.5681C61.6689 46.6904 61.5754 44.7891 61.5736 42.8951C61.5718 42.0688 61.515 41.2298 61.3665 40.4181C61.2914 40.0131 61.339 39.5973 61.2254 39.2141C61.0274 38.544 61.0146 37.8449 60.8295 37.1693C60.6975 36.6881 60.6022 36.1869 60.4868 35.6947C60.298 34.8939 59.673 32.8655 59.3523 32.1536C59.0902 31.5707 58.9161 30.9569 58.6302 30.3776C58.4249 29.9636 58.2636 29.5023 58.0528 29.0883C57.2996 27.6046 56.2622 26.0502 55.1314 24.8244C54.1967 23.8093 53.2015 22.8359 52.0451 22.0823C49.6881 20.546 49.7339 20.6749 47.2652 19.6416C46.5962 19.3619 43.9369 18.8153 43.158 18.7663C40.79 18.6138 39.3788 18.681 37.1465 19.2475C34.2544 19.9812 31.8223 21.1016 29.6102 23.1319C27.5006 25.0659 25.9978 27.4212 25.272 30.1887C25.1052 30.8243 24.8871 31.4617 24.8321 32.1064C24.768 32.8455 24.6177 33.581 24.6635 34.3291C24.6764 34.5416 24.7038 34.6469 24.9659 34.6034C25.655 34.4889 26.3387 34.6506 27.026 34.6651C27.9515 34.6851 28.8257 34.9811 29.711 35.1881C30.2608 35.3152 30.7703 35.6185 31.2926 35.8509C32.6214 36.4411 33.9098 37.3673 34.938 38.3951C36.4207 39.8769 38.5724 42.9405 39.6629 44.7873L41.4682 48.1686C42.1591 49.6141 42.4029 50.3133 43.2478 51.7969C44.549 54.0832 45.9658 56.2497 47.6519 58.2817C48.5903 59.4131 49.569 60.5136 50.632 61.5359C52.2998 63.1394 52.0634 63.0886 54.1252 64.407C55.3624 65.1969 57.3363 66.163 58.7383 66.5498C59.1085 66.6515 59.4659 66.8059 59.8416 66.9039C62.5248 67.6122 65.7578 67.8973 68.4996 67.4814C69.4618 67.3361 70.4424 67.1691 71.3312 66.7169C72.4474 66.1485 73.5031 65.5165 74.337 64.545C75.3762 63.3338 75.5961 63.0686 76.1991 61.5832C76.5858 60.628 76.4282 59.2188 75.5228 58.6286C73.8623 57.5445 72.222 57.3429 70.457 58.3689C68.7874 59.3386 67.7152 61.3126 68.1257 63.2375C68.2632 63.884 67.7647 63.9167 67.6162 63.5716C67.268 62.7581 67.4036 61.2091 67.7757 60.3883C68.3951 59.0154 69.1136 58.0874 70.4845 57.3284C71.1425 56.9652 72.5372 56.6056 73.23 56.6292C75.6456 56.7127 77.5058 57.7678 78.1986 60.1613C78.5322 61.3144 78.2206 62.8671 77.6158 63.8749C76.0121 66.5426 74.2289 68.3404 71.3606 69.7023C69.7312 70.476 68.386 70.6703 66.6448 70.9263C64.7754 71.2005 61.4343 70.9372 59.5704 70.5904C56.1926 69.9602 54.4441 69.3101 51.3559 67.8828C50.3039 67.3961 48.7406 66.4082 47.7527 65.7526C46.3378 64.812 44.5912 63.3356 43.3412 62.1697C40.6984 59.7073 38.0739 56.3387 36.3437 53.1825C36.2154 52.9464 36.056 52.7267 35.9442 52.4834C35.2624 51.0052 32.8707 47.5276 31.7728 46.2491C30.3414 44.5803 29.7183 43.5688 27.5978 42.9041C26.6301 42.6009 25.6624 42.6281 24.6819 42.7389C23.9506 42.8224 24.5572 44.1335 24.5206 44.9271C24.4821 45.7588 24.9769 47.8708 25.2518 48.7643C25.5616 49.7649 25.5359 50.0863 25.9446 51.1323C26.1371 51.6244 26.2819 52.1347 26.522 52.6105C26.6557 52.8774 26.6942 53.188 26.8409 53.4585C27.2349 54.1795 27.5483 54.9385 27.9442 55.6595C28.6168 56.8853 29.5515 58.4724 30.4147 59.5438C32.4748 62.0971 33.0484 62.8344 35.9717 64.5032C37.6798 65.4784 39.4375 66.1249 41.3435 66.5698C41.985 66.7187 42.6411 66.7877 43.2771 66.9584C43.7261 67.0801 45.5167 67.1146 45.9603 67.0946C46.9683 67.051 49.2299 68.5311 50.095 69.1739C50.3387 69.3537 50.3204 69.6751 49.9191 69.7786C49.4554 69.8967 49.0027 70.0456 48.5426 70.1763C47.3257 70.525 45.8521 70.7429 44.6022 70.9154C43.5245 71.0643 42.4524 71.0916 41.1731 71.1006L41.1749 71.0916ZM15.2266 15.9352C15.2559 15.1761 15.2028 14.4207 15.1441 13.6634C15.1313 13.5073 15.0562 13.4201 14.9407 13.3565C13.995 12.839 13.9822 11.1429 15.0837 10.6381C15.716 10.3493 16.4014 10.3675 16.9751 10.7325C17.4388 11.0285 17.7247 11.5188 17.6624 12.1235C17.6569 12.1889 17.6532 12.2543 17.6385 12.316C17.5414 12.7391 17.5946 12.8372 17.9868 13.0551C18.9966 13.6199 20.001 14.1919 21.0108 14.7585C21.6981 15.1435 22.3927 15.5194 23.0819 15.9025C23.2835 16.0151 23.3439 15.957 23.3458 15.7373C23.3513 15.2488 23.2303 14.7785 23.157 14.3009C23.025 13.451 22.8436 12.6084 22.6841 11.7639C22.543 11.0267 22.4404 10.2821 22.2754 9.55029C22.0793 8.68407 21.8942 7.81604 21.7256 6.94437C21.5405 5.99099 21.2381 5.0594 21.0182 4.11147C20.9503 3.8191 20.9009 3.52491 20.8092 3.23799C20.7707 3.11813 20.7176 3.06366 20.5893 3.04368C19.7426 2.90385 19.3558 2.44623 19.3503 1.59091C19.3448 0.595757 20.1348 -0.137893 21.1336 0.0219122C22.1673 0.187165 22.8289 0.948055 22.5009 2.04853C22.466 2.16294 22.51 2.21197 22.5668 2.27008C23.4906 3.20167 24.3373 4.20408 25.2683 5.13023C25.8585 5.7186 26.4321 6.32695 27.0278 6.90987C27.924 7.7888 28.8129 8.67681 29.7568 9.50852C30.5064 10.1695 31.2358 10.8487 31.9744 11.5206C32.0697 11.6078 32.1577 11.7585 32.2915 11.7058C32.4326 11.6495 32.3996 11.4698 32.4308 11.3372C32.6177 10.54 32.6617 9.71917 32.713 8.91107C32.7735 7.92136 32.922 6.92985 32.8615 5.93288C32.8395 5.56969 32.7424 5.27187 32.3336 5.09391C31.7307 4.83059 31.3641 3.8427 31.6244 3.25433C32.0147 2.37359 33.0099 1.91052 33.9208 2.29005C34.7676 2.64235 35.059 3.09089 35.0168 3.95348C35.015 3.97527 35.0223 4.00069 35.0132 4.01885C34.6888 4.57454 35.1506 4.75069 35.4933 4.95044C36.4409 5.50068 37.3628 6.08906 38.3268 6.61568C39.1589 7.07149 39.9946 7.52367 40.8249 7.98674C40.9696 8.06664 41.0576 8.07209 41.2042 7.9141C41.8567 7.20951 42.3314 6.39958 42.7621 5.55516C42.8941 5.29729 43.0168 5.03216 43.158 4.77793C43.2753 4.56728 43.202 4.44016 43.0132 4.32757C42.4853 4.01341 42.2141 3.54489 42.2269 2.93835C42.2434 2.08667 42.8097 1.44018 43.7353 1.36754C44.7396 1.28764 45.3041 1.73255 45.6469 2.56426C45.8485 3.05276 45.5002 3.96256 45.0072 4.25311C44.8441 4.34936 44.8258 4.41837 44.9046 4.54185C45.1722 4.95771 45.3774 5.40988 45.6633 5.81666C45.9034 6.15988 46.0776 6.54849 46.3048 6.90079C46.8418 7.7325 47.3238 8.59872 47.9067 9.40501C48.4235 10.1205 48.8725 10.885 49.3784 11.6096C49.8036 12.2179 50.2196 12.8336 50.6998 13.4038C50.8079 13.5309 50.8831 13.6961 50.9344 13.8559C50.9949 14.0466 50.8391 14.063 50.7016 14.072C50.3332 14.0938 49.9795 13.9831 49.6405 13.8814C49.0265 13.6943 48.4033 13.5599 47.7765 13.4365C47.0214 13.2875 46.2498 13.2167 45.4911 13.0987C43.9131 12.8499 42.3314 12.9262 40.7479 12.928C39.826 12.928 38.9059 12.9679 38.0042 13.1423C37.0365 13.3311 36.0542 13.4292 35.0938 13.6943C34.3002 13.9141 33.4938 14.0956 32.7094 14.3553C32.0202 14.5841 31.3403 14.8366 30.6658 15.1126C29.8924 15.4304 29.1281 15.7645 28.3877 16.1422C27.3412 16.678 26.3387 17.2863 25.3563 17.94C24.2951 18.6446 23.289 19.4128 22.3231 20.2336C21.6468 20.8093 21.0328 21.4521 20.4023 22.0786C19.7224 22.7524 19.1194 23.4878 18.5128 24.2197C17.7815 25.1022 17.1492 26.0574 16.5297 27.0162C16.0862 27.7027 15.6756 28.4127 15.3109 29.1427C15.0782 29.6094 14.8821 30.0998 14.6493 30.5683C14.5632 30.7408 14.4715 30.9097 14.3707 31.0731C14.3029 31.1821 14.1783 31.1821 14.0738 31.1512C13.951 31.1131 13.8465 31.0513 13.7971 30.9042C13.568 30.2251 13.293 29.5622 13.0475 28.8921C12.7817 28.1676 12.45 27.4721 12.1971 26.742C12.0541 26.328 11.8488 25.9357 11.6766 25.5326C11.4786 25.0695 11.2898 24.601 11.0864 24.1416C10.8793 23.6731 10.6612 23.2082 10.4394 22.7451C9.99591 21.8153 9.60003 20.8619 9.08686 19.9649C8.98789 19.7905 8.92191 19.7742 8.74413 19.8014C7.39705 20.0084 6.30655 18.7645 6.76108 17.5514C7.04149 16.8051 7.81857 16.4001 8.74595 16.52C9.65134 16.638 10.269 17.3008 10.1993 18.2179C10.1609 18.7373 10.3625 18.9279 10.795 19.1313C11.5629 19.4927 12.3492 19.7996 13.1446 20.0865C13.5496 20.2336 13.9675 20.3462 14.3817 20.4697C14.5943 20.5332 14.7153 20.486 14.7666 20.23C14.915 19.4891 15.0085 18.7427 15.1185 17.9982C15.2211 17.3026 15.1716 16.6198 15.2303 15.9352H15.2266ZM5.32418 82.8972C5.22888 82.7301 5.15924 82.6466 5.11159 82.6466C5.05477 82.6466 4.96862 82.7628 4.85316 82.9952L3.33929 85.6629L2.03071 87.911C1.99222 87.98 1.97389 88.04 1.97389 88.0908C1.97389 88.1453 2.00138 88.1943 2.05453 88.2379C2.10952 88.2815 2.23781 88.3251 2.44125 88.3687C2.64468 88.4122 2.77297 88.4558 2.82429 88.5012C2.8756 88.5448 2.90311 88.5957 2.90311 88.6501C2.90311 88.819 2.76198 88.9044 2.4779 88.9044C2.41192 88.9044 2.2488 88.8898 1.99222 88.859C1.7338 88.8281 1.51936 88.8118 1.34891 88.8118C1.17297 88.8118 0.993356 88.8263 0.810079 88.8535C0.62497 88.8808 0.491185 88.8953 0.405045 88.8953C0.285915 88.8953 0.190607 88.8717 0.113631 88.8227C0.0384872 88.7754 0 88.7191 0 88.6538C0 88.5593 0.0238268 88.4976 0.069646 88.4685C0.117298 88.4395 0.203437 88.4177 0.33173 88.4032C0.698283 88.3559 0.951208 88.2488 1.0905 88.0836C1.22979 87.9183 1.58717 87.3317 2.1645 86.3221L3.8818 83.3729C4.30333 82.6665 4.57458 82.198 4.69554 81.9674C4.81651 81.7368 4.87699 81.557 4.87699 81.4299C4.87699 81.3863 4.85683 81.3064 4.81468 81.192C4.77253 81.0776 4.75236 80.994 4.75236 80.9432C4.75236 80.8379 4.82567 80.7852 4.97229 80.7852C5.21239 80.7852 5.40666 80.8633 5.55328 81.0194C5.6999 81.1756 5.89601 81.4698 6.1416 81.9038L8.10815 85.3215C8.82293 86.5672 9.2738 87.3372 9.46441 87.6314C9.65318 87.9256 9.80896 88.1162 9.92992 88.2016C10.0509 88.2869 10.1975 88.3505 10.3661 88.3905C10.5347 88.4304 10.6502 88.4704 10.7125 88.5085C10.7748 88.5466 10.806 88.612 10.806 88.7028C10.806 88.8299 10.6575 88.8935 10.3588 88.8935C10.2598 88.8935 10.0784 88.8826 9.81446 88.8572C9.55054 88.8335 9.29029 88.8227 9.0282 88.8227C8.76795 88.8227 8.4967 88.8354 8.21446 88.8626C7.93221 88.8898 7.73976 88.9044 7.6353 88.9044C7.47401 88.9044 7.34572 88.8826 7.25042 88.8408C7.15512 88.799 7.10746 88.7409 7.10746 88.6665C7.10746 88.6047 7.13679 88.5521 7.19361 88.5121C7.25042 88.4722 7.40438 88.4431 7.65363 88.425C7.90289 88.4068 8.066 88.365 8.13931 88.3015C8.21262 88.2379 8.24928 88.158 8.24928 88.0654C8.24928 87.9637 8.11365 87.684 7.84423 87.2246C7.57482 86.7652 7.4062 86.5218 7.34022 86.4928C7.27424 86.4637 7.14596 86.4492 6.95718 86.4492H3.79016C3.66736 86.4492 3.55556 86.4183 3.45659 86.3584C3.35762 86.2985 3.30814 86.2276 3.30814 86.1459C3.30814 86.0842 3.34663 86.0279 3.42544 85.9807C3.50242 85.9334 3.59222 85.908 3.69119 85.908H6.73725C6.9077 85.908 6.99201 85.8844 6.99201 85.8372C6.99201 85.8081 6.95901 85.7373 6.89303 85.6247L5.32418 82.9008V82.8972ZM13.0401 88.0636C13.0401 88.1616 13.0731 88.2452 13.1391 88.3142C13.2051 88.3832 13.3517 88.4322 13.579 88.4613C13.8062 88.4903 13.9437 88.5266 13.995 88.5721C14.0445 88.6156 14.0701 88.6719 14.0701 88.7373C14.0701 88.8553 13.9547 88.9135 13.7219 88.9135C13.579 88.9135 13.3682 88.9007 13.0896 88.8735C12.8092 88.8463 12.5984 88.8317 12.4573 88.8317C12.3253 88.8317 12.1311 88.8444 11.8745 88.8735C11.6179 88.9007 11.4236 88.9135 11.2917 88.9135C11.1011 88.9135 10.9801 88.8971 10.9251 88.8644C10.8701 88.8317 10.8426 88.7845 10.8426 88.7264C10.8426 88.6665 10.8646 88.6174 10.9104 88.5775C10.9544 88.5375 11.0974 88.503 11.3357 88.4758C11.5739 88.4486 11.7315 88.3886 11.8048 88.296C11.8781 88.2034 11.9148 88.0945 11.9148 87.971V82.0836C11.9148 81.9565 11.8763 81.8439 11.8012 81.7477C11.726 81.6514 11.5684 81.5806 11.332 81.537C11.0956 81.4934 10.9544 81.4498 10.9104 81.4044C10.8646 81.3608 10.8426 81.31 10.8426 81.2555C10.8426 81.201 10.8811 81.1556 10.9599 81.123C11.0387 81.0903 11.1194 81.0739 11.2055 81.0739C11.2807 81.0739 11.3943 81.0848 11.5446 81.1066C11.6949 81.1284 11.8048 81.1393 11.8763 81.1393C11.957 81.1393 12.0779 81.1284 12.2392 81.1066C12.4005 81.0848 12.5215 81.0739 12.6021 81.0739C12.7542 81.0739 12.866 81.1048 12.9375 81.1665C13.009 81.2283 13.0438 81.3391 13.0438 81.4989V88.0618L13.0401 88.0636ZM33.1987 82.8972C33.1034 82.7301 33.0338 82.6466 32.9861 82.6466C32.9293 82.6466 32.8432 82.7628 32.7277 82.9952L31.2138 85.6629L29.9052 87.911C29.8667 87.98 29.8484 88.04 29.8484 88.0908C29.8484 88.1453 29.8759 88.1943 29.9291 88.2379C29.984 88.2815 30.1123 88.3251 30.3158 88.3687C30.5192 88.4122 30.6475 88.4558 30.6988 88.5012C30.7501 88.5448 30.7776 88.5957 30.7776 88.6501C30.7776 88.819 30.6347 88.9044 30.3524 88.9044C30.2864 88.9044 30.1233 88.8898 29.8668 88.859C29.6083 88.8281 29.3939 88.8118 29.2253 88.8118C29.0493 88.8118 28.8697 88.8263 28.6865 88.8535C28.5013 88.8808 28.3675 88.8953 28.2814 88.8953C28.1623 88.8953 28.067 88.8717 27.99 88.8227C27.9625 88.8045 27.9405 88.7863 27.9222 88.7682C27.9075 88.7809 27.891 88.7936 27.8727 88.8063C27.7994 88.8517 27.6949 88.8753 27.5575 88.8753C27.453 88.8753 27.2532 88.8572 26.9545 88.8227C26.6576 88.7882 26.4083 88.77 26.2104 88.77C26.0784 88.77 25.842 88.7863 25.5011 88.8227C25.1602 88.8572 24.9183 88.8753 24.7717 88.8753C24.4692 88.8753 24.319 88.79 24.319 88.6193C24.319 88.5357 24.352 88.4794 24.4179 88.4522C24.4839 88.4249 24.5884 88.405 24.7295 88.3941C25.0741 88.365 25.2922 88.3142 25.3783 88.2434C25.4663 88.1725 25.5103 88.0055 25.5103 87.744V83.0642C25.5103 82.8645 25.4974 82.7646 25.4736 82.7646C25.4388 82.7646 25.36 82.8608 25.2335 83.0533L24.1357 84.7059C23.6775 85.3959 23.2596 86.0097 22.8839 86.5472C22.5082 87.083 22.3066 87.3717 22.2809 87.4117C22.2553 87.4516 22.226 87.4843 22.1911 87.5097C22.1581 87.5351 22.105 87.5478 22.0353 87.5478C21.9162 87.5478 21.8099 87.477 21.7164 87.3354L19.0663 83.3003C18.9435 83.1114 18.8683 83.017 18.839 83.017C18.8152 83.017 18.8042 83.1114 18.8042 83.3003V87.9219C18.8042 88.0563 18.8793 88.1671 19.0314 88.2579C19.1836 88.3469 19.3302 88.3923 19.4713 88.3923C19.869 88.3923 20.0669 88.4794 20.0669 88.6519C20.0669 88.8099 19.8947 88.8898 19.5483 88.8898C19.4915 88.8898 19.332 88.8699 19.0699 88.8317C18.8078 88.7936 18.6209 88.7736 18.5128 88.7736C18.3716 88.7736 18.1755 88.7954 17.9263 88.8372C17.6789 88.8789 17.5011 88.9007 17.3966 88.9007C17.2445 88.9007 17.1217 88.8699 17.0282 88.8099C16.9329 88.75 16.8871 88.6865 16.8871 88.6193C16.8871 88.5539 16.9421 88.4958 17.0539 88.4449C17.1657 88.3959 17.294 88.3705 17.4406 88.3705C17.9043 88.3705 18.1371 88.1617 18.1371 87.744V82.0418C18.1371 81.8929 18.0747 81.764 17.9519 81.6569C17.8291 81.5497 17.6532 81.4843 17.4259 81.4607C17.1987 81.4371 17.0502 81.4008 16.9787 81.3481C16.9073 81.2973 16.8724 81.2337 16.8724 81.1575C16.8724 81.103 16.9183 81.0539 17.0117 81.0104C17.1034 80.9668 17.1968 80.945 17.2921 80.945C17.3911 80.945 17.5139 80.9613 17.6605 80.9904C17.8071 81.0213 17.9263 81.0376 18.0161 81.0376C18.1059 81.0376 18.2195 81.0213 18.357 80.9904C18.4944 80.9595 18.6062 80.945 18.6905 80.945C18.8042 80.945 18.8958 80.9795 18.9636 81.0485C19.0314 81.1175 19.1286 81.2555 19.2514 81.4625L20.8642 83.9631L22.2131 86.0442C22.2699 86.1314 22.3121 86.175 22.3414 86.175C22.3744 86.175 22.4166 86.135 22.4697 86.0551C23.9304 83.9432 24.9549 82.445 25.5414 81.5552C25.7155 81.2937 25.8658 81.1284 25.9923 81.0576C26.1169 80.9886 26.2507 80.9541 26.3937 80.9541C26.4596 80.9541 26.5714 80.9613 26.7272 80.9759C26.883 80.9904 27.0021 80.9977 27.0828 80.9977C27.1579 80.9977 27.2532 80.9886 27.3705 80.9704C27.486 80.9523 27.5575 80.9432 27.5868 80.9432C27.8415 80.9432 27.9698 81.0231 27.9698 81.1811C27.9698 81.31 27.847 81.3736 27.6014 81.3736C27.398 81.3736 27.2202 81.4299 27.07 81.5406C26.9178 81.6514 26.8262 81.7313 26.7932 81.7803C26.7602 81.8294 26.7437 81.9474 26.7437 82.1326V87.7258C26.7437 87.8747 26.7877 88.0073 26.8793 88.1217C26.9691 88.2361 27.1506 88.3142 27.4218 88.3559C27.6931 88.3977 27.8562 88.4413 27.9075 88.4849C27.913 88.4885 27.9167 88.494 27.9222 88.4976C27.9295 88.4885 27.9387 88.4794 27.9497 88.474C27.9973 88.4449 28.0835 88.4231 28.2118 88.4086C28.5783 88.3614 28.8312 88.2543 28.9705 88.089C29.1098 87.9238 29.4672 87.3372 30.0445 86.3275L31.7618 83.3784C32.1834 82.672 32.4546 82.2035 32.5737 81.9728C32.6947 81.7422 32.7552 81.5624 32.7552 81.4353C32.7552 81.3917 32.735 81.3118 32.6929 81.1974C32.6507 81.083 32.6306 80.9995 32.6306 80.9486C32.6306 80.8433 32.7039 80.7906 32.8505 80.7906C33.0906 80.7906 33.2849 80.8687 33.4315 81.0249C33.5781 81.1811 33.7742 81.4753 34.0198 81.9093L35.9863 85.3269C36.7011 86.5727 37.152 87.3426 37.3426 87.6368C37.5314 87.931 37.6872 88.1217 37.8081 88.207C37.9291 88.2924 38.0757 88.3559 38.2443 88.3959C38.4129 88.4358 38.5284 88.4758 38.5907 88.5139C38.653 88.5521 38.6842 88.6174 38.6842 88.7083C38.6842 88.8354 38.5357 88.8989 38.237 88.8989C38.138 88.8989 37.9566 88.888 37.6927 88.8626C37.4287 88.839 37.1685 88.8281 36.9064 88.8281C36.6462 88.8281 36.3749 88.8408 36.0927 88.868C35.8104 88.8953 35.618 88.9098 35.5135 88.9098C35.3522 88.9098 35.2239 88.888 35.1286 88.8463C35.0333 88.8045 34.9857 88.7464 34.9857 88.6719C34.9857 88.6102 35.015 88.5575 35.0718 88.5176C35.1286 88.4776 35.2826 88.4486 35.5318 88.4304C35.7811 88.4122 35.9442 88.3705 36.0175 88.3069C36.0908 88.2434 36.1275 88.1635 36.1275 88.0708C36.1275 87.9691 35.9918 87.6895 35.7224 87.23C35.453 86.7706 35.2844 86.5273 35.2184 86.4982C35.1524 86.4692 35.0242 86.4546 34.8354 86.4546H31.6684C31.5456 86.4546 31.4338 86.4238 31.3348 86.3638C31.2358 86.3039 31.1863 86.2331 31.1863 86.1514C31.1863 86.0896 31.2248 86.0333 31.3036 85.9861C31.3806 85.9389 31.4704 85.9135 31.5694 85.9135H34.6154C34.7859 85.9135 34.8702 85.8899 34.8702 85.8427C34.8702 85.8136 34.8372 85.7428 34.7712 85.6302L33.2024 82.9062L33.1987 82.8972ZM49.6386 90.132C49.6771 90.132 49.7119 90.1519 49.7449 90.1919C49.7779 90.2318 49.7944 90.27 49.7944 90.3063C49.7944 90.4879 49.6203 90.6495 49.2702 90.7893C48.9202 90.9292 48.5536 91 48.1724 91C47.8425 91 47.4906 90.9165 47.1204 90.7494C46.7502 90.5823 46.4496 90.3535 46.2205 90.0611C45.9914 89.7706 45.7697 89.4092 45.5571 88.9806C45.5332 88.9334 45.4984 88.9098 45.4508 88.9098H45.4013C45.0457 88.9643 44.648 88.9915 44.2081 88.9915C43.1286 88.9915 42.1829 88.819 41.3729 88.4758C40.5628 88.1326 39.9195 87.6278 39.4393 86.9667C38.9609 86.3039 38.7208 85.563 38.7208 84.744C38.7208 84.2482 38.9059 83.6708 39.2743 83.0098C39.6427 82.3487 40.2329 81.8112 41.0411 81.3954C41.8512 80.9813 42.8629 80.7725 44.0798 80.7725C45.623 80.7725 46.8198 81.0848 47.6721 81.7113C48.8744 82.603 49.4755 83.6744 49.4755 84.9256C49.4755 85.6974 49.2318 86.4292 48.7442 87.1211C48.2567 87.8148 47.6281 88.2906 46.8565 88.5484C46.719 88.5993 46.6512 88.6538 46.6512 88.7119C46.6512 88.7627 46.7612 88.9643 46.9811 89.3184C47.201 89.6707 47.4485 89.9358 47.7234 90.1102C47.9983 90.2845 48.3044 90.3717 48.6453 90.3717C48.7864 90.3717 48.9678 90.3317 49.1841 90.2518C49.4022 90.1719 49.5525 90.132 49.6386 90.132ZM42.434 88.0763V87.9292C42.434 87.5896 42.5788 87.3063 42.8702 87.0793C43.1616 86.8523 43.5392 86.7397 44.0029 86.7397C44.4757 86.7397 44.9083 86.8451 45.2986 87.0575C45.689 87.27 46.0153 87.5642 46.2755 87.9419C46.2993 87.9819 46.3268 88.0018 46.3616 88.0018C46.4423 88.0018 46.6292 87.8893 46.9243 87.6641C47.2175 87.4389 47.4668 87.1029 47.6684 86.6562C47.8718 86.2095 47.9726 85.6847 47.9726 85.0818C47.9726 83.8959 47.6061 82.9643 46.8712 82.2924C46.1362 81.6187 45.207 81.2828 44.0835 81.2828C43.0022 81.2828 42.095 81.6115 41.36 82.267C40.6251 82.9226 40.2585 83.7597 40.2585 84.7767C40.2585 85.385 40.3282 85.9044 40.4675 86.3311C40.6068 86.7597 40.8047 87.1066 41.0594 87.3735C41.3142 87.6386 41.5928 87.8384 41.8934 87.9692C42.1939 88.0999 42.368 88.1653 42.4157 88.1653L42.445 88.1326L42.4377 88.0781L42.434 88.0763ZM45.1813 88.2924C45.1813 88.1943 45.0366 87.9982 44.747 87.704C44.4574 87.408 44.1183 87.2609 43.7316 87.2609C43.2496 87.2609 43.0095 87.4752 43.0095 87.9056C43.0095 88.0545 43.0315 88.1616 43.0773 88.2252C43.1231 88.2888 43.2386 88.336 43.4237 88.3669C43.6107 88.3977 43.9241 88.4141 44.3676 88.4141C44.6407 88.4141 44.8753 88.3995 45.0677 88.3723C45.1429 88.365 45.1813 88.3378 45.1813 88.2942V88.2924ZM51.3138 82.3723C51.3138 82.5539 51.3944 82.7392 51.5575 82.9262C51.7206 83.1133 52.1349 83.3911 52.8038 83.7579C54.0959 84.4589 54.9536 85.0255 55.3807 85.4558C55.8059 85.8862 56.0203 86.3457 56.0203 86.8324C56.0203 87.5224 55.6721 88.0599 54.9775 88.4431C54.281 88.8263 53.5204 89.0188 52.692 89.0188C52.1055 89.0188 51.5025 88.9243 50.8849 88.7373C50.2673 88.5503 49.9594 88.3523 49.9594 88.1453C49.9594 88.0945 49.9667 87.9982 49.9814 87.8584C49.996 87.7186 50.0033 87.5424 50.0033 87.3317C50.0033 87.2591 49.9942 87.1701 49.9795 87.0666C49.963 86.9631 49.9539 86.8941 49.9539 86.8614C49.9539 86.727 50.0565 86.6598 50.2636 86.6598C50.4927 86.6598 50.621 86.7942 50.6503 87.0648C50.7071 87.5097 50.9106 87.8547 51.2606 88.1017C51.6107 88.3487 52.0964 88.4722 52.7158 88.4722C53.3408 88.4722 53.8577 88.336 54.2664 88.0654C54.6751 87.7948 54.8803 87.4407 54.8803 87.0049C54.8803 86.7434 54.7429 86.4655 54.4661 86.1713C54.1894 85.8772 53.4673 85.4105 52.2961 84.7694C51.8141 84.5079 51.4329 84.2845 51.1562 84.1011C50.8794 83.9177 50.6466 83.6998 50.4597 83.4492C50.2728 83.1986 50.1793 82.9117 50.1793 82.5921C50.1793 82.0709 50.4854 81.6405 51.0993 81.2973C51.7115 80.9559 52.4189 80.7834 53.218 80.7834C53.6726 80.7834 54.1582 80.8705 54.6769 81.0431C55.1956 81.2156 55.454 81.419 55.454 81.6514C55.454 81.6841 55.4521 81.7368 55.4467 81.8076C55.4412 81.8784 55.4393 81.9837 55.4393 82.1217C55.4393 82.1581 55.4485 82.2289 55.4668 82.3342C55.4668 82.5739 55.3587 82.6956 55.1442 82.6956C55.0673 82.6956 54.9921 82.6683 54.9188 82.6121C54.8437 82.5558 54.807 82.4958 54.807 82.4305C54.807 82.0745 54.6512 81.8021 54.336 81.6115C54.0226 81.4208 53.6396 81.3263 53.1869 81.3263C52.6737 81.3263 52.232 81.4353 51.8654 81.6532C51.4971 81.8711 51.3138 82.1108 51.3138 82.3723ZM64.0405 81.9492C64.0405 81.6115 63.7729 81.4408 63.2377 81.4408C62.9683 81.4408 62.8327 81.3554 62.8327 81.1865C62.8327 81.0249 63.005 80.9432 63.3495 80.9432C63.4577 80.9432 63.6135 80.9577 63.8169 80.9868C64.0203 81.0158 64.1743 81.0303 64.2769 81.0303C64.4181 81.0303 64.6215 81.014 64.8854 80.9813C65.1493 80.9486 65.3491 80.9323 65.481 80.9323C65.58 80.9323 65.6735 80.9541 65.7615 80.9977C65.8494 81.0412 65.8934 81.0939 65.8934 81.1538C65.8934 81.2591 65.8549 81.3263 65.7798 81.359C65.7046 81.3917 65.5489 81.419 65.3143 81.4426C65.0797 81.4662 64.9239 81.537 64.8451 81.655C64.7663 81.7731 64.7278 81.9075 64.7278 82.0564V86.5073C64.7278 87.0575 64.649 87.4734 64.4895 87.7549C64.3301 88.0363 64.0716 88.2833 63.7124 88.494C63.3532 88.7046 62.9372 88.8608 62.4625 88.9607C61.9896 89.0605 61.4728 89.1114 60.9156 89.1114C59.9131 89.1114 59.081 88.9225 58.4212 88.5448C57.7614 88.1671 57.4316 87.6477 57.4316 86.9903V81.8766C57.4316 81.7713 57.3949 81.6823 57.3216 81.6115C57.2483 81.5406 57.0906 81.4934 56.8487 81.4716C56.6068 81.4498 56.4602 81.4171 56.4052 81.3754C56.3502 81.3336 56.3246 81.2791 56.3246 81.2119C56.3246 81.1375 56.3667 81.0794 56.451 81.0322C56.5353 80.9868 56.6325 80.9632 56.7406 80.9632C56.8781 80.9632 57.0742 80.9795 57.3289 81.0122C57.5837 81.0449 57.7743 81.0612 57.9026 81.0612C58.0529 81.0612 58.2746 81.0431 58.5642 81.0067C58.8538 80.9704 59.0755 80.9522 59.2258 80.9522C59.3871 80.9522 59.5191 80.974 59.6217 81.0176C59.7262 81.0612 59.7775 81.1266 59.7775 81.2101C59.7775 81.281 59.7518 81.3372 59.7023 81.3845C59.6528 81.4299 59.5246 81.4607 59.3156 81.4734C59.1067 81.4862 58.9472 81.5243 58.8373 81.586C58.7255 81.6478 58.6705 81.7822 58.6705 81.9892V86.9595C58.6705 87.4498 58.8959 87.8402 59.3468 88.1271C59.7976 88.4141 60.3731 88.5575 61.0769 88.5575C61.5186 88.5575 61.953 88.5012 62.38 88.3905C62.8071 88.2797 63.1736 88.1126 63.4797 87.8874C63.7858 87.6641 63.958 87.3662 63.9965 86.994C64.024 86.8995 64.0387 86.6798 64.0387 86.3384V81.9456L64.0405 81.9492ZM79.5072 82.899C79.4119 82.7319 79.3422 82.6484 79.2946 82.6484C79.2378 82.6484 79.1517 82.7646 79.0362 82.997L77.5223 85.6647L76.2137 87.9129C76.1752 87.9819 76.1569 88.0418 76.1569 88.0926C76.1569 88.1471 76.1844 88.1961 76.2394 88.2397C76.2944 88.2833 76.4227 88.3269 76.6261 88.3705C76.8295 88.4141 76.9578 88.4576 77.0091 88.5031C77.0605 88.5466 77.088 88.5975 77.088 88.6519C77.088 88.8208 76.9468 88.9062 76.6628 88.9062C76.5968 88.9062 76.4337 88.8916 76.1771 88.8608C75.9186 88.8299 75.7042 88.8136 75.5338 88.8136C75.3578 88.8136 75.1782 88.8281 74.9949 88.8553C74.8098 88.8826 74.676 88.8971 74.5899 88.8971C74.4708 88.8971 74.3736 88.8735 74.2985 88.8245L74.2875 88.8172C74.2527 88.8445 74.2068 88.8717 74.15 88.8953C74.0071 88.9552 73.8935 88.9843 73.8092 88.9843C73.591 88.9843 73.3253 88.9207 73.0137 88.7918C72.7003 88.6628 72.495 88.5521 72.3961 88.4613C72.211 88.2797 71.608 87.5388 70.5835 86.2367C70.1051 85.6302 69.8302 85.287 69.7587 85.2107C69.5022 84.9274 69.251 84.7458 69.0055 84.6659C68.9431 84.6477 68.9028 84.6278 68.8845 84.6078C68.8662 84.5878 68.857 84.5442 68.857 84.477C68.857 84.319 68.9798 84.2392 69.2254 84.2392C69.2492 84.2392 69.3152 84.2446 69.4233 84.2591C69.5315 84.2719 69.6378 84.2791 69.7422 84.2791C70.2609 84.2791 70.6953 84.1502 71.0453 83.8905C71.3954 83.6308 71.5695 83.2712 71.5695 82.8082C71.5695 82.4795 71.3734 82.1544 70.9793 81.8294C70.5871 81.5043 70.0428 81.3427 69.3464 81.3427C69.0861 81.3427 68.8955 81.3645 68.7745 81.4117C68.6536 81.4571 68.5784 81.5134 68.5473 81.5806C68.5161 81.6478 68.5014 81.7368 68.5014 81.8457V87.971C68.5014 88.0908 68.5693 88.1889 68.7049 88.2633C68.8405 88.3378 69.0183 88.3759 69.2364 88.3759C69.4746 88.3759 69.6341 88.3995 69.7147 88.4468C69.7954 88.494 69.8357 88.563 69.8357 88.6519C69.8357 88.7391 69.7844 88.8099 69.6836 88.868C69.5828 88.9262 69.4288 88.9552 69.2272 88.9552C69.044 88.9552 68.8167 88.9135 68.5509 88.8317C68.2833 88.75 68.0726 88.7083 67.9168 88.7083C67.7848 88.7083 67.5869 88.7464 67.3212 88.8263C67.0572 88.9044 66.8483 88.9443 66.698 88.9443C66.2636 88.9443 66.0456 88.839 66.0456 88.6302C66.0456 88.5503 66.0804 88.4921 66.1518 88.454C66.2233 88.4159 66.3993 88.3977 66.6815 88.3977C66.8501 88.3977 66.9894 88.3687 67.0976 88.3106C67.2057 88.2524 67.2607 88.1816 67.2607 88.0963V81.8675C67.2607 81.5897 67.0151 81.4408 66.5276 81.419C66.1885 81.4044 66.0199 81.3191 66.0199 81.1647C66.0199 81.0031 66.2141 80.9214 66.6009 80.9214C66.786 80.9214 66.9876 80.9341 67.2112 80.9595C67.433 80.9849 67.6217 80.9977 67.7793 80.9977C67.8838 80.9977 68.1715 80.9722 68.6444 80.9214C69.1173 80.8705 69.482 80.8451 69.7367 80.8451C70.7099 80.8451 71.5017 81.0376 72.1083 81.4244C72.715 81.8112 73.0192 82.3124 73.0192 82.928C73.0192 83.3221 72.8689 83.6471 72.5684 83.9032C72.2678 84.1611 71.751 84.399 71.0178 84.6169C70.8804 84.6568 70.8126 84.6986 70.8126 84.7422C70.8126 84.7712 70.8401 84.8185 70.8987 84.8838C71.159 85.1671 71.6502 85.7809 72.3704 86.727C73.0907 87.6713 73.4756 88.1653 73.5232 88.207C73.5709 88.2488 73.6955 88.296 73.9008 88.3487C74.0694 88.3923 74.1867 88.4359 74.2527 88.4794C74.2563 88.4776 74.26 88.474 74.2637 88.4722C74.3113 88.4431 74.3974 88.4213 74.5257 88.4068C74.8923 88.3596 75.1452 88.2524 75.2845 88.0872C75.4238 87.9219 75.7812 87.3354 76.3585 86.3257L78.0758 83.3766C78.4973 82.6702 78.7686 82.2016 78.8896 81.971C79.0105 81.7404 79.071 81.5606 79.071 81.4335C79.071 81.3899 79.0508 81.31 79.0087 81.1956C78.9665 81.0812 78.9464 80.9977 78.9464 80.9468C78.9464 80.8415 79.0197 80.7888 79.1663 80.7888C79.4064 80.7888 79.6007 80.8669 79.7473 81.0231C79.8939 81.1793 80.09 81.4734 80.3356 81.9075L82.3022 85.3251C83.017 86.5709 83.4678 87.3408 83.6584 87.635C83.8472 87.9292 84.003 88.1199 84.1239 88.2052C84.2449 88.2906 84.3915 88.3541 84.5601 88.3941C84.7287 88.434 84.8442 88.474 84.9065 88.5121C84.9688 88.5503 85 88.6156 85 88.7064C85 88.8335 84.8516 88.8971 84.5528 88.8971C84.4538 88.8971 84.2724 88.8862 84.0085 88.8608C83.7446 88.8372 83.4825 88.8263 83.2222 88.8263C82.962 88.8263 82.6907 88.839 82.4085 88.8662C82.1262 88.8935 81.9338 88.908 81.8293 88.908C81.668 88.908 81.5397 88.8862 81.4444 88.8444C81.3491 88.8027 81.3015 88.7446 81.3015 88.6701C81.3015 88.6084 81.3308 88.5557 81.3876 88.5157C81.4444 88.4758 81.5984 88.4467 81.8476 88.4286C82.0969 88.4104 82.26 88.3687 82.3333 88.3051C82.4067 88.2415 82.4433 88.1616 82.4433 88.069C82.4433 87.9673 82.3077 87.6877 82.0383 87.2282C81.7689 86.7688 81.6002 86.5255 81.5342 86.4964C81.4683 86.4673 81.34 86.4528 81.1512 86.4528H77.9842C77.8614 86.4528 77.7496 86.4219 77.6506 86.362C77.5516 86.3021 77.5022 86.2313 77.5022 86.1496C77.5022 86.0878 77.5406 86.0315 77.6194 85.9843C77.6983 85.9371 77.7862 85.9117 77.8852 85.9117H80.9313C81.1017 85.9117 81.186 85.8881 81.186 85.8408C81.186 85.8118 81.153 85.741 81.087 85.6284L79.5182 82.9044L79.5072 82.899Z" fill="#366C67"/>
</svg>
