<svg width="24" height="25" viewBox="0 0 24 25" fill="none" xmlns="http://www.w3.org/2000/svg">
<path fill-rule="evenodd" clip-rule="evenodd" d="M16.0136 21.3925L16.5708 20.5444C16.658 20.3726 16.7537 20.2051 16.8414 20.0339C17.36 19.0268 17.6908 17.9161 17.8816 16.8017C17.8841 16.7876 17.8859 16.7735 17.8884 16.7594C17.8258 16.7477 17.7576 16.7422 17.6791 16.7477C17.3569 16.6237 17.387 16.9944 17.3005 17.0607C17.2661 17.0864 17.1814 17.0318 17.0311 17.0202C16.9924 16.849 17.171 16.6446 17.2446 16.5661C16.8359 16.4906 16.1683 16.3016 15.8148 16.0076C15.7295 15.9364 15.6295 16.0199 15.554 15.9536C15.5073 15.9125 15.5092 15.7885 15.4724 15.7444C14.9495 15.2056 15.1091 16.0144 14.8225 15.07C14.801 15.0184 14.7611 14.9399 14.736 14.892L14.3616 14.0212C14.1782 13.7248 13.8572 13.6917 13.6627 13.3842C13.5528 13.2106 13.5725 13.1369 13.416 12.9614C13.2043 12.7233 13.0736 12.8006 12.9778 12.4969C12.9103 12.2827 12.9809 12.1409 12.6256 11.8501C12.3979 11.6635 12.0027 11.488 11.6621 11.4033C11.7033 11.812 11.845 11.739 12.115 11.9771C12.2556 12.1011 12.4611 12.3435 12.6747 12.6233C12.8238 12.819 12.9465 13.035 13.084 13.2394C13.2785 13.529 13.4706 13.7978 13.5449 13.9709C13.5903 14.077 13.6467 14.2446 13.7529 14.4232C13.8566 14.5974 14.0425 14.7312 14.1512 14.9399C14.3868 15.3915 14.6163 15.9542 14.7446 16.2249C14.288 15.907 13.9842 15.8364 13.8818 15.6934C13.7915 15.5676 13.713 15.3614 13.6062 15.0448C13.4043 14.4483 13.2994 14.1482 12.9533 13.6542C12.6557 13.2296 12.5016 12.7614 12.1917 12.3416C12.0162 12.1041 11.8714 12.0243 11.7284 11.7746C11.7131 11.7537 11.613 11.6414 11.5615 11.5052C11.5308 11.4242 11.5327 11.3352 11.4928 11.2567C11.429 11.1302 11.3203 11.1045 11.3412 10.983C11.3878 10.7111 11.645 10.7265 11.7812 10.6651C11.9407 10.5933 12.0573 10.4926 11.8364 10.2392C11.9205 9.91765 11.7978 10.0017 11.7787 9.95078C11.7714 9.93176 11.7996 9.89126 11.7714 9.8348C11.4105 9.6685 11.8192 9.60836 11.7303 9.41628C11.6836 9.35308 11.1571 9.28864 11.1933 9.06957C11.216 8.93211 11.2406 8.85969 11.0798 8.80753C10.8582 8.36999 10.9785 8.41908 10.9663 8.2896C10.9429 8.03984 10.5668 8.10918 10.3759 8.12698C9.93776 8.16748 9.50574 8.33194 9.15411 8.58907C8.83316 8.8241 8.65766 9.77773 8.85587 10.1827C9.02524 10.5282 9.17927 10.7123 9.34557 10.8786C9.46033 10.9928 9.6659 11.1266 9.85552 11.1744C9.93468 11.1941 9.84693 11.28 9.91873 11.3002C10.0034 11.3235 10.0482 11.2787 10.1347 11.2855C10.5563 11.3186 11.0043 11.2745 11.2455 11.4285C11.3117 11.4708 11.278 11.5715 11.3265 11.704C11.4326 11.9918 11.4952 11.9599 11.5953 12.044C11.7677 12.1888 12.2801 13.453 12.3869 13.761C12.3899 13.7708 11.9929 13.1381 11.9469 13.0768C11.4492 12.4146 10.4649 11.7126 9.83896 11.4549C9.80152 11.5377 9.73463 11.6629 9.61558 11.7347C9.52538 11.7887 9.37871 11.7727 9.29402 11.8482C9.194 11.9372 9.0817 12.0207 8.96265 12.0974C9.23818 12.2778 9.49653 12.4901 9.72236 12.7178C10.0402 13.0381 10.3354 13.4284 10.5987 13.7941C10.8662 14.1654 11.1276 14.5539 11.359 14.9484L11.3627 14.9552L11.9745 16.1113L11.9782 16.1187C12.1721 16.5286 12.3384 16.9244 12.5624 17.3221C12.9858 18.0732 13.4534 18.7955 14.002 19.4619C14.6715 20.2756 15.1545 20.8488 16.0136 21.3901V21.3925ZM10.938 23.4421C10.849 23.4121 10.7717 23.436 10.7116 23.4108C10.5158 23.3274 10.3017 23.3151 10.1041 23.2427C10.0083 23.2071 9.91014 23.1777 9.81073 23.1549C9.28911 23.0341 8.11027 22.5057 7.6623 22.224C6.72524 21.6349 5.81579 20.7561 5.14567 19.8792C4.98244 19.6651 4.52403 18.9894 4.40253 18.7341C4.31845 18.5574 4.22579 18.3843 4.13436 18.2119C3.97235 17.9057 3.79684 17.4823 3.68761 17.1527C3.62195 16.9539 3.55567 16.7551 3.49922 16.5532C3.46608 16.4341 3.46546 16.3083 3.41146 16.1936C3.32616 16.0119 3.20711 15.1724 3.18932 14.965C3.18072 14.8656 3.18195 14.7637 3.15925 14.6643C3.18441 15.1141 3.0899 15.5652 3.19545 16.015C3.22614 16.1457 3.21448 16.2893 3.23964 16.4261C3.27891 16.644 3.28198 16.8698 3.35992 17.0797C3.40717 17.2055 3.41085 17.3399 3.46301 17.4681C3.50597 17.5737 3.52254 17.6977 3.55997 17.8124C3.96069 19.0342 4.61976 20.1192 5.52184 21.0341C6.54482 22.0712 7.94274 22.8892 9.36153 23.2261C9.61926 23.2875 9.877 23.3556 10.1421 23.3838C10.3998 23.4108 10.6545 23.471 10.9362 23.4434L10.938 23.4421ZM11.4314 5.45694C11.5259 5.46308 11.6247 5.45387 11.7149 5.4778C12.0267 5.56065 12.6618 5.58213 13.149 5.7024C13.9646 5.90368 14.6936 6.14915 15.4325 6.56276C16.5401 7.18256 17.4459 7.91956 18.2259 8.93026C18.4419 9.21071 18.7855 9.78264 18.9574 10.0925L19.4016 11.0198C19.579 11.5162 19.6937 11.8519 19.8281 12.3711C19.9239 12.7417 20.0785 13.5898 20.0503 13.9641C20.0392 14.112 20.1012 14.2397 20.1362 14.3784C20.154 14.1556 20.1626 13.9328 20.1522 13.7113C20.1313 13.2535 20.1963 12.7933 20.0945 12.3367C20.0497 12.136 20.038 11.9286 20.0018 11.7249C19.9656 11.5218 19.8527 11.3364 19.8656 11.1241C19.8662 11.1174 19.8607 11.1106 19.8576 11.1039C19.7925 10.9756 19.6692 10.4675 19.5919 10.3239C19.498 10.1484 19.4464 9.95508 19.3513 9.7808C18.9874 9.11436 19.0629 9.1518 18.5302 8.50009C17.7368 7.5305 16.6874 6.75422 15.5534 6.22586C14.9434 5.94173 14.1057 5.67049 13.4338 5.56801C12.4703 5.42135 12.3838 5.46001 11.4314 5.45694ZM11.5578 24.0239C11.0927 24.0595 10.274 23.9515 9.79539 23.8478C8.23362 23.509 6.77003 22.7794 5.58751 21.703C4.89775 21.0746 4.47064 20.5027 3.95455 19.7301C3.79071 19.484 3.55874 18.9526 3.41882 18.666L3.03713 17.6657L2.80148 16.6182C2.78184 16.4341 2.74994 16.2451 2.70391 16.0653C2.6542 15.8702 2.68305 15.6713 2.64316 15.4829C2.57627 15.1694 2.58731 14.8521 2.58854 14.5391C2.58916 14.2918 2.55725 14.0341 2.61186 13.796C2.66525 13.5634 2.62904 13.3272 2.69716 13.0964C2.73889 12.9547 2.72416 12.7908 2.76773 12.6441C2.82357 12.4551 2.81805 12.2563 2.89844 12.0673C2.95919 11.9255 2.9776 11.7586 3.02179 11.6046C3.16907 11.0977 3.42558 10.4785 3.65263 10.0164C3.98462 9.34019 4.36325 8.76028 4.83147 8.16932C5.13462 7.78701 5.65992 7.36297 6.04162 7.03957C6.2564 6.85731 7.16953 6.2682 7.4199 6.14301C7.69605 6.00494 7.97404 5.86871 8.25755 5.74413C8.44778 5.66067 8.64416 5.59194 8.83562 5.51217C9.02156 5.43485 9.22223 5.39557 9.41307 5.32807C9.76716 5.2035 10.4268 5.07156 10.8282 5.00835C15.3926 4.28975 19.1832 6.41732 20.9984 10.7111C21.1162 10.9903 21.3071 11.696 21.369 11.9845C21.4519 12.3705 21.501 12.7601 21.5531 13.151C21.6127 13.5959 21.6569 14.6005 21.5857 15.0607C21.5458 15.3185 21.5452 15.5799 21.4918 15.8346C21.439 16.0874 21.3954 16.3439 21.3236 16.5912C21.1217 17.2883 20.9505 17.8805 20.6149 18.539C19.9269 19.886 18.9684 21.117 17.7583 22.035C17.6687 22.1031 17.5502 22.0976 17.4398 22.0767C17.1299 22.0172 16.8715 21.862 16.6475 21.6447C16.318 21.325 16.5076 21.4833 16.8599 20.7666C16.9544 20.5745 17.0611 20.3892 17.1593 20.1989C17.6938 19.1612 18.0369 18.0131 18.2338 16.8643C18.2596 16.7127 18.2559 16.5593 18.2866 16.4126C18.4198 15.7781 18.3885 15.1356 18.3879 14.4956C18.3873 14.2163 18.3682 13.9328 18.3185 13.6585C18.2934 13.5217 18.3093 13.3812 18.2713 13.2517C18.205 13.0252 18.2007 12.789 18.1387 12.5607C18.0945 12.3981 18.0626 12.2287 18.024 12.0624C17.9608 11.7918 17.7515 11.1063 17.6441 10.8658C17.5564 10.6688 17.4981 10.4613 17.4023 10.2656C17.3336 10.1257 17.2796 9.96981 17.209 9.82989C16.9568 9.32853 16.6095 8.80324 16.2309 8.38902C15.9179 8.04598 15.5847 7.71705 15.1975 7.46239C14.4083 6.94323 14.4236 6.9868 13.597 6.63762C13.373 6.54312 12.4826 6.35841 12.2218 6.34184C11.429 6.29029 10.9564 6.313 10.209 6.50446C9.24063 6.75238 8.42631 7.13101 7.68562 7.81708C6.97929 8.47063 6.47609 9.26655 6.23308 10.2018C6.17724 10.4166 6.10421 10.6319 6.0858 10.8498C6.06432 11.0996 6.014 11.3481 6.02934 11.6009C6.03364 11.6727 6.04284 11.7083 6.1306 11.6936C6.36133 11.6549 6.59023 11.7095 6.82035 11.7144C7.13025 11.7212 7.42297 11.8212 7.71937 11.8912C7.90346 11.9341 8.07406 12.0366 8.24896 12.1152C8.69386 12.3146 9.12527 12.6276 9.46953 12.9749C9.96598 13.4757 10.6864 14.5109 11.0515 15.135L11.656 16.2776C11.8874 16.7661 11.969 17.0024 12.2519 17.5037C12.6876 18.2763 13.1619 19.0084 13.7265 19.6951C14.0407 20.0774 14.3684 20.4493 14.7243 20.7948C15.2827 21.3367 15.2036 21.3195 15.894 21.765C16.3082 22.0319 16.9691 22.3584 17.4385 22.4891C17.5625 22.5235 17.6822 22.5756 17.808 22.6088C18.7064 22.8481 19.7889 22.9445 20.7069 22.8039C21.0291 22.7548 21.3574 22.6984 21.655 22.5456C22.0287 22.3535 22.3822 22.1399 22.6614 21.8116C23.0094 21.4023 23.083 21.3127 23.2849 20.8108C23.4144 20.488 23.3616 20.0118 23.0585 19.8123C22.5025 19.446 21.9533 19.3779 21.3623 19.7246C20.8032 20.0523 20.4443 20.7193 20.5817 21.3698C20.6277 21.5883 20.4608 21.5993 20.4111 21.4827C20.2945 21.2078 20.3399 20.6843 20.4645 20.407C20.6719 19.943 20.9125 19.6295 21.3715 19.3729C21.5918 19.2502 22.0588 19.1287 22.2908 19.1367C23.0996 19.1649 23.7224 19.5215 23.9544 20.3303C24.0661 20.7199 23.9618 21.2446 23.7593 21.5852C23.2223 22.4867 22.6252 23.0942 21.6648 23.5544C21.1193 23.8159 20.6689 23.8815 20.0859 23.968C19.4599 24.0607 18.3412 23.9717 17.7171 23.8545C16.5862 23.6416 16.0007 23.4219 14.9667 22.9395C14.6145 22.7751 14.091 22.4413 13.7603 22.2197C13.2865 21.9018 12.7017 21.4029 12.2832 21.009C11.3983 20.1768 10.5195 19.0385 9.94021 17.972C9.89725 17.8922 9.84386 17.8179 9.80643 17.7357C9.57815 17.2362 8.77732 16.061 8.40974 15.629C7.93047 15.065 7.72182 14.7232 7.01182 14.4986C6.6878 14.3961 6.36379 14.4054 6.03548 14.4428C5.79063 14.471 5.99375 14.9141 5.98148 15.1822C5.96859 15.4633 6.13428 16.177 6.22633 16.4789C6.33004 16.817 6.32145 16.9257 6.45829 17.2791C6.52273 17.4454 6.57121 17.6179 6.6516 17.7787C6.6964 17.8689 6.70928 17.9738 6.75837 18.0652C6.89031 18.3089 6.99525 18.5654 7.1278 18.809C7.35301 19.2232 7.66598 19.7596 7.95502 20.1216C8.64477 20.9844 8.83685 21.2336 9.81564 21.7975C10.3876 22.1271 10.9761 22.3455 11.6143 22.4959C11.8291 22.5462 12.0488 22.5695 12.2617 22.6272C12.412 22.6683 13.0116 22.68 13.1601 22.6732C13.4976 22.6585 14.2549 23.1586 14.5445 23.3759C14.6261 23.4366 14.62 23.5452 14.4856 23.5802C14.3303 23.6201 14.1788 23.6704 14.0247 23.7146C13.6173 23.8324 13.1239 23.9061 12.7054 23.9644C12.3445 24.0147 11.9855 24.0239 11.5572 24.027L11.5578 24.0239ZM2.8696 5.38514C2.87942 5.12863 2.86162 4.87335 2.84198 4.61745C2.83769 4.56467 2.81253 4.53522 2.77387 4.51374C2.45722 4.33885 2.45292 3.76569 2.82173 3.59509C3.03345 3.49752 3.26296 3.50365 3.45503 3.627C3.61029 3.72703 3.70602 3.89272 3.68516 4.09706C3.68331 4.11916 3.68209 4.14125 3.67718 4.16211C3.64465 4.3051 3.66245 4.33823 3.79377 4.41187C4.1319 4.60272 4.46819 4.79602 4.80632 4.98749C5.03644 5.11758 5.26902 5.24461 5.49975 5.37409C5.56726 5.41214 5.58751 5.3925 5.58812 5.31825C5.58996 5.15318 5.54946 4.99424 5.52491 4.83284C5.48073 4.54565 5.41998 4.26091 5.36659 3.97556C5.31934 3.72641 5.28497 3.47481 5.22974 3.22751C5.16408 2.93479 5.1021 2.64146 5.04564 2.3469C4.98366 2.02473 4.88241 1.70992 4.80877 1.38959C4.78606 1.29079 4.76949 1.19138 4.73881 1.09442C4.72592 1.05392 4.70813 1.03551 4.66517 1.02876C4.38166 0.981503 4.25218 0.826861 4.25034 0.537826C4.2485 0.201539 4.51298 -0.0463801 4.84743 0.00762213C5.19354 0.0634653 5.41507 0.32059 5.30522 0.692469C5.29356 0.731129 5.30829 0.747698 5.32731 0.767335C5.6366 1.08214 5.92011 1.42089 6.23185 1.73385C6.42945 1.93268 6.62153 2.13826 6.82097 2.33524C7.12105 2.63225 7.41867 2.93233 7.73471 3.21339C7.9857 3.43676 8.22994 3.66627 8.47724 3.89333C8.50915 3.92278 8.53861 3.97372 8.5834 3.95592C8.63066 3.9369 8.61961 3.87615 8.63004 3.83135C8.69264 3.56195 8.70736 3.28458 8.72454 3.0115C8.7448 2.67705 8.7945 2.34199 8.77425 2.00509C8.76689 1.88236 8.73436 1.78172 8.59752 1.72158C8.39562 1.6326 8.27289 1.29877 8.36003 1.09994C8.49074 0.802314 8.82396 0.64583 9.12895 0.774086C9.41246 0.893136 9.51003 1.04471 9.49592 1.3362C9.4953 1.34356 9.49776 1.35215 9.49469 1.35829C9.38607 1.54607 9.54071 1.6056 9.65547 1.6731C9.97273 1.85904 10.2814 2.05787 10.6042 2.23583C10.8828 2.38986 11.1626 2.54266 11.4406 2.69914C11.4891 2.72614 11.5185 2.72798 11.5676 2.6746C11.7861 2.4365 11.945 2.1628 12.0893 1.87745C12.1334 1.79031 12.1746 1.70071 12.2218 1.6148C12.2611 1.54362 12.2365 1.50066 12.1733 1.46261C11.9966 1.35645 11.9058 1.19813 11.9101 0.993163C11.9156 0.705356 12.1052 0.486892 12.4151 0.462345C12.7514 0.435344 12.9404 0.585692 13.0552 0.866749C13.1227 1.03182 13.0061 1.33927 12.841 1.43745C12.7864 1.46998 12.7802 1.4933 12.8066 1.53503C12.8962 1.67555 12.9649 1.82836 13.0607 1.96582C13.1411 2.0818 13.1994 2.21312 13.2755 2.33217C13.4553 2.61323 13.6167 2.90595 13.8118 3.17841C13.9849 3.4202 14.1352 3.67855 14.3046 3.9234C14.4469 4.12897 14.5862 4.33701 14.747 4.5297C14.7832 4.57265 14.8084 4.62849 14.8256 4.6825C14.8458 4.74693 14.7937 4.75245 14.7476 4.75552C14.6243 4.76289 14.5059 4.72545 14.3923 4.69109C14.1868 4.62788 13.9781 4.58247 13.7682 4.54074C13.5154 4.49042 13.2571 4.46649 13.003 4.4266C12.4746 4.34253 11.945 4.3683 11.4148 4.36892C11.1062 4.36892 10.7981 4.38242 10.4962 4.44133C10.1722 4.50515 9.84325 4.53829 9.52169 4.62788C9.25597 4.70213 8.98596 4.7635 8.72332 4.85125C8.49258 4.92858 8.26491 5.01388 8.03909 5.10715C7.78012 5.21454 7.52422 5.32746 7.2763 5.4551C6.9259 5.63613 6.59023 5.8417 6.26131 6.06262C5.906 6.30072 5.5691 6.5603 5.2457 6.83768C5.01926 7.03221 4.81368 7.24944 4.60258 7.46116C4.37491 7.68883 4.17302 7.93736 3.9699 8.18467C3.72504 8.48291 3.51333 8.80569 3.30591 9.1297C3.15741 9.36167 3.01994 9.60161 2.89783 9.8483C2.81989 10.006 2.75423 10.1717 2.6763 10.33C2.64745 10.3883 2.61677 10.4454 2.58302 10.5006C2.56031 10.5374 2.51858 10.5374 2.4836 10.527C2.44249 10.5141 2.40751 10.4933 2.39094 10.4436C2.31423 10.214 2.22219 9.99006 2.13996 9.76362C2.05097 9.51877 1.9399 9.28373 1.85522 9.03704C1.80735 8.89713 1.73862 8.76458 1.68094 8.62834C1.61466 8.47186 1.55145 8.31353 1.48334 8.15828C1.41399 7.99995 1.34097 7.84285 1.26672 7.68637C1.11821 7.37218 0.985658 7.05 0.813833 6.74686C0.780695 6.68794 0.758604 6.68242 0.699079 6.69163C0.248037 6.76158 -0.117092 6.34123 0.0350963 5.9313C0.128987 5.67908 0.389177 5.54224 0.699689 5.58274C1.00284 5.62263 1.20965 5.84661 1.18633 6.15651C1.17344 6.33202 1.24094 6.39645 1.38577 6.46518C1.64289 6.5873 1.90615 6.69101 2.17248 6.78797C2.3081 6.83768 2.44801 6.87572 2.5867 6.91745C2.65788 6.93893 2.69839 6.92298 2.71557 6.83645C2.76528 6.58608 2.79657 6.33386 2.83339 6.08226C2.86776 5.84723 2.85119 5.61649 2.87082 5.38514H2.8696Z" fill="#366C67"/>
</svg>
