<svg width="345" height="184" viewBox="0 0 345 184" fill="none" xmlns="http://www.w3.org/2000/svg">
<rect width="344.721" height="182.852" rx="11.9903" transform="matrix(-1 0 0 1 345 0.573975)" fill="url(#paint0_linear_435_148)"/>
<path d="M45.0881 82.3939L48.2935 78.3981L43.6391 77.0808L44.5173 74.5048L49.0839 76.3197L48.8058 71.2116H51.6453L51.3379 76.4222L55.8167 74.6219L56.6803 77.2419L51.9527 78.5591L55.0556 82.4671L52.7577 84.0771L50.0646 79.8033L47.3861 83.9454L45.0881 82.3939ZM60.1989 82.3939L63.4043 78.3981L58.7499 77.0808L59.6281 74.5048L64.1947 76.3197L63.9166 71.2116H66.7561L66.4488 76.4222L70.9276 74.6219L71.7911 77.2419L67.0635 78.5591L70.1665 82.4671L67.8685 84.0771L65.1754 79.8033L62.4969 83.9454L60.1989 82.3939ZM75.3098 82.3939L78.5152 78.3981L73.8607 77.0808L74.7389 74.5048L79.3056 76.3197L79.0275 71.2116H81.867L81.5596 76.4222L86.0384 74.6219L86.9019 77.2419L82.1743 78.5591L85.2773 82.4671L82.9793 84.0771L80.2862 79.8033L77.6077 83.9454L75.3098 82.3939ZM90.4206 82.3939L93.626 78.3981L88.9716 77.0808L89.8498 74.5048L94.4164 76.3197L94.1383 71.2116H96.9778L96.6704 76.4222L101.149 74.6219L102.013 77.2419L97.2852 78.5591L100.388 82.4671L98.0902 84.0771L95.397 79.8033L92.7185 83.9454L90.4206 82.3939ZM114.495 82.3939L117.7 78.3981L113.046 77.0808L113.924 74.5048L118.491 76.3197L118.213 71.2116H121.052L120.745 76.4222L125.223 74.6219L126.087 77.2419L121.359 78.5591L124.462 82.4671L122.164 84.0771L119.471 79.8033L116.793 83.9454L114.495 82.3939ZM129.606 82.3939L132.811 78.3981L128.157 77.0808L129.035 74.5048L133.601 76.3197L133.323 71.2116H136.163L135.856 76.4222L140.334 74.6219L141.198 77.2419L136.47 78.5591L139.573 82.4671L137.275 84.0771L134.582 79.8033L131.904 83.9454L129.606 82.3939ZM144.717 82.3939L147.922 78.3981L143.267 77.0808L144.146 74.5048L148.712 76.3197L148.434 71.2116H151.274L150.966 76.4222L155.445 74.6219L156.309 77.2419L151.581 78.5591L154.684 82.4671L152.386 84.0771L149.693 79.8033L147.014 83.9454L144.717 82.3939ZM159.827 82.3939L163.033 78.3981L158.378 77.0808L159.257 74.5048L163.823 76.3197L163.545 71.2116H166.385L166.077 76.4222L170.556 74.6219L171.42 77.2419L166.692 78.5591L169.795 82.4671L167.497 84.0771L164.804 79.8033L162.125 83.9454L159.827 82.3939ZM183.902 82.3939L187.107 78.3981L182.453 77.0808L183.331 74.5048L187.897 76.3197L187.619 71.2116H190.459L190.151 76.4222L194.63 74.6219L195.494 77.2419L190.766 78.5591L193.869 82.4671L191.571 84.0771L188.878 79.8033L186.2 83.9454L183.902 82.3939ZM199.012 82.3939L202.218 78.3981L197.563 77.0808L198.442 74.5048L203.008 76.3197L202.73 71.2116H205.57L205.262 76.4222L209.741 74.6219L210.605 77.2419L205.877 78.5591L208.98 82.4671L206.682 84.0771L203.989 79.8033L201.31 83.9454L199.012 82.3939ZM214.123 82.3939L217.329 78.3981L212.674 77.0808L213.552 74.5048L218.119 76.3197L217.841 71.2116H220.68L220.373 76.4222L224.852 74.6219L225.715 77.2419L220.988 78.5591L224.091 82.4671L221.793 84.0771L219.1 79.8033L216.421 83.9454L214.123 82.3939ZM229.234 82.3939L232.44 78.3981L227.785 77.0808L228.663 74.5048L233.23 76.3197L232.952 71.2116H235.791L235.484 76.4222L239.963 74.6219L240.826 77.2419L236.099 78.5591L239.202 82.4671L236.904 84.0771L234.211 79.8033L231.532 83.9454L229.234 82.3939ZM256.894 82.8184L253.528 82.0134L254.743 71.2116H266.715V74.6219H258.212L257.685 79.3495C257.968 79.1836 258.397 79.008 258.973 78.8226C259.548 78.6274 260.192 78.5299 260.905 78.5299C261.939 78.5299 262.856 78.6909 263.656 79.0129C264.457 79.3349 265.135 79.8033 265.691 80.418C266.257 81.0327 266.686 81.7841 266.979 82.672C267.272 83.56 267.418 84.565 267.418 85.6872C267.418 86.6337 267.272 87.5363 266.979 88.3949C266.686 89.2439 266.242 90.005 265.647 90.6782C265.052 91.3418 264.305 91.8638 263.408 92.2444C262.51 92.6249 261.446 92.8152 260.217 92.8152C259.3 92.8152 258.412 92.6786 257.553 92.4054C256.704 92.1322 255.938 91.7272 255.255 91.1905C254.582 90.6539 254.04 90.005 253.63 89.2439C253.23 88.473 253.021 87.5948 253.001 86.6093H257.187C257.246 87.2143 257.402 87.7363 257.655 88.1754C257.919 88.6047 258.265 88.9365 258.695 89.1707C259.124 89.4049 259.627 89.522 260.202 89.522C260.739 89.522 261.197 89.4195 261.578 89.2146C261.959 89.0097 262.266 88.7267 262.5 88.3657C262.734 87.9949 262.905 87.5655 263.012 87.0776C263.13 86.58 263.188 86.0433 263.188 85.4676C263.188 84.8919 263.12 84.3699 262.983 83.9015C262.847 83.4331 262.637 83.0282 262.354 82.6867C262.071 82.3451 261.71 82.0817 261.271 81.8963C260.841 81.7109 260.339 81.6182 259.763 81.6182C258.982 81.6182 258.378 81.7402 257.948 81.9841C257.529 82.2281 257.177 82.5061 256.894 82.8184ZM275.606 82.8184L272.239 82.0134L273.454 71.2116H285.427V74.6219H276.923L276.396 79.3495C276.679 79.1836 277.108 79.008 277.684 78.8226C278.26 78.6274 278.904 78.5299 279.616 78.5299C280.651 78.5299 281.568 78.6909 282.368 79.0129C283.168 79.3349 283.846 79.8033 284.402 80.418C284.968 81.0327 285.398 81.7841 285.69 82.672C285.983 83.56 286.129 84.565 286.129 85.6872C286.129 86.6337 285.983 87.5363 285.69 88.3949C285.398 89.2439 284.954 90.005 284.358 90.6782C283.763 91.3418 283.017 91.8638 282.119 92.2444C281.221 92.6249 280.158 92.8152 278.928 92.8152C278.011 92.8152 277.123 92.6786 276.264 92.4054C275.416 92.1322 274.65 91.7272 273.966 91.1905C273.293 90.6539 272.752 90.005 272.342 89.2439C271.942 88.473 271.732 87.5948 271.712 86.6093H275.899C275.957 87.2143 276.113 87.7363 276.367 88.1754C276.63 88.6047 276.977 88.9365 277.406 89.1707C277.835 89.4049 278.338 89.522 278.914 89.522C279.45 89.522 279.909 89.4195 280.289 89.2146C280.67 89.0097 280.977 88.7267 281.212 88.3657C281.446 87.9949 281.617 87.5655 281.724 87.0776C281.841 86.58 281.9 86.0433 281.9 85.4676C281.9 84.8919 281.831 84.3699 281.695 83.9015C281.558 83.4331 281.348 83.0282 281.065 82.6867C280.782 82.3451 280.421 82.0817 279.982 81.8963C279.553 81.7109 279.05 81.6182 278.475 81.6182C277.694 81.6182 277.089 81.7402 276.66 81.9841C276.24 82.2281 275.889 82.5061 275.606 82.8184ZM304.929 89.2292V92.5225H290.351V89.7122L297.245 82.3208C297.937 81.5499 298.484 80.8717 298.884 80.2863C299.284 79.691 299.572 79.1592 299.747 78.6909C299.933 78.2127 300.025 77.759 300.025 77.3297C300.025 76.6857 299.918 76.1343 299.703 75.6757C299.489 75.2074 299.172 74.8463 298.752 74.5926C298.342 74.3389 297.835 74.2121 297.23 74.2121C296.586 74.2121 296.03 74.3682 295.561 74.6804C295.103 74.9927 294.751 75.4269 294.507 75.9831C294.273 76.5393 294.156 77.1687 294.156 77.8712H289.926C289.926 76.6027 290.229 75.4415 290.834 74.3877C291.439 73.3241 292.292 72.4801 293.395 71.8556C294.498 71.2213 295.805 70.9042 297.318 70.9042C298.811 70.9042 300.069 71.1481 301.094 71.636C302.128 72.1142 302.909 72.807 303.436 73.7144C303.972 74.6121 304.241 75.6855 304.241 76.9345C304.241 77.637 304.129 78.325 303.904 78.9982C303.68 79.6618 303.358 80.3253 302.938 80.9888C302.528 81.6426 302.031 82.3061 301.445 82.9794C300.86 83.6527 300.211 84.3504 299.499 85.0724L295.795 89.2292H304.929ZM312.048 89.317H312.326C313.497 89.317 314.502 89.1756 315.341 88.8926C316.19 88.5999 316.888 88.1803 317.434 87.6338C317.981 87.0874 318.386 86.419 318.649 85.6286C318.913 84.8285 319.044 83.921 319.044 82.9062V78.8665C319.044 78.0957 318.966 77.4175 318.81 76.832C318.664 76.2466 318.449 75.7636 318.166 75.383C317.893 74.9927 317.571 74.7 317.2 74.5048C316.839 74.3097 316.439 74.2121 316 74.2121C315.531 74.2121 315.117 74.3292 314.756 74.5634C314.395 74.7878 314.087 75.0951 313.834 75.4855C313.59 75.8758 313.399 76.3246 313.263 76.832C313.136 77.3297 313.073 77.8517 313.073 78.3981C313.073 78.9446 313.136 79.4666 313.263 79.9643C313.39 80.4521 313.58 80.8864 313.834 81.2669C314.087 81.6377 314.404 81.9353 314.785 82.1597C315.166 82.3744 315.614 82.4818 316.132 82.4818C316.629 82.4818 317.073 82.3891 317.464 82.2037C317.864 82.0085 318.2 81.7548 318.473 81.4426C318.756 81.1303 318.971 80.7839 319.117 80.4034C319.274 80.0228 319.352 79.6374 319.352 79.2471L320.742 80.0082C320.742 80.6912 320.596 81.3645 320.303 82.028C320.01 82.6915 319.6 83.2965 319.074 83.843C318.556 84.3796 317.956 84.809 317.273 85.131C316.59 85.453 315.858 85.614 315.078 85.614C314.082 85.614 313.199 85.4335 312.429 85.0724C311.658 84.7016 311.004 84.1942 310.467 83.5502C309.94 82.8965 309.54 82.1354 309.267 81.2669C308.994 80.3985 308.857 79.4569 308.857 78.4421C308.857 77.4077 309.023 76.4368 309.355 75.5294C309.696 74.6219 310.179 73.8218 310.804 73.129C311.438 72.4362 312.194 71.8946 313.073 71.5043C313.96 71.1042 314.946 70.9042 316.029 70.9042C317.112 70.9042 318.098 71.114 318.986 71.5336C319.874 71.9532 320.635 72.5484 321.269 73.3192C321.903 74.0803 322.391 74.9927 322.733 76.0563C323.084 77.1199 323.26 78.3006 323.26 79.5983V81.062C323.26 82.4476 323.108 83.7356 322.806 84.9261C322.513 86.1165 322.069 87.1947 321.474 88.1608C320.888 89.117 320.157 89.9367 319.278 90.6197C318.41 91.3027 317.4 91.8248 316.249 92.1858C315.097 92.5469 313.809 92.7274 312.385 92.7274H312.048V89.317Z" fill="white"/>
<path d="M236.917 132.699H238.381C238.334 133.257 238.178 133.754 237.913 134.191C237.647 134.625 237.274 134.966 236.794 135.216C236.314 135.466 235.731 135.591 235.044 135.591C234.517 135.591 234.043 135.497 233.621 135.31C233.2 135.118 232.838 134.849 232.538 134.502C232.237 134.15 232.007 133.727 231.847 133.231C231.691 132.736 231.613 132.181 231.613 131.569V130.86C231.613 130.247 231.693 129.693 231.853 129.197C232.017 128.702 232.251 128.278 232.556 127.927C232.86 127.572 233.225 127.301 233.65 127.113C234.08 126.926 234.562 126.832 235.096 126.832C235.776 126.832 236.349 126.957 236.818 127.207C237.286 127.457 237.649 127.802 237.907 128.243C238.168 128.684 238.328 129.19 238.387 129.76H236.923C236.884 129.393 236.798 129.078 236.665 128.817C236.537 128.555 236.345 128.356 236.092 128.22C235.838 128.079 235.506 128.009 235.096 128.009C234.761 128.009 234.468 128.071 234.218 128.196C233.968 128.321 233.76 128.505 233.592 128.747C233.424 128.989 233.297 129.287 233.211 129.642C233.129 129.994 233.088 130.396 233.088 130.848V131.569C233.088 131.998 233.125 132.388 233.2 132.74C233.278 133.087 233.395 133.385 233.551 133.635C233.711 133.885 233.914 134.078 234.16 134.215C234.406 134.351 234.7 134.42 235.044 134.42C235.461 134.42 235.799 134.353 236.057 134.221C236.318 134.088 236.515 133.895 236.648 133.641C236.785 133.384 236.874 133.069 236.917 132.699ZM243.147 134.203V131.182C243.147 130.956 243.106 130.761 243.024 130.597C242.942 130.433 242.817 130.306 242.649 130.216C242.485 130.126 242.278 130.082 242.028 130.082C241.798 130.082 241.599 130.121 241.431 130.199C241.263 130.277 241.133 130.382 241.039 130.515C240.945 130.647 240.898 130.798 240.898 130.966H239.493C239.493 130.716 239.554 130.474 239.675 130.24C239.796 130.005 239.971 129.797 240.202 129.613C240.432 129.43 240.707 129.285 241.027 129.18C241.347 129.075 241.706 129.022 242.104 129.022C242.581 129.022 243.002 129.102 243.369 129.262C243.74 129.422 244.031 129.664 244.241 129.988C244.456 130.308 244.563 130.71 244.563 131.194V134.01C244.563 134.299 244.583 134.558 244.622 134.789C244.665 135.015 244.725 135.212 244.803 135.38V135.474H243.357C243.291 135.321 243.238 135.128 243.199 134.894C243.164 134.656 243.147 134.426 243.147 134.203ZM243.351 131.621L243.363 132.494H242.35C242.089 132.494 241.859 132.519 241.659 132.57C241.46 132.617 241.295 132.687 241.162 132.78C241.029 132.874 240.93 132.987 240.863 133.12C240.797 133.253 240.764 133.403 240.764 133.571C240.764 133.739 240.803 133.893 240.881 134.033C240.959 134.17 241.072 134.277 241.22 134.355C241.373 134.433 241.556 134.472 241.771 134.472C242.06 134.472 242.311 134.414 242.526 134.297C242.745 134.176 242.916 134.029 243.041 133.858C243.166 133.682 243.232 133.516 243.24 133.36L243.697 133.987C243.65 134.147 243.57 134.318 243.457 134.502C243.344 134.685 243.195 134.861 243.012 135.029C242.832 135.193 242.616 135.327 242.362 135.433C242.112 135.538 241.823 135.591 241.496 135.591C241.082 135.591 240.713 135.509 240.389 135.345C240.065 135.177 239.811 134.953 239.628 134.672C239.444 134.387 239.353 134.065 239.353 133.706C239.353 133.37 239.415 133.073 239.54 132.816C239.669 132.554 239.856 132.336 240.102 132.16C240.352 131.984 240.656 131.852 241.015 131.762C241.375 131.668 241.784 131.621 242.245 131.621H243.351ZM247.456 130.345V135.474H246.045V129.139H247.391L247.456 130.345ZM249.393 129.098L249.382 130.409C249.296 130.394 249.202 130.382 249.101 130.374C249.003 130.366 248.906 130.363 248.808 130.363C248.566 130.363 248.353 130.398 248.17 130.468C247.986 130.534 247.832 130.632 247.707 130.761C247.586 130.886 247.493 131.038 247.426 131.217C247.36 131.397 247.321 131.598 247.309 131.82L246.987 131.844C246.987 131.446 247.026 131.077 247.104 130.737C247.182 130.398 247.299 130.099 247.456 129.841C247.616 129.584 247.815 129.383 248.053 129.238C248.295 129.094 248.574 129.022 248.89 129.022C248.976 129.022 249.068 129.03 249.165 129.045C249.267 129.061 249.343 129.078 249.393 129.098ZM254.024 134.162V126.481H255.441V135.474H254.159L254.024 134.162ZM249.903 132.377V132.254C249.903 131.774 249.959 131.336 250.073 130.942C250.186 130.544 250.35 130.203 250.564 129.918C250.779 129.629 251.041 129.408 251.349 129.256C251.657 129.1 252.005 129.022 252.391 129.022C252.774 129.022 253.109 129.096 253.398 129.244C253.687 129.393 253.933 129.605 254.136 129.882C254.339 130.156 254.501 130.484 254.622 130.866C254.743 131.245 254.829 131.666 254.879 132.131V132.523C254.829 132.976 254.743 133.389 254.622 133.764C254.501 134.139 254.339 134.463 254.136 134.736C253.933 135.009 253.685 135.22 253.392 135.368C253.103 135.517 252.766 135.591 252.379 135.591C251.997 135.591 251.651 135.511 251.343 135.351C251.039 135.191 250.779 134.966 250.564 134.677C250.35 134.389 250.186 134.049 250.073 133.659C249.959 133.264 249.903 132.837 249.903 132.377ZM251.314 132.254V132.377C251.314 132.665 251.339 132.935 251.39 133.184C251.445 133.434 251.528 133.655 251.642 133.846C251.755 134.033 251.901 134.182 252.081 134.291C252.264 134.396 252.483 134.449 252.736 134.449C253.057 134.449 253.32 134.379 253.527 134.238C253.734 134.098 253.896 133.908 254.013 133.67C254.134 133.428 254.216 133.159 254.259 132.862V131.803C254.235 131.572 254.186 131.358 254.112 131.159C254.042 130.96 253.946 130.786 253.825 130.638C253.704 130.485 253.554 130.368 253.375 130.286C253.199 130.201 252.99 130.158 252.748 130.158C252.491 130.158 252.272 130.212 252.092 130.322C251.913 130.431 251.765 130.581 251.647 130.772C251.534 130.964 251.45 131.186 251.396 131.44C251.341 131.693 251.314 131.965 251.314 132.254ZM258.31 126.481V135.474H256.905V126.481H258.31ZM258.064 132.072L257.608 132.066C257.611 131.629 257.672 131.225 257.789 130.854C257.91 130.484 258.078 130.162 258.293 129.888C258.511 129.611 258.773 129.398 259.077 129.25C259.381 129.098 259.719 129.022 260.09 129.022C260.402 129.022 260.683 129.065 260.933 129.151C261.187 129.236 261.405 129.375 261.589 129.566C261.772 129.754 261.911 130 262.004 130.304C262.102 130.605 262.151 130.971 262.151 131.405V135.474H260.734V131.393C260.734 131.089 260.689 130.847 260.599 130.667C260.513 130.487 260.387 130.359 260.219 130.281C260.051 130.199 259.846 130.158 259.604 130.158C259.35 130.158 259.126 130.208 258.931 130.31C258.739 130.411 258.579 130.55 258.451 130.726C258.322 130.901 258.224 131.104 258.158 131.334C258.095 131.565 258.064 131.811 258.064 132.072ZM263.31 132.377V132.242C263.31 131.785 263.376 131.362 263.509 130.971C263.642 130.577 263.833 130.236 264.083 129.947C264.336 129.654 264.645 129.428 265.008 129.268C265.375 129.104 265.788 129.022 266.249 129.022C266.713 129.022 267.127 129.104 267.49 129.268C267.857 129.428 268.167 129.654 268.421 129.947C268.675 130.236 268.868 130.577 269.001 130.971C269.133 131.362 269.2 131.785 269.2 132.242V132.377C269.2 132.833 269.133 133.257 269.001 133.647C268.868 134.037 268.675 134.379 268.421 134.672C268.167 134.96 267.859 135.187 267.496 135.351C267.133 135.511 266.721 135.591 266.261 135.591C265.796 135.591 265.381 135.511 265.014 135.351C264.651 135.187 264.342 134.96 264.089 134.672C263.835 134.379 263.642 134.037 263.509 133.647C263.376 133.257 263.31 132.833 263.31 132.377ZM264.721 132.242V132.377C264.721 132.661 264.75 132.931 264.809 133.184C264.867 133.438 264.959 133.661 265.084 133.852C265.209 134.043 265.369 134.193 265.564 134.303C265.759 134.412 265.991 134.467 266.261 134.467C266.522 134.467 266.749 134.412 266.94 134.303C267.135 134.193 267.295 134.043 267.42 133.852C267.545 133.661 267.637 133.438 267.695 133.184C267.758 132.931 267.789 132.661 267.789 132.377V132.242C267.789 131.961 267.758 131.695 267.695 131.446C267.637 131.192 267.543 130.968 267.414 130.772C267.289 130.577 267.129 130.425 266.934 130.316C266.743 130.203 266.514 130.146 266.249 130.146C265.984 130.146 265.753 130.203 265.558 130.316C265.367 130.425 265.209 130.577 265.084 130.772C264.959 130.968 264.867 131.192 264.809 131.446C264.75 131.695 264.721 131.961 264.721 132.242ZM271.893 126.481V135.474H270.476V126.481H271.893ZM277.303 134.162V126.481H278.719V135.474H277.437L277.303 134.162ZM273.181 132.377V132.254C273.181 131.774 273.237 131.336 273.351 130.942C273.464 130.544 273.628 130.203 273.842 129.918C274.057 129.629 274.319 129.408 274.627 129.256C274.935 129.1 275.283 129.022 275.669 129.022C276.052 129.022 276.387 129.096 276.676 129.244C276.965 129.393 277.211 129.605 277.414 129.882C277.617 130.156 277.779 130.484 277.9 130.866C278.021 131.245 278.107 131.666 278.157 132.131V132.523C278.107 132.976 278.021 133.389 277.9 133.764C277.779 134.139 277.617 134.463 277.414 134.736C277.211 135.009 276.963 135.22 276.67 135.368C276.381 135.517 276.044 135.591 275.657 135.591C275.275 135.591 274.929 135.511 274.621 135.351C274.317 135.191 274.057 134.966 273.842 134.677C273.628 134.389 273.464 134.049 273.351 133.659C273.237 133.264 273.181 132.837 273.181 132.377ZM274.592 132.254V132.377C274.592 132.665 274.617 132.935 274.668 133.184C274.723 133.434 274.807 133.655 274.92 133.846C275.033 134.033 275.179 134.182 275.359 134.291C275.542 134.396 275.761 134.449 276.015 134.449C276.335 134.449 276.598 134.379 276.805 134.238C277.012 134.098 277.174 133.908 277.291 133.67C277.412 133.428 277.494 133.159 277.537 132.862V131.803C277.513 131.572 277.465 131.358 277.39 131.159C277.32 130.96 277.224 130.786 277.103 130.638C276.982 130.485 276.832 130.368 276.653 130.286C276.477 130.201 276.268 130.158 276.026 130.158C275.769 130.158 275.55 130.212 275.371 130.322C275.191 130.431 275.043 130.581 274.926 130.772C274.812 130.964 274.728 131.186 274.674 131.44C274.619 131.693 274.592 131.965 274.592 132.254ZM282.987 135.591C282.519 135.591 282.096 135.515 281.717 135.362C281.342 135.206 281.022 134.99 280.757 134.713C280.495 134.435 280.294 134.11 280.154 133.735C280.013 133.36 279.943 132.956 279.943 132.523V132.289C279.943 131.793 280.015 131.344 280.16 130.942C280.304 130.54 280.505 130.197 280.763 129.912C281.02 129.623 281.325 129.402 281.676 129.25C282.027 129.098 282.408 129.022 282.818 129.022C283.27 129.022 283.667 129.098 284.006 129.25C284.346 129.402 284.627 129.617 284.849 129.894C285.076 130.167 285.243 130.493 285.353 130.872C285.466 131.25 285.522 131.668 285.522 132.125V132.728H280.628V131.715H284.129V131.604C284.121 131.35 284.07 131.112 283.977 130.889C283.887 130.667 283.748 130.487 283.561 130.351C283.374 130.214 283.124 130.146 282.812 130.146C282.578 130.146 282.369 130.197 282.185 130.298C282.006 130.396 281.855 130.538 281.734 130.726C281.613 130.913 281.52 131.139 281.453 131.405C281.391 131.666 281.36 131.961 281.36 132.289V132.523C281.36 132.8 281.397 133.058 281.471 133.296C281.549 133.53 281.662 133.735 281.811 133.91C281.959 134.086 282.138 134.225 282.349 134.326C282.56 134.424 282.8 134.472 283.069 134.472C283.409 134.472 283.711 134.404 283.977 134.268C284.242 134.131 284.473 133.938 284.668 133.688L285.411 134.408C285.275 134.607 285.097 134.798 284.878 134.982C284.66 135.161 284.393 135.308 284.076 135.421C283.764 135.534 283.401 135.591 282.987 135.591ZM288.04 130.345V135.474H286.629V129.139H287.976L288.04 130.345ZM289.978 129.098L289.966 130.409C289.88 130.394 289.787 130.382 289.685 130.374C289.588 130.366 289.49 130.363 289.392 130.363C289.15 130.363 288.938 130.398 288.754 130.468C288.571 130.534 288.417 130.632 288.292 130.761C288.171 130.886 288.077 131.038 288.011 131.217C287.944 131.397 287.905 131.598 287.894 131.82L287.572 131.844C287.572 131.446 287.611 131.077 287.689 130.737C287.767 130.398 287.884 130.099 288.04 129.841C288.2 129.584 288.399 129.383 288.637 129.238C288.879 129.094 289.158 129.022 289.474 129.022C289.56 129.022 289.652 129.03 289.749 129.045C289.851 129.061 289.927 129.078 289.978 129.098ZM300.75 126.949V135.474H299.281L295.458 129.367V135.474H293.988V126.949H295.458L299.293 133.067V126.949H300.75ZM305.932 134.203V131.182C305.932 130.956 305.891 130.761 305.809 130.597C305.727 130.433 305.602 130.306 305.434 130.216C305.27 130.126 305.063 130.082 304.813 130.082C304.583 130.082 304.384 130.121 304.216 130.199C304.048 130.277 303.918 130.382 303.824 130.515C303.73 130.647 303.684 130.798 303.684 130.966H302.278C302.278 130.716 302.339 130.474 302.46 130.24C302.581 130.005 302.757 129.797 302.987 129.613C303.217 129.43 303.492 129.285 303.812 129.18C304.132 129.075 304.491 129.022 304.89 129.022C305.366 129.022 305.787 129.102 306.154 129.262C306.525 129.422 306.816 129.664 307.027 129.988C307.241 130.308 307.349 130.71 307.349 131.194V134.01C307.349 134.299 307.368 134.558 307.407 134.789C307.45 135.015 307.511 135.212 307.589 135.38V135.474H306.142C306.076 135.321 306.023 135.128 305.984 134.894C305.949 134.656 305.932 134.426 305.932 134.203ZM306.137 131.621L306.148 132.494H305.135C304.874 132.494 304.644 132.519 304.445 132.57C304.246 132.617 304.08 132.687 303.947 132.78C303.814 132.874 303.715 132.987 303.648 133.12C303.582 133.253 303.549 133.403 303.549 133.571C303.549 133.739 303.588 133.893 303.666 134.033C303.744 134.17 303.857 134.277 304.006 134.355C304.158 134.433 304.341 134.472 304.556 134.472C304.845 134.472 305.096 134.414 305.311 134.297C305.53 134.176 305.701 134.029 305.826 133.858C305.951 133.682 306.018 133.516 306.025 133.36L306.482 133.987C306.435 134.147 306.355 134.318 306.242 134.502C306.129 134.685 305.981 134.861 305.797 135.029C305.618 135.193 305.401 135.327 305.147 135.433C304.897 135.538 304.609 135.591 304.281 135.591C303.867 135.591 303.498 135.509 303.174 135.345C302.85 135.177 302.597 134.953 302.413 134.672C302.23 134.387 302.138 134.065 302.138 133.706C302.138 133.37 302.2 133.073 302.325 132.816C302.454 132.554 302.641 132.336 302.887 132.16C303.137 131.984 303.442 131.852 303.801 131.762C304.16 131.668 304.57 131.621 305.03 131.621H306.137ZM310.235 130.427V135.474H308.824V129.139H310.153L310.235 130.427ZM310.007 132.072L309.526 132.066C309.526 131.629 309.581 131.225 309.69 130.854C309.8 130.484 309.96 130.162 310.17 129.888C310.381 129.611 310.643 129.398 310.955 129.25C311.271 129.098 311.636 129.022 312.05 129.022C312.339 129.022 312.602 129.065 312.84 129.151C313.082 129.233 313.291 129.363 313.467 129.543C313.646 129.722 313.783 129.953 313.876 130.234C313.974 130.515 314.023 130.854 314.023 131.252V135.474H312.612V131.375C312.612 131.067 312.565 130.825 312.471 130.649C312.382 130.474 312.251 130.349 312.079 130.275C311.911 130.197 311.71 130.158 311.476 130.158C311.211 130.158 310.984 130.208 310.797 130.31C310.613 130.411 310.463 130.55 310.346 130.726C310.229 130.901 310.143 131.104 310.089 131.334C310.034 131.565 310.007 131.811 310.007 132.072ZM313.935 131.697L313.273 131.844C313.273 131.461 313.326 131.1 313.432 130.761C313.541 130.417 313.699 130.117 313.906 129.859C314.117 129.598 314.376 129.393 314.684 129.244C314.993 129.096 315.346 129.022 315.744 129.022C316.068 129.022 316.357 129.067 316.611 129.156C316.868 129.242 317.087 129.379 317.266 129.566C317.446 129.754 317.582 129.998 317.676 130.298C317.77 130.595 317.817 130.954 317.817 131.375V135.474H316.4V131.37C316.4 131.049 316.353 130.802 316.259 130.626C316.17 130.45 316.041 130.329 315.873 130.263C315.705 130.193 315.504 130.158 315.27 130.158C315.051 130.158 314.858 130.199 314.69 130.281C314.526 130.359 314.388 130.47 314.275 130.614C314.161 130.755 314.076 130.917 314.017 131.1C313.962 131.284 313.935 131.483 313.935 131.697ZM322.061 135.591C321.593 135.591 321.169 135.515 320.791 135.362C320.416 135.206 320.096 134.99 319.831 134.713C319.569 134.435 319.368 134.11 319.228 133.735C319.087 133.36 319.017 132.956 319.017 132.523V132.289C319.017 131.793 319.089 131.344 319.233 130.942C319.378 130.54 319.579 130.197 319.836 129.912C320.094 129.623 320.399 129.402 320.75 129.25C321.101 129.098 321.482 129.022 321.891 129.022C322.344 129.022 322.74 129.098 323.08 129.25C323.42 129.402 323.701 129.617 323.923 129.894C324.149 130.167 324.317 130.493 324.427 130.872C324.54 131.25 324.596 131.668 324.596 132.125V132.728H319.702V131.715H323.203V131.604C323.195 131.35 323.144 131.112 323.051 130.889C322.961 130.667 322.822 130.487 322.635 130.351C322.448 130.214 322.198 130.146 321.886 130.146C321.651 130.146 321.443 130.197 321.259 130.298C321.08 130.396 320.929 130.538 320.808 130.726C320.687 130.913 320.594 131.139 320.527 131.405C320.465 131.666 320.434 131.961 320.434 132.289V132.523C320.434 132.8 320.471 133.058 320.545 133.296C320.623 133.53 320.736 133.735 320.884 133.91C321.033 134.086 321.212 134.225 321.423 134.326C321.634 134.424 321.874 134.472 322.143 134.472C322.483 134.472 322.785 134.404 323.051 134.268C323.316 134.131 323.546 133.938 323.742 133.688L324.485 134.408C324.348 134.607 324.171 134.798 323.952 134.982C323.734 135.161 323.466 135.308 323.15 135.421C322.838 135.534 322.475 135.591 322.061 135.591Z" fill="white"/>
<path d="M235.762 157.47V155.632H238.832V157.47H235.762ZM238.832 157.47V155.632C238.949 155.632 239.029 155.717 239.072 155.888C239.125 156.048 239.152 156.266 239.152 156.543C239.152 156.82 239.125 157.044 239.072 157.215C239.029 157.385 238.949 157.47 238.832 157.47ZM235.938 157.47C235.927 156.33 235.725 155.312 235.331 154.417C234.936 153.522 234.371 152.776 233.636 152.179C232.911 151.582 232.037 151.166 231.014 150.932L231.382 149.141C232.639 149.429 233.727 149.962 234.643 150.74C235.56 151.507 236.269 152.467 236.769 153.618C237.281 154.758 237.542 156.042 237.553 157.47H235.938ZM229.655 157.47V155.632H237.217V157.47H229.655ZM250.65 157.47C249.958 157.47 249.387 157.359 248.94 157.135C248.492 156.9 248.156 156.549 247.933 156.08C247.719 155.611 247.613 155.019 247.613 154.305V153.921H249.068V154.305C249.068 154.667 249.105 154.945 249.18 155.136C249.254 155.328 249.403 155.461 249.627 155.536C249.862 155.6 250.203 155.632 250.65 155.632H251.306V157.47H250.65ZM238.836 157.47C238.719 157.47 238.639 157.385 238.596 157.215C238.543 157.044 238.516 156.815 238.516 156.527C238.516 156.25 238.543 156.032 238.596 155.872C238.639 155.712 238.719 155.632 238.836 155.632V157.47ZM238.836 157.47V155.632C239.348 155.632 239.774 155.531 240.115 155.328C240.456 155.126 240.754 154.849 241.01 154.497C241.277 154.145 241.532 153.751 241.778 153.314C242.023 152.887 242.284 152.467 242.561 152.051C242.838 151.635 243.142 151.257 243.472 150.916C243.803 150.575 244.17 150.303 244.575 150.1C244.98 149.887 245.439 149.781 245.95 149.781C246.515 149.781 246.995 149.903 247.389 150.148C247.794 150.383 248.119 150.703 248.364 151.108C248.609 151.502 248.785 151.944 248.892 152.435C249.009 152.925 249.068 153.42 249.068 153.921C249.068 154.465 248.993 155.083 248.844 155.776C248.695 156.458 248.449 157.097 248.108 157.694L246.702 156.783C246.947 156.357 247.133 155.898 247.261 155.408C247.389 154.918 247.453 154.422 247.453 153.921C247.453 153.133 247.325 152.552 247.069 152.179C246.813 151.806 246.44 151.619 245.95 151.619C245.641 151.619 245.348 151.699 245.071 151.859C244.804 152.008 244.522 152.275 244.224 152.658C243.925 153.031 243.573 153.559 243.168 154.241C242.742 154.966 242.321 155.568 241.905 156.048C241.5 156.527 241.053 156.884 240.563 157.119C240.083 157.353 239.507 157.47 238.836 157.47ZM248.028 155.856L248.108 157.694C247.149 157.748 246.318 157.737 245.614 157.662C244.911 157.598 244.293 157.476 243.76 157.295C243.238 157.113 242.769 156.884 242.353 156.607C241.948 156.319 241.57 155.994 241.218 155.632L242.385 154.353C242.779 154.758 243.222 155.083 243.712 155.328C244.213 155.563 244.81 155.723 245.503 155.808C246.206 155.893 247.048 155.909 248.028 155.856ZM251.306 157.47V155.632C251.423 155.632 251.503 155.717 251.546 155.888C251.599 156.048 251.626 156.266 251.626 156.543C251.626 156.82 251.599 157.044 251.546 157.215C251.503 157.385 251.423 157.47 251.306 157.47ZM259.623 157.47V155.632H261.878V157.47H259.623ZM251.31 157.47C251.193 157.47 251.113 157.385 251.07 157.215C251.017 157.044 250.99 156.815 250.99 156.527C250.99 156.25 251.017 156.032 251.07 155.872C251.113 155.712 251.193 155.632 251.31 155.632V157.47ZM258.361 157.47V153.282C258.361 152.792 258.233 152.365 257.977 152.003C257.732 151.63 257.375 151.342 256.906 151.14C256.437 150.926 255.877 150.82 255.227 150.82C254.715 150.82 254.215 150.878 253.724 150.996C253.245 151.113 252.824 151.257 252.461 151.427L251.806 149.973C252.328 149.642 252.882 149.397 253.468 149.237C254.055 149.067 254.652 148.981 255.259 148.981C255.952 148.981 256.586 149.088 257.161 149.301C257.737 149.504 258.233 149.797 258.648 150.18C259.075 150.564 259.4 151.022 259.623 151.555C259.858 152.077 259.975 152.653 259.975 153.282V157.47H258.361ZM251.31 157.47V155.632H260.679L260.391 157.47H251.31ZM261.878 157.47V155.632C261.995 155.632 262.075 155.717 262.117 155.888C262.171 156.048 262.197 156.266 262.197 156.543C262.197 156.82 262.171 157.044 262.117 157.215C262.075 157.385 261.995 157.47 261.878 157.47ZM273.694 157.47C273.001 157.47 272.431 157.359 271.984 157.135C271.536 156.9 271.2 156.549 270.976 156.08C270.763 155.611 270.657 155.019 270.657 154.305V153.921H272.112V154.305C272.112 154.667 272.149 154.945 272.223 155.136C272.298 155.328 272.447 155.461 272.671 155.536C272.906 155.6 273.247 155.632 273.694 155.632H274.35V157.47H273.694ZM261.88 157.47C261.763 157.47 261.683 157.385 261.64 157.215C261.587 157.044 261.56 156.815 261.56 156.527C261.56 156.25 261.587 156.032 261.64 155.872C261.683 155.712 261.763 155.632 261.88 155.632V157.47ZM261.88 157.47V155.632C262.391 155.632 262.818 155.531 263.159 155.328C263.5 155.126 263.798 154.849 264.054 154.497C264.32 154.145 264.576 153.751 264.821 153.314C265.067 152.887 265.328 152.467 265.605 152.051C265.882 151.635 266.186 151.257 266.516 150.916C266.846 150.575 267.214 150.303 267.619 150.1C268.024 149.887 268.482 149.781 268.994 149.781C269.559 149.781 270.039 149.903 270.433 150.148C270.838 150.383 271.163 150.703 271.408 151.108C271.653 151.502 271.829 151.944 271.936 152.435C272.053 152.925 272.112 153.42 272.112 153.921C272.112 154.465 272.037 155.083 271.888 155.776C271.738 156.458 271.493 157.097 271.152 157.694L269.745 156.783C269.991 156.357 270.177 155.898 270.305 155.408C270.433 154.918 270.497 154.422 270.497 153.921C270.497 153.133 270.369 152.552 270.113 152.179C269.857 151.806 269.484 151.619 268.994 151.619C268.685 151.619 268.392 151.699 268.115 151.859C267.848 152.008 267.566 152.275 267.267 152.658C266.969 153.031 266.617 153.559 266.212 154.241C265.786 154.966 265.365 155.568 264.949 156.048C264.544 156.527 264.097 156.884 263.606 157.119C263.127 157.353 262.551 157.47 261.88 157.47ZM271.072 155.856L271.152 157.694C270.193 157.748 269.362 157.737 268.658 157.662C267.955 157.598 267.337 157.476 266.804 157.295C266.282 157.113 265.813 156.884 265.397 156.607C264.992 156.319 264.614 155.994 264.262 155.632L265.429 154.353C265.823 154.758 266.266 155.083 266.756 155.328C267.257 155.563 267.854 155.723 268.546 155.808C269.25 155.893 270.092 155.909 271.072 155.856ZM274.35 157.47V155.632C274.467 155.632 274.547 155.717 274.59 155.888C274.643 156.048 274.669 156.266 274.669 156.543C274.669 156.82 274.643 157.044 274.59 157.215C274.547 157.385 274.467 157.47 274.35 157.47ZM274.354 157.47V155.632H276.432V144.361H278.047V157.47H274.354ZM274.354 157.47C274.237 157.47 274.157 157.385 274.114 157.215C274.061 157.044 274.034 156.815 274.034 156.527C274.034 156.25 274.061 156.032 274.114 155.872C274.157 155.712 274.237 155.632 274.354 155.632V157.47ZM280.286 157.47V144.361H281.9V157.47H280.286ZM294.231 157.47V155.632H297.3V157.47H294.231ZM297.3 157.47V155.632C297.417 155.632 297.497 155.717 297.54 155.888C297.593 156.048 297.62 156.266 297.62 156.543C297.62 156.82 297.593 157.044 297.54 157.215C297.497 157.385 297.417 157.47 297.3 157.47ZM294.406 157.47C294.396 156.33 294.193 155.312 293.799 154.417C293.405 153.522 292.84 152.776 292.104 152.179C291.38 151.582 290.506 151.166 289.482 150.932L289.85 149.141C291.108 149.429 292.195 149.962 293.112 150.74C294.028 151.507 294.737 152.467 295.238 153.618C295.749 154.758 296.011 156.042 296.021 157.47H294.406ZM288.124 157.47V155.632H295.685V157.47H288.124ZM309.119 157.47C308.426 157.47 307.856 157.359 307.408 157.135C306.96 156.9 306.625 156.549 306.401 156.08C306.188 155.611 306.081 155.019 306.081 154.305V153.921H307.536V154.305C307.536 154.667 307.573 154.945 307.648 155.136C307.723 155.328 307.872 155.461 308.096 155.536C308.33 155.6 308.671 155.632 309.119 155.632H309.774V157.47H309.119ZM297.304 157.47C297.187 157.47 297.107 157.385 297.064 157.215C297.011 157.044 296.985 156.815 296.985 156.527C296.985 156.25 297.011 156.032 297.064 155.872C297.107 155.712 297.187 155.632 297.304 155.632V157.47ZM297.304 157.47V155.632C297.816 155.632 298.242 155.531 298.583 155.328C298.924 155.126 299.223 154.849 299.479 154.497C299.745 154.145 300.001 153.751 300.246 153.314C300.491 152.887 300.752 152.467 301.029 152.051C301.306 151.635 301.61 151.257 301.941 150.916C302.271 150.575 302.639 150.303 303.044 150.1C303.449 149.887 303.907 149.781 304.419 149.781C304.983 149.781 305.463 149.903 305.857 150.148C306.262 150.383 306.587 150.703 306.833 151.108C307.078 151.502 307.254 151.944 307.36 152.435C307.477 152.925 307.536 153.42 307.536 153.921C307.536 154.465 307.461 155.083 307.312 155.776C307.163 156.458 306.918 157.097 306.577 157.694L305.17 156.783C305.415 156.357 305.602 155.898 305.729 155.408C305.857 154.918 305.921 154.422 305.921 153.921C305.921 153.133 305.793 152.552 305.538 152.179C305.282 151.806 304.909 151.619 304.419 151.619C304.109 151.619 303.816 151.699 303.539 151.859C303.273 152.008 302.99 152.275 302.692 152.658C302.393 153.031 302.042 153.559 301.637 154.241C301.21 154.966 300.789 155.568 300.374 156.048C299.969 156.527 299.521 156.884 299.031 157.119C298.551 157.353 297.976 157.47 297.304 157.47ZM306.497 155.856L306.577 157.694C305.618 157.748 304.786 157.737 304.083 157.662C303.379 157.598 302.761 157.476 302.228 157.295C301.706 157.113 301.237 156.884 300.821 156.607C300.416 156.319 300.038 155.994 299.686 155.632L300.853 154.353C301.248 154.758 301.69 155.083 302.18 155.328C302.681 155.563 303.278 155.723 303.971 155.808C304.674 155.893 305.516 155.909 306.497 155.856ZM309.774 157.47V155.632C309.891 155.632 309.971 155.717 310.014 155.888C310.067 156.048 310.094 156.266 310.094 156.543C310.094 156.82 310.067 157.044 310.014 157.215C309.971 157.385 309.891 157.47 309.774 157.47ZM316.829 157.47V153.282C316.829 152.792 316.701 152.365 316.445 152.003C316.2 151.63 315.843 151.342 315.374 151.14C314.905 150.926 314.346 150.82 313.695 150.82C313.184 150.82 312.683 150.878 312.193 150.996C311.713 151.113 311.292 151.257 310.93 151.427L310.274 149.973C310.796 149.642 311.351 149.397 311.937 149.237C312.523 149.067 313.12 148.981 313.727 148.981C314.42 148.981 315.054 149.088 315.63 149.301C316.205 149.504 316.701 149.797 317.117 150.18C317.543 150.564 317.868 151.022 318.092 151.555C318.326 152.077 318.444 152.653 318.444 153.282V157.47H316.829ZM309.779 157.47V155.632H319.147L318.859 157.47H309.779ZM309.779 157.47C309.661 157.47 309.581 157.385 309.539 157.215C309.485 157.044 309.459 156.815 309.459 156.527C309.459 156.25 309.485 156.032 309.539 155.872C309.581 155.712 309.661 155.632 309.779 155.632V157.47ZM321.19 157.47V144.361H322.805V157.47H321.19Z" fill="white"/>
<path d="M26.7082 134.309V135.474H22.1825V134.309H26.7082ZM22.5982 126.949V135.474H21.1287V126.949H22.5982ZM26.1168 130.509V131.656H22.1825V130.509H26.1168ZM26.6789 126.949V128.12H22.1825V126.949H26.6789ZM28.8451 129.139L30.0512 131.241L31.2806 129.139H32.8321L30.9118 132.248L32.9082 135.474H31.3567L30.0687 133.284L28.7807 135.474H27.2234L29.214 132.248L27.2995 129.139H28.8451ZM35.215 130.357V137.909H33.804V129.139H35.1037L35.215 130.357ZM39.3425 132.248V132.371C39.3425 132.831 39.2878 133.259 39.1785 133.653C39.0732 134.043 38.9151 134.385 38.7043 134.677C38.4975 134.966 38.2418 135.191 37.9374 135.351C37.6329 135.511 37.2816 135.591 36.8835 135.591C36.4893 135.591 36.1439 135.519 35.8473 135.374C35.5545 135.226 35.3067 135.017 35.1037 134.748C34.9008 134.478 34.7368 134.162 34.6119 133.799C34.4909 133.432 34.4051 133.03 34.3543 132.593V132.119C34.4051 131.654 34.4909 131.233 34.6119 130.854C34.7368 130.476 34.9008 130.15 35.1037 129.877C35.3067 129.603 35.5545 129.393 35.8473 129.244C36.14 129.096 36.4815 129.022 36.8718 129.022C37.2699 129.022 37.6232 129.1 37.9315 129.256C38.2399 129.408 38.4994 129.627 38.7102 129.912C38.9209 130.193 39.079 130.532 39.1844 130.93C39.2898 131.325 39.3425 131.764 39.3425 132.248ZM37.9315 132.371V132.248C37.9315 131.955 37.9042 131.684 37.8495 131.434C37.7949 131.18 37.709 130.958 37.5919 130.767C37.4748 130.575 37.3246 130.427 37.1411 130.322C36.9616 130.212 36.745 130.158 36.4913 130.158C36.2415 130.158 36.0268 130.201 35.8473 130.286C35.6677 130.368 35.5174 130.484 35.3965 130.632C35.2755 130.78 35.1818 130.954 35.1154 131.153C35.0491 131.348 35.0022 131.561 34.9749 131.791V132.927C35.0218 133.208 35.1018 133.465 35.215 133.7C35.3281 133.934 35.4882 134.121 35.695 134.262C35.9058 134.398 36.1751 134.467 36.503 134.467C36.7567 134.467 36.9733 134.412 37.1528 134.303C37.3324 134.193 37.4788 134.043 37.5919 133.852C37.709 133.657 37.7949 133.432 37.8495 133.179C37.9042 132.925 37.9315 132.656 37.9315 132.371ZM42.0532 129.139V135.474H40.6364V129.139H42.0532ZM40.5427 127.476C40.5427 127.262 40.6129 127.084 40.7534 126.943C40.8979 126.799 41.0969 126.727 41.3506 126.727C41.6004 126.727 41.7975 126.799 41.9419 126.943C42.0864 127.084 42.1586 127.262 42.1586 127.476C42.1586 127.687 42.0864 127.863 41.9419 128.003C41.7975 128.144 41.6004 128.214 41.3506 128.214C41.0969 128.214 40.8979 128.144 40.7534 128.003C40.6129 127.863 40.5427 127.687 40.5427 127.476ZM45.0156 130.345V135.474H43.6047V129.139H44.9512L45.0156 130.345ZM46.9535 129.098L46.9418 130.409C46.8559 130.394 46.7623 130.382 46.6608 130.374C46.5632 130.366 46.4656 130.363 46.368 130.363C46.1261 130.363 45.9133 130.398 45.7299 130.468C45.5464 130.534 45.3923 130.632 45.2674 130.761C45.1464 130.886 45.0527 131.038 44.9864 131.217C44.92 131.397 44.881 131.598 44.8693 131.82L44.5473 131.844C44.5473 131.446 44.5863 131.077 44.6643 130.737C44.7424 130.398 44.8595 130.099 45.0156 129.841C45.1757 129.584 45.3747 129.383 45.6128 129.238C45.8548 129.094 46.1339 129.022 46.45 129.022C46.5359 129.022 46.6276 129.03 46.7252 129.045C46.8267 129.061 46.9028 129.078 46.9535 129.098ZM49.7813 134.783L51.5026 129.139H53.0131L50.4722 136.44C50.4136 136.596 50.3375 136.766 50.2438 136.949C50.1501 137.132 50.0272 137.306 49.875 137.47C49.7267 137.638 49.5413 137.773 49.3188 137.874C49.0963 137.979 48.827 138.032 48.5108 138.032C48.3859 138.032 48.265 138.02 48.1479 137.997C48.0347 137.977 47.9273 137.956 47.8259 137.933L47.82 136.855C47.859 136.859 47.9059 136.863 47.9605 136.867C48.0191 136.871 48.0659 136.873 48.101 136.873C48.3352 136.873 48.5304 136.844 48.6865 136.785C48.8426 136.73 48.9695 136.641 49.067 136.516C49.1685 136.391 49.2544 136.223 49.3246 136.012L49.7813 134.783ZM48.8094 129.139L50.3141 133.881L50.5658 135.368L49.5881 135.62L47.2872 129.139H48.8094ZM59.4239 135.474H57.6031L57.6148 134.309H59.4239C59.9508 134.309 60.3919 134.193 60.747 133.963C61.1061 133.733 61.3754 133.403 61.555 132.974C61.7384 132.544 61.8302 132.033 61.8302 131.44V130.977C61.8302 130.517 61.7775 130.109 61.6721 129.754C61.5706 129.398 61.4184 129.1 61.2154 128.858C61.0164 128.616 60.7705 128.432 60.4777 128.308C60.1889 128.183 59.8552 128.12 59.4766 128.12H57.568V126.949H59.4766C60.0425 126.949 60.5597 127.045 61.0281 127.236C61.4964 127.424 61.9004 127.695 62.24 128.05C62.5834 128.405 62.8469 128.831 63.0304 129.326C63.2138 129.822 63.3055 130.376 63.3055 130.989V131.44C63.3055 132.053 63.2138 132.607 63.0304 133.103C62.8469 133.598 62.5834 134.024 62.24 134.379C61.8965 134.73 61.4867 135.001 61.0105 135.193C60.5382 135.38 60.0094 135.474 59.4239 135.474ZM58.4169 126.949V135.474H56.9474V126.949H58.4169ZM68.2117 134.203V131.182C68.2117 130.956 68.1707 130.761 68.0888 130.597C68.0068 130.433 67.8819 130.306 67.7141 130.216C67.5501 130.126 67.3433 130.082 67.0935 130.082C66.8632 130.082 66.6641 130.121 66.4963 130.199C66.3285 130.277 66.1977 130.382 66.104 130.515C66.0104 130.647 65.9635 130.798 65.9635 130.966H64.5584C64.5584 130.716 64.6189 130.474 64.7399 130.24C64.8609 130.005 65.0365 129.797 65.2668 129.613C65.4971 129.43 65.7723 129.285 66.0923 129.18C66.4124 129.075 66.7715 129.022 67.1696 129.022C67.6458 129.022 68.0673 129.102 68.4342 129.262C68.805 129.422 69.0958 129.664 69.3065 129.988C69.5212 130.308 69.6285 130.71 69.6285 131.194V134.01C69.6285 134.299 69.648 134.558 69.6871 134.789C69.73 135.015 69.7905 135.212 69.8686 135.38V135.474H68.4225C68.3561 135.321 68.3034 135.128 68.2644 134.894C68.2293 134.656 68.2117 134.426 68.2117 134.203ZM68.4166 131.621L68.4283 132.494H67.4155C67.154 132.494 66.9237 132.519 66.7246 132.57C66.5256 132.617 66.3597 132.687 66.227 132.78C66.0943 132.874 65.9948 132.987 65.9284 133.12C65.862 133.253 65.8289 133.403 65.8289 133.571C65.8289 133.739 65.8679 133.893 65.946 134.033C66.024 134.17 66.1372 134.277 66.2855 134.355C66.4378 134.433 66.6212 134.472 66.8359 134.472C67.1247 134.472 67.3764 134.414 67.5911 134.297C67.8097 134.176 67.9814 134.029 68.1063 133.858C68.2312 133.682 68.2976 133.516 68.3054 133.36L68.762 133.987C68.7152 134.147 68.6352 134.318 68.522 134.502C68.4088 134.685 68.2605 134.861 68.0771 135.029C67.8975 135.193 67.6809 135.327 67.4272 135.433C67.1774 135.538 66.8886 135.591 66.5607 135.591C66.147 135.591 65.7781 135.509 65.4542 135.345C65.1302 135.177 64.8765 134.953 64.6931 134.672C64.5096 134.387 64.4179 134.065 64.4179 133.706C64.4179 133.37 64.4804 133.073 64.6052 132.816C64.7341 132.554 64.9214 132.336 65.1673 132.16C65.4171 131.984 65.7215 131.852 66.0806 131.762C66.4397 131.668 66.8495 131.621 67.3101 131.621H68.4166ZM74.0078 129.139V130.169H70.4365V129.139H74.0078ZM71.4669 127.587H72.8779V133.723C72.8779 133.918 72.9052 134.069 72.9598 134.174C73.0184 134.275 73.0984 134.344 73.1999 134.379C73.3013 134.414 73.4204 134.432 73.557 134.432C73.6546 134.432 73.7482 134.426 73.838 134.414C73.9278 134.402 74 134.391 74.0546 134.379L74.0605 135.456C73.9434 135.491 73.8068 135.522 73.6507 135.55C73.4984 135.577 73.3228 135.591 73.1238 135.591C72.7998 135.591 72.5129 135.534 72.2631 135.421C72.0133 135.304 71.8182 135.115 71.6777 134.853C71.5371 134.592 71.4669 134.244 71.4669 133.811V127.587ZM77.8894 135.591C77.4211 135.591 76.9976 135.515 76.619 135.362C76.2443 135.206 75.9242 134.99 75.6588 134.713C75.3973 134.435 75.1963 134.11 75.0558 133.735C74.9153 133.36 74.845 132.956 74.845 132.523V132.289C74.845 131.793 74.9172 131.344 75.0616 130.942C75.2061 130.54 75.4071 130.197 75.6647 129.912C75.9223 129.623 76.2267 129.402 76.578 129.25C76.9293 129.098 77.3098 129.022 77.7196 129.022C78.1724 129.022 78.5686 129.098 78.9081 129.25C79.2477 129.402 79.5287 129.617 79.7512 129.894C79.9776 130.167 80.1454 130.493 80.2547 130.872C80.3679 131.25 80.4245 131.668 80.4245 132.125V132.728H75.53V131.715H79.0311V131.604C79.0233 131.35 78.9725 131.112 78.8789 130.889C78.7891 130.667 78.6505 130.487 78.4632 130.351C78.2758 130.214 78.026 130.146 77.7138 130.146C77.4796 130.146 77.2708 130.197 77.0873 130.298C76.9078 130.396 76.7575 130.538 76.6365 130.726C76.5155 130.913 76.4219 131.139 76.3555 131.405C76.2931 131.666 76.2618 131.961 76.2618 132.289V132.523C76.2618 132.8 76.2989 133.058 76.3731 133.296C76.4511 133.53 76.5643 133.735 76.7126 133.91C76.861 134.086 77.0405 134.225 77.2513 134.326C77.462 134.424 77.7021 134.472 77.9714 134.472C78.311 134.472 78.6135 134.404 78.8789 134.268C79.1443 134.131 79.3746 133.938 79.5697 133.688L80.3133 134.408C80.1766 134.607 79.9991 134.798 79.7805 134.982C79.5619 135.161 79.2945 135.308 78.9784 135.421C78.6661 135.534 78.3032 135.591 77.8894 135.591Z" fill="white"/>
<path d="M26.3901 146.073V157.47H24.3214V148.486L21.5815 149.391V147.721L26.1559 146.073H26.3901ZM37.912 155.847V157.47H30.2151V156.081L33.9074 152.092C34.2925 151.655 34.597 151.275 34.8207 150.952C35.0445 150.63 35.2032 150.338 35.2969 150.078C35.3958 149.813 35.4452 149.56 35.4452 149.321C35.4452 148.972 35.3828 148.668 35.2579 148.407C35.133 148.142 34.9508 147.937 34.7115 147.791C34.4773 147.645 34.1884 147.572 33.845 147.572C33.4651 147.572 33.1398 147.661 32.8692 147.838C32.6038 148.009 32.4008 148.249 32.2603 148.556C32.125 148.863 32.0574 149.214 32.0574 149.61H29.9887C29.9887 148.938 30.1448 148.327 30.4571 147.775C30.7693 147.218 31.2169 146.773 31.7998 146.44C32.3826 146.107 33.0748 145.941 33.8762 145.941C34.6568 145.941 35.3177 146.071 35.859 146.331C36.4002 146.586 36.8113 146.95 37.0923 147.424C37.3734 147.897 37.5139 148.462 37.5139 149.118C37.5139 149.482 37.454 149.841 37.3343 150.195C37.2146 150.549 37.0455 150.9 36.8269 151.249C36.6136 151.592 36.3586 151.941 36.0619 152.295C35.7653 152.649 35.4348 153.011 35.0705 153.38L32.8536 155.847H37.912ZM44.3443 146.105L40.0509 158.446H38.4818L42.7752 146.105H44.3443ZM47.6931 150.874H48.8563C49.2674 150.874 49.6057 150.804 49.8711 150.663C50.1417 150.518 50.342 150.32 50.4721 150.07C50.6075 149.815 50.6751 149.521 50.6751 149.188C50.6751 148.86 50.6153 148.577 50.4956 148.337C50.3759 148.093 50.1937 147.905 49.9491 147.775C49.7097 147.64 49.4027 147.572 49.028 147.572C48.7262 147.572 48.4477 147.632 48.1927 147.752C47.9429 147.871 47.7426 148.043 47.5917 148.267C47.4459 148.486 47.3731 148.748 47.3731 149.055H45.3045C45.3045 148.441 45.4658 147.903 45.7884 147.44C46.1163 146.971 46.5586 146.604 47.1155 146.339C47.6723 146.073 48.2942 145.941 48.9812 145.941C49.7306 145.941 50.3863 146.066 50.9483 146.315C51.5156 146.56 51.9553 146.922 52.2676 147.4C52.585 147.879 52.7437 148.473 52.7437 149.18C52.7437 149.519 52.6631 149.857 52.5018 150.195C52.3456 150.528 52.114 150.83 51.807 151.101C51.5052 151.366 51.1331 151.582 50.6907 151.749C50.2536 151.91 49.7514 151.991 49.1841 151.991H47.6931V150.874ZM47.6931 152.467V151.366H49.1841C49.8242 151.366 50.3785 151.441 50.8468 151.592C51.3204 151.738 51.7107 151.946 52.0178 152.217C52.3248 152.482 52.5512 152.792 52.6969 153.146C52.8478 153.5 52.9233 153.88 52.9233 154.286C52.9233 154.816 52.8244 155.29 52.6267 155.706C52.4289 156.117 52.1505 156.466 51.7914 156.752C51.4375 157.039 51.0212 157.257 50.5424 157.408C50.0636 157.554 49.5458 157.627 48.989 157.627C48.505 157.627 48.034 157.562 47.5761 157.431C47.1233 157.296 46.7148 157.096 46.3505 156.83C45.9862 156.56 45.6974 156.221 45.484 155.816C45.2706 155.404 45.1639 154.928 45.1639 154.387H47.2326C47.2326 154.699 47.308 154.978 47.459 155.222C47.6151 155.467 47.8285 155.659 48.0991 155.8C48.3749 155.935 48.6845 156.003 49.028 156.003C49.4079 156.003 49.7332 155.935 50.0038 155.8C50.2796 155.659 50.4904 155.462 50.6361 155.207C50.7818 154.946 50.8547 154.637 50.8547 154.278C50.8547 153.851 50.774 153.505 50.6127 153.24C50.4513 152.974 50.2197 152.779 49.9179 152.654C49.6213 152.529 49.2674 152.467 48.8563 152.467H47.6931ZM56.6156 152.24L54.9685 151.842L55.6008 146.105H61.8536V147.814H57.3104L57.0137 150.468C57.1751 150.369 57.4092 150.271 57.7163 150.172C58.0285 150.068 58.3798 150.016 58.7701 150.016C59.3114 150.016 59.7953 150.104 60.2221 150.281C60.6488 150.453 61.0105 150.702 61.3071 151.03C61.609 151.358 61.8354 151.759 61.9863 152.233C62.1424 152.701 62.2205 153.232 62.2205 153.825C62.2205 154.345 62.1424 154.835 61.9863 155.293C61.8354 155.745 61.6038 156.149 61.2915 156.502C60.9793 156.851 60.5864 157.127 60.1128 157.33C59.6392 157.528 59.0824 157.627 58.4423 157.627C57.9583 157.627 57.4925 157.556 57.045 157.416C56.6026 157.27 56.2045 157.059 55.8506 156.784C55.4967 156.502 55.2131 156.159 54.9997 155.753C54.7916 155.347 54.6771 154.881 54.6563 154.356H56.6937C56.7301 154.704 56.8238 155.001 56.9747 155.246C57.1256 155.49 57.3234 155.678 57.568 155.808C57.8178 155.938 58.1066 156.003 58.4345 156.003C58.7311 156.003 58.9861 155.948 59.1995 155.839C59.418 155.724 59.5976 155.566 59.7381 155.363C59.8786 155.16 59.9827 154.92 60.0503 154.645C60.118 154.369 60.1518 154.067 60.1518 153.739C60.1518 153.422 60.1128 153.133 60.0347 152.873C59.9567 152.607 59.837 152.378 59.6756 152.186C59.5143 151.993 59.3114 151.845 59.0668 151.741C58.8274 151.637 58.5463 151.585 58.2237 151.585C57.7918 151.585 57.4587 151.65 57.2245 151.78C56.9955 151.91 56.7926 152.063 56.6156 152.24Z" fill="white"/>
<path d="M44.0095 29.0441L40.8053 44.0244H36.9295L40.1341 29.0441H44.0095ZM60.3143 38.7171L62.3541 33.0917L63.5279 38.7171H60.3143ZM64.6398 44.0244H68.2234L65.0927 29.0441H61.787C61.0421 29.0441 60.414 29.476 60.1361 30.1422L54.3209 44.0244H58.3911L59.199 41.7872H64.1705L64.6398 44.0244ZM54.5228 39.1339C54.5396 35.1803 49.0574 34.9613 49.0941 33.1948C49.1059 32.658 49.6181 32.0863 50.7373 31.94C51.2923 31.8686 52.8236 31.8106 54.5595 32.6105L55.2384 29.4326C54.3061 29.0953 53.1063 28.7705 51.6134 28.7705C47.7821 28.7705 45.087 30.8056 45.0654 33.7221C45.0408 35.8788 46.9907 37.0813 48.4566 37.7996C49.9681 38.5338 50.4745 39.0045 50.4671 39.6605C50.4567 40.6655 49.2619 41.1106 48.1494 41.1275C46.1999 41.1578 45.0698 40.6005 44.1692 40.1807L43.4657 43.4648C44.3727 43.8799 46.0439 44.2411 47.7744 44.2596C51.8475 44.2596 54.5106 42.2484 54.5228 39.1339ZM38.4717 29.0441L32.1923 44.0244H28.0962L25.0059 32.0691C24.8185 31.3339 24.6551 31.0637 24.0854 30.753C23.1534 30.2469 21.615 29.7736 20.2622 29.4791L20.3539 29.0441H26.9483C27.7883 29.0441 28.544 29.6031 28.7364 30.5707L30.3688 39.24L34.4002 29.0441H38.4717Z" fill="white"/>
<defs>
<linearGradient id="paint0_linear_435_148" x1="242" y1="0.426027" x2="-46.5" y2="208.426" gradientUnits="userSpaceOnUse">
<stop stop-color="#366C67"/>
<stop offset="1" stop-color="#69D2C8"/>
</linearGradient>
</defs>
</svg>
