<svg width="16" height="16" viewBox="0 0 16 16" fill="none" xmlns="http://www.w3.org/2000/svg">
<path d="M10 7.99976C10 9.10242 9.10267 9.99976 8 9.99976C6.89733 9.99976 6 9.10242 6 7.99976C6 6.89709 6.89733 5.99976 8 5.99976C9.10267 5.99976 10 6.89709 10 7.99976ZM16 7.99976C16 8.36842 15.7013 8.66642 15.3333 8.66642H14.6333C14.3193 11.8111 11.8113 14.3198 8.66667 14.6331V15.3331C8.66667 15.7018 8.368 15.9998 8 15.9998C7.632 15.9998 7.33333 15.7018 7.33333 15.3331V14.6331C4.18867 14.3191 1.68 11.8111 1.36667 8.66642H0.666667C0.298667 8.66642 0 8.36842 0 7.99976C0 7.63109 0.298667 7.33309 0.666667 7.33309H1.36667C1.68 4.18842 4.18867 1.67976 7.33333 1.36642V0.666423C7.33333 0.297756 7.632 -0.000244141 8 -0.000244141C8.368 -0.000244141 8.66667 0.297756 8.66667 0.666423V1.36642C11.8113 1.68042 14.32 4.18842 14.6333 7.33309H15.3333C15.7013 7.33309 16 7.63109 16 7.99976ZM11.3333 7.99976C11.3333 6.16176 9.838 4.66642 8 4.66642C6.162 4.66642 4.66667 6.16176 4.66667 7.99976C4.66667 9.83776 6.162 11.3331 8 11.3331C9.838 11.3331 11.3333 9.83776 11.3333 7.99976Z" fill="#366C67"/>
</svg>
