<svg width="24" height="24" viewBox="0 0 24 24" fill="none" xmlns="http://www.w3.org/2000/svg">
<g clip-path="url(#clip0_400_440)">
<path d="M18 15.9999H22V16.9999C21.9977 17.7722 21.8158 18.5334 21.4687 19.2233C21.1216 19.9131 20.6188 20.5128 20 20.9749V21.4999C19.9994 22.1191 19.7691 22.716 19.3537 23.175C18.9383 23.6341 18.3673 23.9227 17.7513 23.9849C17.1353 24.0471 16.5181 23.8786 16.0193 23.5119C15.5205 23.1452 15.1754 22.6064 15.051 21.9999H8.951C8.8287 22.6086 8.48428 23.15 7.9848 23.5188C7.48532 23.8875 6.8665 24.0572 6.24879 23.9948C5.63109 23.9324 5.05869 23.6424 4.64302 23.1813C4.22734 22.7201 3.99813 22.1208 4 21.4999V20.9749C3.38125 20.5128 2.87845 19.9131 2.53134 19.2233C2.18423 18.5334 2.00233 17.7722 2 16.9999V15.9999H6V16.9999C6 17.2652 6.10536 17.5195 6.29289 17.7071C6.48043 17.8946 6.73478 17.9999 7 17.9999C7.26522 17.9999 7.51957 17.8946 7.70711 17.7071C7.89464 17.5195 8 17.2652 8 16.9999V15.9999H16V16.9999C16 17.2652 16.1054 17.5195 16.2929 17.7071C16.4804 17.8946 16.7348 17.9999 17 17.9999C17.2652 17.9999 17.5196 17.8946 17.7071 17.7071C17.8946 17.5195 18 17.2652 18 16.9999V15.9999ZM9 2.99995H15C15.2652 2.99995 15.5196 3.1053 15.7071 3.29284C15.8946 3.48038 16 3.73473 16 3.99995H21.479C21.1141 3.15088 20.5549 2.3994 19.8464 1.80606C19.1379 1.21271 18.2999 0.7941 17.4 0.583947C13.8417 -0.191068 10.1583 -0.191068 6.6 0.583947C5.70007 0.7941 4.86209 1.21271 4.15359 1.80606C3.44508 2.3994 2.88587 3.15088 2.521 3.99995H8C8 3.73473 8.10536 3.48038 8.29289 3.29284C8.48043 3.1053 8.73478 2.99995 9 2.99995ZM22 8.99995V6.41995C22 6.27695 21.974 6.14095 21.965 5.99995H2.035C2.026 6.14095 2 6.27695 2 6.41995V8.99995C1.46957 8.99995 0.960859 9.21066 0.585786 9.58574C0.210714 9.96081 0 10.4695 0 10.9999L0 11.9999C0 12.5304 0.210714 13.0391 0.585786 13.4142C0.960859 13.7892 1.46957 13.9999 2 13.9999H22C22.5304 13.9999 23.0391 13.7892 23.4142 13.4142C23.7893 13.0391 24 12.5304 24 11.9999V10.9999C24 10.4695 23.7893 9.96081 23.4142 9.58574C23.0391 9.21066 22.5304 8.99995 22 8.99995Z" fill="#366C67"/>
</g>
<defs>
<clipPath id="clip0_400_440">
<rect width="24" height="24" fill="white"/>
</clipPath>
</defs>
</svg>
