<svg width="24" height="24" viewBox="0 0 24 24" fill="none" xmlns="http://www.w3.org/2000/svg">
<g clip-path="url(#clip0_400_529)">
<path d="M22 8V5.229C22 3.231 20.669 1.454 18.764 0.908C16.659 0.305 14.383 0 12 0C9.617 0 7.341 0.306 5.236 0.908C3.33 1.454 2 3.231 2 5.229V8C0.897 8 0 8.897 0 10V12C0 13.103 0.897 14 2 14V16.5C2 18.057 2.795 19.432 4 20.24V21.5C4 22.878 5.122 24 6.5 24C7.878 24 9 22.878 9 21.5V21H15V21.5C15 22.878 16.121 24 17.5 24C18.879 24 20 22.878 20 21.5V20.24C21.205 19.432 22 18.057 22 16.5V14C23.103 14 24 13.103 24 12V10C24 8.897 23.103 8 22 8ZM12.5 13V6H21V13H12.5ZM3 13V6H11.5V13H3ZM15 5H9V4.5C9 4.224 9.224 4 9.5 4H14.5C14.775 4 15 4.224 15 4.5V5ZM5.512 1.869C7.527 1.292 9.71 1 12 1C14.29 1 16.473 1.292 18.488 1.869C19.893 2.272 20.896 3.541 20.991 5H15.999V4.5C15.999 3.673 15.326 3 14.499 3H9.499C8.672 3 7.999 3.673 7.999 4.5V5H3.008C3.104 3.541 4.107 2.272 5.512 1.869ZM1 12V10C1 9.449 1.449 9 2 9V13C1.449 13 1 12.551 1 12ZM8 21.5C8 22.327 7.327 23 6.5 23C5.673 23 5 22.327 5 21.5V20.743C5.469 20.909 5.974 21 6.5 21H8V21.5ZM19 21.5C19 22.327 18.327 23 17.5 23C16.673 23 16 22.327 16 21.5V21H17.5C18.026 21 18.531 20.909 19 20.743V21.5ZM21 16.5C21 18.43 19.43 20 17.5 20H6.5C4.57 20 3 18.43 3 16.5V14H6V15.5C6 15.776 6.224 16 6.5 16C6.776 16 7 15.776 7 15.5V14H17V15.5C17 15.776 17.224 16 17.5 16C17.776 16 18 15.776 18 15.5V14H21V16.5ZM23 12C23 12.551 22.552 13 22 13V9C22.552 9 23 9.449 23 10V12Z" fill="#112220"/>
</g>
<defs>
<clipPath id="clip0_400_529">
<rect width="24" height="24" fill="white"/>
</clipPath>
</defs>
</svg>
