<svg width="24" height="24" viewBox="0 0 24 24" fill="none" xmlns="http://www.w3.org/2000/svg">
<path d="M4.12445 4.87569C3.82706 4.87717 3.54225 4.99587 3.33183 5.20603C3.12141 5.41618 3.00235 5.70084 3.00049 5.99823V15.7496C3.00049 16.3676 3.5079 16.875 4.12445 16.875H22.1248C22.4228 16.8739 22.7083 16.7552 22.9193 16.5447C23.1303 16.3343 23.2497 16.049 23.2516 15.751V5.99964C23.2501 5.70139 23.1309 5.4158 22.9198 5.20503C22.7088 4.99427 22.4231 4.87539 22.1248 4.87427L4.12445 4.87569Z" fill="#34A853"/>
<path d="M1.87518 7.125C1.57755 7.12649 1.29253 7.24539 1.08207 7.45585C0.871606 7.66631 0.752711 7.95133 0.751221 8.24896V17.9989C0.751221 18.6155 1.25721 19.1257 1.87518 19.1257H19.8755C20.4935 19.1257 21.0009 18.6155 21.0009 17.9989V8.24896C20.9994 7.95133 20.8805 7.66631 20.6701 7.45585C20.4596 7.24539 20.1746 7.12649 19.877 7.125H1.87518Z" fill="#62DC6E"/>
<path d="M4.83881 8.62594C4.74595 8.63474 4.65968 8.67778 4.5968 8.74668C4.53393 8.81559 4.49894 8.90542 4.49865 8.9987C4.4994 9.24511 4.45146 9.48924 4.3576 9.71706C4.26373 9.94489 4.12579 10.1519 3.95168 10.3263C3.77758 10.5007 3.57075 10.6389 3.34306 10.7331C3.11537 10.8273 2.87132 10.8757 2.62491 10.8753C2.52579 10.8756 2.43083 10.9152 2.36074 10.9853C2.29065 11.0554 2.25111 11.1503 2.25073 11.2495V15.0012C2.25148 15.1001 2.29118 15.1947 2.36124 15.2644C2.43129 15.3342 2.52603 15.3736 2.62491 15.3739C3.66525 15.3739 4.49865 16.2088 4.49865 17.2491C4.49865 17.2985 4.50841 17.3475 4.52738 17.3932C4.54634 17.4388 4.57413 17.4803 4.60916 17.5152C4.64419 17.5501 4.68576 17.5777 4.7315 17.5965C4.77723 17.6153 4.82622 17.6249 4.87567 17.6247H16.8764C16.9755 17.624 17.0703 17.5841 17.1401 17.5137C17.21 17.4433 17.2491 17.3482 17.2491 17.2491C17.2491 16.2088 18.0854 15.3739 19.1257 15.3739C19.2246 15.3736 19.3193 15.3342 19.3894 15.2644C19.4594 15.1947 19.4991 15.1001 19.4999 15.0012V11.2495C19.4995 11.1503 19.46 11.0554 19.3899 10.9853C19.3198 10.9152 19.2248 10.8756 19.1257 10.8753C18.0868 10.8753 17.2491 10.039 17.2491 8.9987C17.2484 8.90007 17.2089 8.80569 17.1391 8.73594C17.0694 8.66619 16.975 8.62668 16.8764 8.62594H4.87567C4.86339 8.62534 4.85109 8.62534 4.83881 8.62594Z" fill="#34A853"/>
<path d="M10.8725 8.62183C10.6854 8.62183 10.4983 8.74655 10.4983 8.99742V9.79114C10.0754 9.87876 9.69557 10.1094 9.42272 10.4442C9.14987 10.779 9.00066 11.1975 9.0002 11.6294C9.0002 12.6599 9.8421 13.5032 10.8725 13.5032C11.0206 13.5024 11.1674 13.5311 11.3044 13.5874C11.4414 13.6438 11.5658 13.7268 11.6705 13.8316C11.7751 13.9364 11.858 14.0609 11.9142 14.198C11.9704 14.335 11.9988 14.4819 11.9979 14.63C11.9986 14.7779 11.97 14.9245 11.9137 15.0613C11.8574 15.1981 11.7745 15.3224 11.6699 15.4269C11.5652 15.5315 11.4408 15.6142 11.304 15.6703C11.1671 15.7265 11.0204 15.7549 10.8725 15.7539C10.7248 15.7547 10.5783 15.7261 10.4417 15.6699C10.3051 15.6136 10.181 15.5309 10.0766 15.4263C9.97217 15.3218 9.88955 15.1976 9.83348 15.0609C9.77742 14.9242 9.74904 14.7777 9.74998 14.63C9.73864 14.141 9.01012 14.141 8.99878 14.63C8.99878 15.5328 9.64509 16.2911 10.4969 16.4669V17.2549C10.4969 17.7538 11.2467 17.7538 11.2467 17.2549V16.4669C11.6697 16.3794 12.0497 16.1491 12.323 15.8146C12.5963 15.4802 12.7462 15.0619 12.7477 14.63C12.7477 13.5981 11.9043 12.7534 10.8725 12.7534C10.2475 12.7534 9.74998 12.2545 9.74998 11.6294C9.74998 11.0044 10.246 10.5055 10.8725 10.5055C11.499 10.5055 11.9979 11.003 11.9979 11.6294C11.9866 12.1397 12.759 12.1397 12.7477 11.6294C12.7477 10.7266 12.0999 9.96689 11.2467 9.79256V8.99884C11.2467 8.74797 11.0596 8.62324 10.8711 8.62324L10.8725 8.62183Z" fill="#FDE74C"/>
</svg>
