<svg width="24" height="24" viewBox="0 0 24 24" fill="none" xmlns="http://www.w3.org/2000/svg">
<g clip-path="url(#clip0_301_137)">
<path d="M24 18.3674C24 18.8319 23.6516 19.1803 23.1871 19.1803H0.812903C0.348387 19.1803 0 18.8319 0 18.3674V5.59318C0 5.12866 0.348387 4.78027 0.812903 4.78027H23.1871C23.6516 4.78027 24 5.12866 24 5.59318V18.3674Z" fill="#366C67"/>
<path d="M24 18.3681C24 18.8326 23.6516 19.181 23.1871 19.181H0.812903C0.348387 19.181 0 18.8326 0 18.3681V5.59391C0 5.12939 0.348387 4.78101 0.812903 4.78101H23.1871C23.6516 4.78101 24 5.12939 24 5.59391V18.3681Z" fill="#366C67"/>
<path d="M0 5.59318C0 5.12866 0.348387 4.78027 0.812903 4.78027H23.1871C23.6516 4.78027 24 5.12866 24 5.59318V18.4061C24 18.8706 23.6516 19.219 23.1871 19.219" fill="#366C67"/>
<path d="M24 5.74805H0V10.4319H24V5.74805Z" fill="#224441"/>
<path d="M8.24519 10.4319H24V5.74805H0.270996L8.24519 10.4319Z" fill="#032527"/>
<path d="M24 18.3682C24 18.8327 23.6516 19.1811 23.1871 19.1811H0.812903C0.348387 19.1811 0 18.8327 0 18.3682" fill="#E1AF00"/>
<path d="M23.1871 19.1811C23.6516 19.1811 24 18.8327 24 18.3682H21.8323L23.1871 19.1811Z" fill="#E1AF00"/>
<path d="M8.59337 12.7944C8.59337 12.9492 8.47724 13.0654 8.3224 13.0654H2.55466C2.39982 13.0654 2.28369 12.9492 2.28369 12.7944C2.28369 12.6396 2.39982 12.5234 2.55466 12.5234H8.3224C8.47724 12.5234 8.59337 12.6396 8.59337 12.7944Z" fill="#D4F9ED"/>
<path d="M8.59337 14.188C8.59337 14.3428 8.47724 14.4589 8.3224 14.4589H2.55466C2.39982 14.4589 2.28369 14.3428 2.28369 14.188C2.3224 14.0331 2.43853 13.917 2.55466 13.917H8.3224C8.47724 13.917 8.59337 14.0331 8.59337 14.188Z" fill="#D4F9ED"/>
<path d="M7.47065 15.5813C7.47065 15.7361 7.35452 15.8522 7.19969 15.8522H2.55452C2.43839 15.8522 2.32227 15.7361 2.32227 15.5813C2.32227 15.4264 2.43839 15.3103 2.59323 15.3103H7.2384C7.35452 15.349 7.47065 15.4651 7.47065 15.5813Z" fill="#D4F9ED"/>
<path d="M17.4193 17.4383C19.0227 17.4383 20.3226 16.1385 20.3226 14.5351C20.3226 12.9317 19.0227 11.6318 17.4193 11.6318C15.8159 11.6318 14.5161 12.9317 14.5161 14.5351C14.5161 16.1385 15.8159 17.4383 17.4193 17.4383Z" fill="#FDC400"/>
<path d="M17.4193 11.6318C15.9484 11.6318 14.7484 12.7157 14.5161 14.1093L19.2 16.8576C19.8968 16.3157 20.3226 15.5028 20.3226 14.5351C20.3613 12.9093 19.0451 11.6318 17.4193 11.6318Z" fill="#FDC400"/>
<path d="M17.4194 11.6318C19.0452 11.6318 20.3227 12.948 20.3227 14.5351C20.3227 16.1222 19.0065 17.4383 17.4194 17.4383" fill="#FDC400"/>
<path d="M19.7421 17.4393C21.3455 17.4393 22.6453 16.1394 22.6453 14.536C22.6453 12.9326 21.3455 11.6328 19.7421 11.6328C18.1387 11.6328 16.8389 12.9326 16.8389 14.536C16.8389 16.1394 18.1387 17.4393 19.7421 17.4393Z" fill="#D9534F"/>
<path d="M19.7421 17.4393C21.3455 17.4393 22.6453 16.1394 22.6453 14.536C22.6453 12.9326 21.3455 11.6328 19.7421 11.6328C18.1387 11.6328 16.8389 12.9326 16.8389 14.536C16.8389 16.1394 18.1387 17.4393 19.7421 17.4393Z" fill="#D9534F"/>
<path d="M19.7418 17.4774C18.116 17.4774 16.8386 16.1612 16.8386 14.5741C16.8386 12.987 18.1548 11.6709 19.7418 11.6709" fill="#D9534F"/>
<path d="M18.5806 11.8643C17.5354 12.3288 16.8386 13.3352 16.8386 14.5352C16.8386 15.7352 17.5741 16.7804 18.5806 17.2062C19.6257 16.7417 20.3225 15.7352 20.3225 14.5352C20.3225 13.3352 19.6257 12.2901 18.5806 11.8643Z" fill="#FDC400"/>
<path d="M18.5806 17.2062C19.6257 16.7417 20.3225 15.7352 20.3225 14.5352C20.3225 13.3352 19.587 12.2901 18.5806 11.8643" fill="#FDC400"/>
</g>
<defs>
<clipPath id="clip0_301_137">
<rect width="24" height="24" fill="white"/>
</clipPath>
</defs>
</svg>
