<svg width="17" height="16" viewBox="0 0 17 16" fill="none" xmlns="http://www.w3.org/2000/svg">
<path d="M13.0708 3.66663V4.99996C13.0708 5.35358 12.9303 5.69272 12.6803 5.94277C12.4302 6.19282 12.0911 6.33329 11.7375 6.33329C11.3838 6.33329 11.0447 6.19282 10.7947 5.94277C10.5446 5.69272 10.4041 5.35358 10.4041 4.99996V3.66663H6.40413V4.99996C6.40413 5.35358 6.26366 5.69272 6.01361 5.94277C5.76356 6.19282 5.42442 6.33329 5.0708 6.33329C4.71718 6.33329 4.37804 6.19282 4.12799 5.94277C3.87794 5.69272 3.73747 5.35358 3.73747 4.99996V3.66663C3.20703 3.66663 2.69833 3.87734 2.32325 4.25241C1.94818 4.62749 1.73747 5.13619 1.73747 5.66663V6.99996H15.0708V5.66663C15.0708 5.13619 14.8601 4.62749 14.485 4.25241C14.1099 3.87734 13.6012 3.66663 13.0708 3.66663ZM1.73747 8.33329V12.3333C1.73747 12.8637 1.94818 13.3724 2.32325 13.7475C2.69833 14.1226 3.20703 14.3333 3.73747 14.3333H13.0708C13.6012 14.3333 14.1099 14.1226 14.485 13.7475C14.8601 13.3724 15.0708 12.8637 15.0708 12.3333V8.33329H1.73747ZM5.0708 1.66663C4.89399 1.66663 4.72442 1.73686 4.5994 1.86189C4.47437 1.98691 4.40413 2.15648 4.40413 2.33329V4.99996C4.40413 5.17677 4.47437 5.34634 4.5994 5.47136C4.72442 5.59639 4.89399 5.66663 5.0708 5.66663C5.24761 5.66663 5.41718 5.59639 5.5422 5.47136C5.66723 5.34634 5.73747 5.17677 5.73747 4.99996V2.33329C5.73747 2.15648 5.66723 1.98691 5.5422 1.86189C5.41718 1.73686 5.24761 1.66663 5.0708 1.66663ZM11.7375 1.66663C11.5607 1.66663 11.3911 1.73686 11.2661 1.86189C11.141 1.98691 11.0708 2.15648 11.0708 2.33329V4.99996C11.0708 5.17677 11.141 5.34634 11.2661 5.47136C11.3911 5.59639 11.5607 5.66663 11.7375 5.66663C11.9143 5.66663 12.0838 5.59639 12.2089 5.47136C12.3339 5.34634 12.4041 5.17677 12.4041 4.99996V2.33329C12.4041 2.15648 12.3339 1.98691 12.2089 1.86189C12.0838 1.73686 11.9143 1.66663 11.7375 1.66663Z" fill="#A3A3A3"/>
</svg>
