<svg width="24" height="24" viewBox="0 0 24 24" fill="none" xmlns="http://www.w3.org/2000/svg">
<g clip-path="url(#clip0_400_1004)">
<path d="M0 19.0005C0.00158786 20.3261 0.528882 21.5969 1.46622 22.5343C2.40356 23.4716 3.67441 23.9989 5 24.0005H19C20.3256 23.9989 21.5964 23.4716 22.5338 22.5343C23.4711 21.5969 23.9984 20.3261 24 19.0005V10.0005H0V19.0005ZM17 14.5005C17.2967 14.5005 17.5867 14.5885 17.8334 14.7533C18.08 14.9181 18.2723 15.1524 18.3858 15.4265C18.4993 15.7006 18.5291 16.0022 18.4712 16.2931C18.4133 16.5841 18.2704 16.8514 18.0607 17.0611C17.8509 17.2709 17.5836 17.4138 17.2926 17.4717C17.0017 17.5295 16.7001 17.4998 16.426 17.3863C16.1519 17.2728 15.9176 17.0805 15.7528 16.8338C15.588 16.5872 15.5 16.2972 15.5 16.0005C15.5 15.6027 15.658 15.2211 15.9393 14.9398C16.2206 14.6585 16.6022 14.5005 17 14.5005ZM12 14.5005C12.2967 14.5005 12.5867 14.5885 12.8334 14.7533C13.08 14.9181 13.2723 15.1524 13.3858 15.4265C13.4994 15.7006 13.5291 16.0022 13.4712 16.2931C13.4133 16.5841 13.2704 16.8514 13.0607 17.0611C12.8509 17.2709 12.5836 17.4138 12.2926 17.4717C12.0017 17.5295 11.7001 17.4998 11.426 17.3863C11.1519 17.2728 10.9176 17.0805 10.7528 16.8338C10.588 16.5872 10.5 16.2972 10.5 16.0005C10.5 15.6027 10.658 15.2211 10.9393 14.9398C11.2206 14.6585 11.6022 14.5005 12 14.5005ZM7 14.5005C7.29667 14.5005 7.58668 14.5885 7.83336 14.7533C8.08003 14.9181 8.27229 15.1524 8.38582 15.4265C8.49935 15.7006 8.52906 16.0022 8.47118 16.2931C8.4133 16.5841 8.27044 16.8514 8.06066 17.0611C7.85088 17.2709 7.58361 17.4138 7.29264 17.4717C7.00166 17.5295 6.70006 17.4998 6.42597 17.3863C6.15189 17.2728 5.91762 17.0805 5.7528 16.8338C5.58797 16.5872 5.5 16.2972 5.5 16.0005C5.5 15.6027 5.65804 15.2211 5.93934 14.9398C6.22064 14.6585 6.60218 14.5005 7 14.5005Z" fill="#A3A3A3"/>
<path d="M19 2H18V1C18 0.734784 17.8946 0.48043 17.7071 0.292893C17.5196 0.105357 17.2652 0 17 0C16.7348 0 16.4804 0.105357 16.2929 0.292893C16.1054 0.48043 16 0.734784 16 1V2H8V1C8 0.734784 7.89464 0.48043 7.70711 0.292893C7.51957 0.105357 7.26522 0 7 0C6.73478 0 6.48043 0.105357 6.29289 0.292893C6.10536 0.48043 6 0.734784 6 1V2H5C3.67441 2.00159 2.40356 2.52888 1.46622 3.46622C0.528882 4.40356 0.00158786 5.67441 0 7L0 8H24V7C23.9984 5.67441 23.4711 4.40356 22.5338 3.46622C21.5964 2.52888 20.3256 2.00159 19 2Z" fill="#A3A3A3"/>
</g>
<defs>
<clipPath id="clip0_400_1004">
<rect width="24" height="24" fill="white"/>
</clipPath>
</defs>
</svg>
