<svg width="14" height="16" viewBox="0 0 14 16" fill="none" xmlns="http://www.w3.org/2000/svg">
<path d="M13.0006 2.66666H10.934C10.615 1.11572 9.2507 0.002 7.6673 0H6.33395C4.75055 0.002 3.38623 1.11572 3.0673 2.66666H1.00064C0.632453 2.66666 0.333984 2.96513 0.333984 3.33331C0.333984 3.7015 0.632453 4 1.00064 4H1.6673V12.6667C1.66952 14.5067 3.16061 15.9978 5.00064 16H9.00064C10.8407 15.9978 12.3318 14.5067 12.334 12.6667V4H13.0006C13.3688 4 13.6673 3.70153 13.6673 3.33334C13.6673 2.96516 13.3688 2.66666 13.0006 2.66666ZM6.33398 11.3333C6.33398 11.7015 6.03552 12 5.66733 12C5.29911 12 5.00064 11.7015 5.00064 11.3333V7.33334C5.00064 6.96516 5.29911 6.66669 5.6673 6.66669C6.03548 6.66669 6.33395 6.96516 6.33395 7.33334V11.3333H6.33398ZM9.00064 11.3333C9.00064 11.7015 8.70217 12 8.33398 12C7.9658 12 7.66733 11.7015 7.66733 11.3333V7.33334C7.66733 6.96516 7.9658 6.66669 8.33398 6.66669C8.70217 6.66669 9.00064 6.96516 9.00064 7.33334V11.3333ZM4.44798 2.66666C4.73155 1.86819 5.48667 1.33434 6.33398 1.33331H7.66733C8.51464 1.33434 9.26977 1.86819 9.55333 2.66666H4.44798Z" fill="#224441"/>
</svg>
