<svg width="16" height="16" viewBox="0 0 16 16" fill="none" xmlns="http://www.w3.org/2000/svg">
<g clip-path="url(#clip0_207_109)">
<path d="M8 0C3.58867 0 0 3.58867 0 8C0.402 18.5987 15.6 18.596 16 8C16 3.58867 12.4113 0 8 0ZM8.66667 11.3333V12C8.66333 12.872 7.33667 12.8713 7.33333 12V11.3333H7.15467C6.44333 11.3333 5.77933 10.9507 5.42267 10.334C5.238 10.0147 5.34733 9.60733 5.66533 9.42333C5.98467 9.23733 6.39267 9.348 6.576 9.666C6.69533 9.87267 6.91667 10 7.154 10H8.666C9.33067 10.0433 9.628 8.96667 8.90333 8.82667L6.876 8.48867C4.54133 8.056 5.044 4.65333 7.33267 4.66667V4C7.33667 3.128 8.66267 3.12867 8.666 4V4.66667H8.84467C9.556 4.66667 10.22 5.05 10.5767 5.66667C10.7613 5.98533 10.652 6.39267 10.334 6.57733C10.014 6.762 9.60667 6.65267 9.42333 6.334C9.304 6.128 9.08267 6.00067 8.84533 6.00067H7.33333C6.66867 5.95733 6.372 7.034 7.096 7.174L9.12333 7.512C11.458 7.94467 10.9553 11.3467 8.66667 11.3333Z" fill="#366C67"/>
</g>
<defs>
<clipPath id="clip0_207_109">
<rect width="16" height="16" fill="white"/>
</clipPath>
</defs>
</svg>
