<svg width="24" height="24" viewBox="0 0 24 24" fill="none" xmlns="http://www.w3.org/2000/svg">
<path d="M21.7972 5.7348C19.43 4.36832 16.403 5.18031 15.0351 7.54751L11.5867 13.521C10.5889 15.246 11.8734 15.8487 13.3058 16.7075L16.6239 18.6226C17.7475 19.2708 19.1828 18.886 19.8309 17.7638L23.3758 11.625C24.5667 9.56209 23.8601 6.92573 21.7972 5.7348Z" fill="#D9534F"/>
<path d="M17.8953 8.20669L14.5772 6.2916C12.7455 5.2748 11.7082 5.2075 10.9562 6.4028L6.06237 14.8782C4.69588 17.2439 5.50933 20.2694 7.87505 21.633C9.93792 22.8239 12.5743 22.1172 13.7652 20.0544L18.7527 11.4151C19.4037 10.2915 19.019 8.85483 17.8953 8.20669Z" fill="#FBBC04"/>
<path d="M18.534 3.85019L16.2034 2.5042C13.6256 1.0163 10.3294 1.8985 8.84148 4.47636L4.40408 12.1617C3.74865 13.2955 4.13781 14.7468 5.27168 15.4008L7.88174 16.9077C9.17063 17.6525 10.818 17.2106 11.5627 15.9216L16.6321 7.14203C17.6826 5.32346 20.0073 4.70021 21.8258 5.75067L18.534 3.85019Z" fill="#34A853"/>
<path d="M9.47187 6.67472L6.95254 5.2234C5.82891 4.57674 4.3937 4.96005 3.74557 6.08074L0.722952 11.3038C-0.764955 13.8743 0.117254 17.1632 2.69512 18.6467L4.61315 19.7513L6.93936 21.0914L7.94887 21.6722C6.15664 20.4726 5.58752 18.0688 6.68332 16.1756L7.46604 14.8238L10.3321 9.87144C10.9788 8.75372 10.594 7.32138 9.47187 6.67472Z" fill="#4285F4"/>
</svg>
