<svg width="24" height="24" viewBox="0 0 24 24" fill="none" xmlns="http://www.w3.org/2000/svg">
<g clip-path="url(#clip0_398_114)">
<path d="M21.797 5.57959L14.797 0.855594C13.098 -0.290406 10.902 -0.290406 9.203 0.855594L2.204 5.57959C0.824 6.50959 0 8.05859 0 9.7246V19.0006C0 21.7576 2.243 24.0006 5 24.0006H19C21.757 24.0006 24 21.7576 24 19.0006V9.7246C24 8.0596 23.176 6.50959 21.797 5.57959ZM16 16.0006C16 17.1036 15.103 18.0006 14 18.0006H10C8.897 18.0006 8 17.1036 8 16.0006V12.0006C8 10.8976 8.897 10.0006 10 10.0006H14C15.103 10.0006 16 10.8976 16 12.0006V16.0006ZM14 12.0006L14.002 16.0006H10V12.0006H14Z" fill="#366C67"/>
</g>
<defs>
<clipPath id="clip0_398_114">
<rect width="24" height="24" fill="white"/>
</clipPath>
</defs>
</svg>
