<svg width="24" height="24" viewBox="0 0 24 24" fill="none" xmlns="http://www.w3.org/2000/svg">
<path d="M14.5 18.0037H9.5C8.673 18.0037 8 17.3307 8 16.5037V11.5037C8 10.6768 8.673 10.0037 9.5 10.0037H14.5C15.327 10.0037 16 10.6768 16 11.5037V16.5037C16 17.3307 15.327 18.0037 14.5 18.0037ZM9.5 11.0037C9.225 11.0037 9 11.2288 9 11.5037V16.5037C9 16.7787 9.225 17.0037 9.5 17.0037H14.5C14.775 17.0037 15 16.7787 15 16.5037V11.5037C15 11.2288 14.775 11.0037 14.5 11.0037H9.5ZM19.5 24.0037H4.5C2.019 24.0037 0 21.9847 0 19.5037V9.56475C0 8.06775 0.741 6.67275 1.983 5.83575L9.483 0.77475C11.01 -0.25825 12.988 -0.25825 14.517 0.77475L22.016 5.83575C23.258 6.67375 23.999 8.06775 23.999 9.56475V19.5037C23.999 21.9847 21.981 24.0037 19.5 24.0037ZM12 0.99975C11.318 0.99975 10.637 1.20075 10.043 1.60275L2.542 6.66275C1.576 7.31475 1 8.39875 1 9.56375V19.5028C1 21.4328 2.57 23.0028 4.5 23.0028H19.5C21.43 23.0028 23 21.4328 23 19.5028V9.56475C23 8.39975 22.424 7.31575 21.458 6.66375L13.958 1.60275C13.363 1.20175 12.682 0.99975 12 0.99975Z" fill="#112220"/>
</svg>
