<svg width="16" height="16" viewBox="0 0 16 16" fill="none" xmlns="http://www.w3.org/2000/svg">
<path d="M14.0002 16C13.6335 16 13.3335 15.7 13.3335 15.3333V0.666667C13.3335 0.3 13.6335 0 14.0002 0C14.3668 0 14.6668 0.3 14.6668 0.666667V15.3333C14.6668 15.7 14.3668 16 14.0002 16ZM2.66683 15.3333V0.666667C2.66683 0.3 2.36683 0 2.00016 0C1.6335 0 1.3335 0.3 1.3335 0.666667V15.3333C1.3335 15.7 1.6335 16 2.00016 16C2.36683 16 2.66683 15.7 2.66683 15.3333ZM11.3335 11V5C11.3335 3.71333 10.2868 2.66667 9.00016 2.66667H7.00016C5.7135 2.66667 4.66683 3.71333 4.66683 5V11C4.66683 12.2867 5.7135 13.3333 7.00016 13.3333H9.00016C10.2868 13.3333 11.3335 12.2867 11.3335 11Z" fill="#A3A3A3"/>
</svg>
