<svg width="26" height="24" viewBox="0 0 26 24" fill="none" xmlns="http://www.w3.org/2000/svg">
<circle cx="13.6611" cy="12" r="12" fill="#29D697"/>
<g clip-path="url(#clip0_98_129)">
<path d="M9.88972 15.1047L12.7184 17.9334C12.9684 18.1831 13.3073 18.3234 13.6607 18.3234C14.0141 18.3234 14.353 18.1831 14.603 17.9334L17.4324 15.1047C18.1782 14.3588 18.6862 13.4085 18.8919 12.374C19.0977 11.3394 18.9921 10.2671 18.5884 9.29254C18.1847 8.31801 17.5011 7.48508 16.6241 6.89905C15.747 6.31303 14.7159 6.00024 13.661 6.00024C12.6062 6.00024 11.5751 6.31303 10.698 6.89905C9.82098 7.48508 9.13739 8.31801 8.73372 9.29254C8.33004 10.2671 8.22441 11.3394 8.43017 12.374C8.63594 13.4085 9.14386 14.3588 9.88972 15.1047Z" fill="white"/>
<path d="M15.6611 11.3334C15.6611 11.8638 15.4504 12.3725 15.0753 12.7476C14.7003 13.1227 14.1916 13.3334 13.6611 13.3334C13.1307 13.3334 12.622 13.1227 12.2469 12.7476C11.8718 12.3725 11.6611 11.8638 11.6611 11.3334C11.6611 10.8029 11.8718 10.2942 12.2469 9.91916C12.622 9.54409 13.1307 9.33337 13.6611 9.33337C14.1916 9.33337 14.7003 9.54409 15.0753 9.91916C15.4504 10.2942 15.6611 10.8029 15.6611 11.3334Z" fill="#29D697"/>
</g>
<defs>
<clipPath id="clip0_98_129">
<rect width="16" height="16" fill="white" transform="matrix(-1 0 0 1 21.6611 4)"/>
</clipPath>
</defs>
</svg>
