<svg width="24" height="24" viewBox="0 0 24 24" fill="none" xmlns="http://www.w3.org/2000/svg">
<g clip-path="url(#clip0_317_93)">
<path d="M12.0003 0.0424805C9.35423 0.0453916 6.81736 1.09776 4.94622 2.96871C3.07508 4.83966 2.02246 7.37642 2.01929 10.0225C2.01929 12.5925 4.00929 16.6145 7.93429 21.9765C8.40155 22.6166 9.01334 23.1374 9.71989 23.4964C10.4264 23.8554 11.2078 24.0425 12.0003 24.0425C12.7928 24.0425 13.5741 23.8554 14.2807 23.4964C14.9872 23.1374 15.599 22.6166 16.0663 21.9765C19.9913 16.6145 21.9813 12.5925 21.9813 10.0225C21.9781 7.37642 20.9255 4.83966 19.0544 2.96871C17.1832 1.09776 14.6463 0.0453916 12.0003 0.0424805ZM12.0003 14.0005C11.2092 14.0005 10.4358 13.7659 9.77801 13.3264C9.12021 12.8868 8.60752 12.2621 8.30477 11.5312C8.00202 10.8003 7.9228 9.99605 8.07715 9.22012C8.23149 8.4442 8.61245 7.73146 9.17186 7.17205C9.73127 6.61264 10.444 6.23168 11.2199 6.07734C11.9958 5.923 12.8001 6.00221 13.531 6.30496C14.2619 6.60771 14.8866 7.1204 15.3262 7.7782C15.7657 8.436 16.0003 9.20936 16.0003 10.0005C16.0003 11.0613 15.5789 12.0788 14.8287 12.8289C14.0786 13.5791 13.0612 14.0005 12.0003 14.0005Z" fill="#224441"/>
</g>
<defs>
<clipPath id="clip0_317_93">
<rect width="24" height="24" fill="white"/>
</clipPath>
</defs>
</svg>
