<svg width="26" height="26" viewBox="0 0 26 26" fill="none" xmlns="http://www.w3.org/2000/svg">
<rect x="0.199951" y="0.199951" width="25.6" height="25.6" rx="12.8" fill="#BBDDDA"/>
<path d="M15 12.9998C15 14.1024 14.1027 14.9998 13 14.9998C11.8973 14.9998 11 14.1024 11 12.9998C11 11.8971 11.8973 10.9998 13 10.9998C14.1027 10.9998 15 11.8971 15 12.9998ZM21 12.9998C21 13.3684 20.7013 13.6664 20.3333 13.6664H19.6333C19.3193 16.8111 16.8113 19.3198 13.6667 19.6331V20.3331C13.6667 20.7018 13.368 20.9998 13 20.9998C12.632 20.9998 12.3333 20.7018 12.3333 20.3331V19.6331C9.18867 19.3191 6.68 16.8111 6.36667 13.6664H5.66667C5.29867 13.6664 5 13.3684 5 12.9998C5 12.6311 5.29867 12.3331 5.66667 12.3331H6.36667C6.68 9.18842 9.18867 6.67976 12.3333 6.36642V5.66642C12.3333 5.29776 12.632 4.99976 13 4.99976C13.368 4.99976 13.6667 5.29776 13.6667 5.66642V6.36642C16.8113 6.68042 19.32 9.18842 19.6333 12.3331H20.3333C20.7013 12.3331 21 12.6311 21 12.9998ZM16.3333 12.9998C16.3333 11.1618 14.838 9.66642 13 9.66642C11.162 9.66642 9.66667 11.1618 9.66667 12.9998C9.66667 14.8378 11.162 16.3331 13 16.3331C14.838 16.3331 16.3333 14.8378 16.3333 12.9998Z" fill="#366C67"/>
</svg>
