<svg width="27" height="24" viewBox="0 0 27 24" fill="none" xmlns="http://www.w3.org/2000/svg">
<circle cx="14.0649" cy="12" r="12" fill="#FDC400"/>
<g clip-path="url(#clip0_98_123)">
<path d="M10.2935 15.1047L13.1222 17.9334C13.3722 18.1831 13.7111 18.3234 14.0645 18.3234C14.4179 18.3234 14.7568 18.1831 15.0069 17.9334L17.8362 15.1047C18.582 14.3588 19.09 13.4085 19.2957 12.374C19.5015 11.3394 19.3959 10.2671 18.9922 9.29254C18.5885 8.31801 17.9049 7.48508 17.0279 6.89905C16.1508 6.31303 15.1197 6.00024 14.0649 6.00024C13.01 6.00024 11.9789 6.31303 11.1018 6.89905C10.2248 7.48508 9.5412 8.31801 9.13753 9.29254C8.73385 10.2671 8.62822 11.3394 8.83398 12.374C9.03975 13.4085 9.54767 14.3588 10.2935 15.1047Z" fill="white"/>
<path d="M16.0649 11.3334C16.0649 11.8638 15.8542 12.3725 15.4792 12.7476C15.1041 13.1227 14.5954 13.3334 14.0649 13.3334C13.5345 13.3334 13.0258 13.1227 12.6507 12.7476C12.2757 12.3725 12.0649 11.8638 12.0649 11.3334C12.0649 10.8029 12.2757 10.2942 12.6507 9.91916C13.0258 9.54409 13.5345 9.33337 14.0649 9.33337C14.5954 9.33337 15.1041 9.54409 15.4792 9.91916C15.8542 10.2942 16.0649 10.8029 16.0649 11.3334Z" fill="#FDC400"/>
</g>
<defs>
<clipPath id="clip0_98_123">
<rect width="16" height="16" fill="white" transform="matrix(-1 0 0 1 22.0649 4)"/>
</clipPath>
</defs>
</svg>
