<svg width="26" height="26" viewBox="0 0 26 26" fill="none" xmlns="http://www.w3.org/2000/svg">
<rect x="0.199951" y="0.199951" width="25.6" height="25.6" rx="12.8" fill="#BBDDDA"/>
<g clip-path="url(#clip0_207_131)">
<path d="M12.9999 5.02808C11.2359 5.03002 9.54467 5.73159 8.29724 6.9789C7.04981 8.2262 6.34806 9.91737 6.34595 11.6814C6.34595 13.3947 7.67261 16.0761 10.2893 19.6507C10.6008 20.0775 11.0087 20.4247 11.4797 20.664C11.9507 20.9034 12.4716 21.0281 12.9999 21.0281C13.5283 21.0281 14.0492 20.9034 14.5202 20.664C14.9912 20.4247 15.3991 20.0775 15.7106 19.6507C18.3273 16.0761 19.6539 13.3947 19.6539 11.6814C19.6518 9.91737 18.9501 8.2262 17.7027 6.9789C16.4552 5.73159 14.764 5.03002 12.9999 5.02808ZM12.9999 14.3334C12.4725 14.3334 11.957 14.177 11.5184 13.884C11.0799 13.591 10.7381 13.1745 10.5363 12.6872C10.3344 12.2 10.2816 11.6638 10.3845 11.1465C10.4874 10.6292 10.7414 10.1541 11.1143 9.78113C11.4873 9.40819 11.9624 9.15421 12.4797 9.05132C12.997 8.94842 13.5332 9.00123 14.0204 9.20306C14.5077 9.4049 14.9242 9.74669 15.2172 10.1852C15.5102 10.6238 15.6666 11.1393 15.6666 11.6667C15.6666 12.374 15.3857 13.0523 14.8856 13.5524C14.3855 14.0525 13.7072 14.3334 12.9999 14.3334Z" fill="#366C67"/>
</g>
<defs>
<clipPath id="clip0_207_131">
<rect width="16" height="16" fill="white" transform="translate(5 4.99976)"/>
</clipPath>
</defs>
</svg>
