<svg width="16" height="16" viewBox="0 0 16 16" fill="none" xmlns="http://www.w3.org/2000/svg">
<g clip-path="url(#clip0_98_59)">
<path d="M8.00001 0.0279999C6.23597 0.0299406 4.54473 0.731517 3.2973 1.97882C2.04987 3.22612 1.34813 4.91729 1.34601 6.68133C1.34601 8.39467 2.67268 11.076 5.28934 14.6507C5.60085 15.0774 6.00871 15.4246 6.47974 15.6639C6.95077 15.9033 7.47166 16.028 8.00001 16.028C8.52836 16.028 9.04924 15.9033 9.52027 15.6639C9.9913 15.4246 10.3992 15.0774 10.7107 14.6507C13.3273 11.076 14.654 8.39467 14.654 6.68133C14.6519 4.91729 13.9501 3.22612 12.7027 1.97882C11.4553 0.731517 9.76405 0.0299406 8.00001 0.0279999ZM8.00001 9.33333C7.47259 9.33333 6.95702 9.17694 6.51849 8.88392C6.07996 8.5909 5.73816 8.17443 5.53633 7.68716C5.3345 7.19989 5.28169 6.66371 5.38458 6.14643C5.48747 5.62914 5.74145 5.15399 6.11439 4.78105C6.48733 4.40811 6.96248 4.15413 7.47977 4.05124C7.99705 3.94835 8.53323 4.00115 9.0205 4.20299C9.50777 4.40482 9.92424 4.74662 10.2173 5.18515C10.5103 5.62368 10.6667 6.13925 10.6667 6.66667C10.6667 7.37391 10.3857 8.05219 9.88563 8.55229C9.38553 9.05238 8.70725 9.33333 8.00001 9.33333Z" fill="white"/>
</g>
<defs>
<clipPath id="clip0_98_59">
<rect width="16" height="16" fill="white"/>
</clipPath>
</defs>
</svg>
