<svg width="24" height="24" viewBox="0 0 24 24" fill="none" xmlns="http://www.w3.org/2000/svg">
<g clip-path="url(#clip0_400_261)">
<path d="M7.42407 21C7.81173 21.8914 8.4513 22.6502 9.26423 23.1831C10.0771 23.716 11.028 23.9999 12.0001 23.9999C12.9721 23.9999 13.923 23.716 14.7359 23.1831C15.5488 22.6502 16.1884 21.8914 16.5761 21H7.42407Z" fill="#366C67"/>
<path d="M22.3921 12.5492L20.6561 6.82618C20.1001 4.82452 18.8914 3.06595 17.2219 1.82968C15.5524 0.593403 13.5177 -0.0497084 11.441 0.002452C9.3642 0.0546124 7.36438 0.799055 5.75902 2.11758C4.15367 3.4361 3.03479 5.25314 2.58005 7.28018L1.23205 12.8172C1.05289 13.5529 1.04318 14.3198 1.20366 15.0598C1.36415 15.7999 1.69063 16.4938 2.15847 17.0893C2.62632 17.6847 3.2233 18.1661 3.90437 18.4971C4.58544 18.8282 5.3328 19.0002 6.09005 19.0002H17.6071C18.3878 19.0002 19.1577 18.8174 19.8551 18.4664C20.5525 18.1154 21.158 17.606 21.6231 16.9789C22.0882 16.3519 22.4 15.6246 22.5335 14.8554C22.6671 14.0861 22.6186 13.2963 22.3921 12.5492Z" fill="#366C67"/>
</g>
<defs>
<clipPath id="clip0_400_261">
<rect width="24" height="24" fill="white"/>
</clipPath>
</defs>
</svg>
