<svg width="23" height="24" viewBox="0 0 23 24" fill="none" xmlns="http://www.w3.org/2000/svg">
<path d="M21.8607 13.662L19.9627 6.826C18.8457 2.807 15.1527 0 10.9807 0C6.57873 0 2.83673 3.002 1.88673 7.28L0.120732 13.915C-0.210268 15.402 0.146732 16.938 1.10073 18.13C2.05573 19.318 3.47673 20 5.00073 20H6.12273C6.59273 22.305 8.60273 24 11.0007 24C13.3987 24 15.4087 22.305 15.8787 20H17.0427C18.6187 20 20.0697 19.28 21.0237 18.025C21.9777 16.771 22.2827 15.181 21.8607 13.662ZM11.0017 23C9.15273 23 7.58773 21.742 7.14073 20H14.8637C14.4157 21.742 12.8517 23 11.0027 23H11.0017ZM20.2287 17.42C19.4657 18.424 18.3047 19 17.0437 19H5.00173C3.78173 19 2.64473 18.454 1.88173 17.504C1.11773 16.552 0.832732 15.322 1.09273 14.152L2.85873 7.516C3.71073 3.68 7.05073 1 10.9807 1C14.7047 1 18.0017 3.506 18.9977 7.094L20.8957 13.93C21.2337 15.146 20.9907 16.417 20.2287 17.42Z" fill="#112220"/>
</svg>
