<svg width="24" height="24" viewBox="0 0 24 24" fill="none" xmlns="http://www.w3.org/2000/svg">
<g clip-path="url(#clip0_301_91)">
<path d="M20.1035 6.20062C20.1447 5.86631 20.1654 5.52979 20.1654 5.19295C20.1654 2.325 17.8405 0 14.9725 0H6.29392C5.74801 0 5.28194 0.394219 5.19137 0.932531L1.99356 19.9392C1.87881 20.6212 2.40456 21.2427 3.09611 21.2427H6.27006C6.81597 21.2427 7.29081 20.8488 7.38133 20.3104L7.39619 20.2221H7.39623L6.95392 22.8511C6.85286 23.4522 7.31622 24 7.92573 24H10.7025C11.1836 24 11.5945 23.6525 11.6742 23.178L12.4631 18.4896C12.5991 17.6814 13.2988 17.0896 14.1183 17.0896H14.8478C18.8101 17.0896 22.0222 13.8775 22.0222 9.91519C22.0222 8.38195 21.2643 7.02666 20.1035 6.20062Z" fill="#001D61"/>
<path d="M20.1036 6.2002C19.6071 10.2398 16.1641 13.3679 11.9902 13.3679H9.56844C9.02184 13.3679 8.54976 13.7319 8.40168 14.2467L6.95409 22.8506C6.85298 23.4517 7.31633 23.9996 7.92585 23.9996H10.7026C11.1838 23.9996 11.5946 23.6521 11.6744 23.1776L12.4632 18.4892C12.5992 17.681 13.2989 17.0892 14.1184 17.0892H14.8479C18.8102 17.0892 22.0223 13.8771 22.0223 9.91476C22.0223 8.38152 21.2644 7.02623 20.1036 6.2002Z" fill="#006AA3"/>
<path d="M9.56842 13.3687H11.9902C16.1641 13.3687 19.6071 10.2407 20.1036 6.20112C19.3589 5.67115 18.4488 5.3584 17.465 5.3584H11.1439C10.4243 5.3584 9.80978 5.8781 9.69035 6.58779L8.40161 14.2475C8.54969 13.7328 9.02181 13.3687 9.56842 13.3687Z" fill="#000A2E"/>
</g>
<defs>
<clipPath id="clip0_301_91">
<rect width="24" height="24" fill="white"/>
</clipPath>
</defs>
</svg>
