<svg width="24" height="24" viewBox="0 0 24 24" fill="none" xmlns="http://www.w3.org/2000/svg">
<path d="M12 2C10.7546 2.00439 9.56081 2.49815 8.67615 3.37478C7.7915 4.2514 7.28688 5.44063 7.27113 6.68596C7.25538 7.93128 7.72978 9.13289 8.59198 10.0316C9.45418 10.9303 10.6351 11.4541 11.88 11.49C11.953 11.48 12.027 11.48 12.1 11.49H12.17C13.42 11.4551 14.6057 10.9282 15.4694 10.024C16.3331 9.11971 16.805 7.91111 16.7826 6.66084C16.7603 5.41057 16.2453 4.21966 15.3498 3.34692C14.4542 2.47418 13.2504 1.99014 12 2Z" fill="#747688"/>
<path d="M17.08 14.15C15.5446 13.2369 13.7914 12.755 12.005 12.755C10.2187 12.755 8.4654 13.2369 6.93002 14.15C6.35744 14.4803 5.877 14.9492 5.5328 15.5136C5.18859 16.0779 4.99164 16.7197 4.96002 17.38C4.9909 18.0366 5.18664 18.6748 5.52919 19.2358C5.87173 19.7969 6.35006 20.2626 6.92002 20.59C8.44047 21.5434 10.2057 22.0334 12 22C13.7944 22.0334 15.5596 21.5434 17.08 20.59C17.6509 20.2586 18.1294 19.7892 18.4718 19.2249C18.8143 18.6606 19.0096 18.0194 19.04 17.36C19.0071 16.7039 18.8105 16.0665 18.4681 15.5058C18.1258 14.9451 17.6486 14.479 17.08 14.15Z" fill="#747688"/>
</svg>
