<svg width="24" height="24" viewBox="0 0 24 24" fill="none" xmlns="http://www.w3.org/2000/svg">
<g clip-path="url(#clip0_317_121)">
<path d="M11.996 0C12.8239 0 13.4951 0.671195 13.4951 1.49915V6.49631C13.4951 7.32426 12.8239 7.99546 11.996 7.99546C11.168 7.99546 10.4968 7.32426 10.4968 6.49631V1.49915C10.4968 0.671195 11.168 0 11.996 0Z" fill="#224441"/>
<path d="M15.4939 4.93705C15.4865 5.4403 15.7403 5.9115 16.1645 6.18233C19.9326 8.48459 21.1209 13.4056 18.8186 17.1737C16.5163 20.9417 11.5953 22.13 7.82721 19.8278C4.05911 17.5255 2.87085 12.6045 5.17316 8.83638C5.831 7.75971 6.73433 6.85399 7.80927 6.19329C8.24079 5.92246 8.50136 5.44747 8.49789 4.93799C8.50019 4.11004 7.83086 3.43702 7.00291 3.43472C6.71855 3.43393 6.4398 3.51404 6.19923 3.66573C1.04147 6.86941 -0.542611 13.6476 2.66102 18.8053C5.86464 23.963 12.6428 25.5471 17.8006 22.3435C22.9583 19.1399 24.5423 12.3617 21.3387 7.20395C20.447 5.76828 19.2362 4.55754 17.8006 3.66578C17.098 3.22255 16.1691 3.4328 15.7259 4.13539C15.5745 4.37534 15.4941 4.65329 15.4939 4.93705Z" fill="#224441"/>
</g>
<defs>
<clipPath id="clip0_317_121">
<rect width="24" height="24" fill="white"/>
</clipPath>
</defs>
</svg>
