<svg width="24" height="24" viewBox="0 0 24 24" fill="none" xmlns="http://www.w3.org/2000/svg">
<path d="M12.003 11.774C15.503 11.753 17.31 9.944 17.375 6.378C17.315 2.932 15.408 1.022 11.997 1C8.545 1.021 6.625 3.066 6.625 6.378C6.625 9.84 8.546 11.753 12.003 11.774ZM11.997 2C14.852 2.019 16.325 3.498 16.375 6.378C16.32 9.36 14.929 10.757 12.003 10.774C9.073 10.757 7.682 9.363 7.625 6.387C7.68 3.453 9.112 2.018 11.997 2Z" fill="#112220"/>
<path d="M11.9976 14.2939C6.73858 14.3269 3.90858 17.1609 3.81258 22.4909C3.80758 22.7669 4.02758 22.9949 4.30358 22.9999H4.31258C4.58458 22.9999 4.80758 22.7819 4.81258 22.5089C4.89858 17.6839 7.25058 15.3229 11.9966 15.2939C16.6856 15.3239 19.1056 17.7519 19.1876 22.5089C19.1926 22.7849 19.4426 23.0139 19.6966 22.9999C19.9726 22.9949 20.1926 22.7679 20.1876 22.4909C20.0966 17.2389 17.1906 14.3269 11.9976 14.2939Z" fill="#112220"/>
</svg>
