<svg width="24" height="24" viewBox="0 0 24 24" fill="none" xmlns="http://www.w3.org/2000/svg">
<path d="M12.0061 12.309C15.6171 12.288 17.5611 10.338 17.6281 6.63798C17.5661 3.07798 15.5171 1.02398 11.9941 1.00098C8.43307 1.02298 6.37207 3.12298 6.37207 6.67298C6.37207 10.223 8.43407 12.288 12.0061 12.309Z" fill="#366C67"/>
<path d="M11.994 13.6611C6.66599 13.6951 3.79899 16.5721 3.70299 21.9831C3.69899 22.2511 3.80199 22.5101 3.98999 22.7011C4.17799 22.8921 4.43499 23.0001 4.70299 23.0001H19.298C19.566 23.0001 19.823 22.8921 20.011 22.7011C20.199 22.5101 20.302 22.2511 20.298 21.9831C20.206 16.6501 17.262 13.6951 11.994 13.6611Z" fill="#366C67"/>
</svg>
