<svg width="24" height="24" viewBox="0 0 24 24" fill="none" xmlns="http://www.w3.org/2000/svg">
<g clip-path="url(#clip0_398_110)">
<path d="M19.499 21.0001L4.49905 20.9961C2.01805 20.9961 -0.000953125 18.9771 -0.000953125 16.4961V15.0731C-0.000953125 14.9371 0.0540469 14.8071 0.152047 14.7131C0.250047 14.6191 0.377047 14.5681 0.517047 14.5731H0.524047C1.94405 14.5731 3.08005 13.4341 3.08005 12.0361C3.08005 10.6381 1.94005 9.49509 0.539047 9.49509C0.263047 9.49509 -0.00195312 9.27509 -0.00195312 8.99909V7.49509C-0.000953125 5.01509 2.01805 2.99609 4.49905 2.99609L19.499 3.00009C21.98 3.00009 23.9991 5.01909 23.9991 7.50009V9.00009C23.9991 9.27609 23.775 9.50009 23.499 9.50009C22.121 9.50009 20.999 10.6221 20.999 12.0001C20.999 13.3781 22.121 14.5001 23.499 14.5001C23.775 14.5001 23.9991 14.7241 23.9991 15.0001V16.5001C23.9991 18.9811 21.98 21.0001 19.499 21.0001ZM0.999047 15.5481V16.4961C0.999047 18.4261 2.56905 19.9961 4.49905 19.9961L19.499 20.0001C21.429 20.0001 22.999 18.4301 22.999 16.5001V15.4641C21.305 15.2211 19.999 13.7601 19.999 12.0001C19.999 10.2401 21.305 8.77909 22.999 8.53609V7.50009C22.999 5.57009 21.429 4.00009 19.499 4.00009L4.49905 3.99609C2.56905 3.99609 0.999047 5.56609 0.999047 7.49609V8.53309C2.75105 8.77009 4.08105 10.2511 4.08105 12.0371C4.08105 13.8341 2.73605 15.3231 0.999047 15.5481Z" fill="#112220"/>
</g>
<defs>
<clipPath id="clip0_398_110">
<rect width="24" height="24" fill="white"/>
</clipPath>
</defs>
</svg>
