<svg width="24" height="24" viewBox="0 0 24 24" fill="none" xmlns="http://www.w3.org/2000/svg">
<path d="M19 21H5C2.243 21 0 18.757 0 16V15.078C0 14.526 0.448 14.078 1 14.078C1.024 14.078 1.053 14.079 1.082 14.081C2.188 14.06 3.082 13.153 3.082 12.041C3.082 10.929 2.188 10.021 1.082 10C1.053 10.002 1.024 10.003 1.001 10.003C0.449 10.003 0.001 9.555 0.001 9.003V7.999C0 5.243 2.243 3 5 3H19C21.757 3 24 5.243 24 8V9C24 9.552 23.552 10 23 10C21.897 10 21 10.897 21 12C21 13.103 21.897 14 23 14C23.552 14 24 14.448 24 15V16C24 18.757 21.757 21 19 21Z" fill="#366C67"/>
</svg>
