<svg width="24" height="24" viewBox="0 0 24 24" fill="none" xmlns="http://www.w3.org/2000/svg">
<path d="M23.0005 11C23.0005 8.794 21.2065 7 19.0005 7V5C19.0005 2.243 16.7575 0 14.0005 0H10.0005C7.24349 0 5.00049 2.243 5.00049 5V7C2.79449 7 1.00049 8.794 1.00049 11V16.5C1.00049 17.879 2.12149 19 3.50049 19H10.0005C10.5528 19 11.0005 19.4477 11.0005 20V22H7.00049C6.44849 22 6.00049 22.447 6.00049 23C6.00049 23.553 6.44849 24 7.00049 24H17.0005C17.5525 24 18.0005 23.553 18.0005 23C18.0005 22.447 17.5525 22 17.0005 22H13.0005V20C13.0005 19.4477 13.4482 19 14.0005 19H20.5005C21.8795 19 23.0005 17.879 23.0005 16.5V11ZM3.50049 14C3.24039 14 3.00049 13.8077 3.00049 13.5476V11C3.00049 9.897 3.89749 9 5.00049 9V10C5.00049 11.1046 5.89592 12 7.00049 12H17.0005C18.1051 12 19.0005 11.1046 19.0005 10V9C20.1035 9 21.0005 9.897 21.0005 11V13.5476C21.0005 13.8077 20.7606 14 20.5005 14H3.50049Z" fill="#A3A3A3"/>
</svg>
