<svg width="24" height="24" viewBox="0 0 24 24" fill="none" xmlns="http://www.w3.org/2000/svg">
<path d="M21.2995 7.57968H15.7195C15.5339 7.57968 15.3558 7.50593 15.2246 7.37466C15.0933 7.24338 15.0195 7.06533 15.0195 6.87968C15.0195 6.69403 15.0933 6.51598 15.2246 6.38471C15.3558 6.25343 15.5339 6.17968 15.7195 6.17968H21.2995C21.4852 6.17968 21.6632 6.25343 21.7945 6.38471C21.9258 6.51598 21.9995 6.69403 21.9995 6.87968C21.9995 7.06533 21.9258 7.24338 21.7945 7.37466C21.6632 7.50593 21.4852 7.57968 21.2995 7.57968Z" fill="#366C67"/>
<path d="M6.42 7.57968H2.7C2.51435 7.57968 2.3363 7.50593 2.20503 7.37466C2.07375 7.24338 2 7.06533 2 6.87968C2 6.69403 2.07375 6.51598 2.20503 6.38471C2.3363 6.25343 2.51435 6.17968 2.7 6.17968H6.42C6.60565 6.17968 6.7837 6.25343 6.91497 6.38471C7.04625 6.51598 7.12 6.69403 7.12 6.87968C7.12 7.06533 7.04625 7.24338 6.91497 7.37466C6.7837 7.50593 6.60565 7.57968 6.42 7.57968Z" fill="#366C67"/>
<path d="M14.0895 6.87969C14.0895 7.66092 13.8578 8.42462 13.4238 9.07419C12.9897 9.72377 12.3728 10.23 11.6511 10.529C10.9293 10.828 10.1351 10.9062 9.36885 10.7538C8.60262 10.6014 7.8988 10.2252 7.34638 9.67276C6.79397 9.12034 6.41776 8.41652 6.26535 7.6503C6.11294 6.88407 6.19116 6.08986 6.49013 5.36809C6.7891 4.64632 7.29538 4.02942 7.94495 3.59538C8.59453 3.16135 9.35822 2.92969 10.1395 2.92969C11.1871 2.92969 12.1918 3.34585 12.9325 4.08662C13.6733 4.82739 14.0895 5.83208 14.0895 6.87969Z" fill="#366C67"/>
<path d="M21.3009 17.8102H17.5809C17.3952 17.8102 17.2172 17.7364 17.0859 17.6051C16.9546 17.4739 16.8809 17.2958 16.8809 17.1102C16.8809 16.9245 16.9546 16.7465 17.0859 16.6152C17.2172 16.4839 17.3952 16.4102 17.5809 16.4102H21.3009C21.3928 16.4102 21.4838 16.4283 21.5687 16.4635C21.6537 16.4986 21.7308 16.5502 21.7958 16.6152C21.8608 16.6802 21.9124 16.7574 21.9476 16.8423C21.9828 16.9272 22.0009 17.0182 22.0009 17.1102C22.0009 17.2021 21.9828 17.2931 21.9476 17.378C21.9124 17.463 21.8608 17.5401 21.7958 17.6051C21.7308 17.6701 21.6537 17.7217 21.5687 17.7569C21.4838 17.7921 21.3928 17.8102 21.3009 17.8102Z" fill="#366C67"/>
<path d="M8.28 17.8102H2.7C2.51435 17.8102 2.3363 17.7364 2.20503 17.6051C2.07375 17.4739 2 17.2958 2 17.1102C2 16.9245 2.07375 16.7465 2.20503 16.6152C2.3363 16.4839 2.51435 16.4102 2.7 16.4102H8.28C8.46565 16.4102 8.6437 16.4839 8.77497 16.6152C8.90625 16.7465 8.98 16.9245 8.98 17.1102C8.98 17.2958 8.90625 17.4739 8.77497 17.6051C8.6437 17.7364 8.46565 17.8102 8.28 17.8102Z" fill="#366C67"/>
<path d="M17.8102 17.1199C17.8102 17.9012 17.5785 18.6649 17.1445 19.3144C16.7104 19.964 16.0935 20.4703 15.3718 20.7693C14.65 21.0682 13.8558 21.1465 13.0896 20.994C12.3233 20.8416 11.6195 20.4654 11.0671 19.913C10.5147 19.3606 10.1385 18.6568 9.98606 17.8906C9.83364 17.1243 9.91187 16.3301 10.2108 15.6083C10.5098 14.8866 11.0161 14.2697 11.6657 13.8356C12.3152 13.4016 13.0789 13.1699 13.8602 13.1699C14.9078 13.1699 15.9125 13.5861 16.6532 14.3269C17.394 15.0676 17.8102 16.0723 17.8102 17.1199Z" fill="#366C67"/>
</svg>
