<svg width="24" height="24" viewBox="0 0 24 24" fill="none" xmlns="http://www.w3.org/2000/svg">
<g clip-path="url(#clip0_400_1015)">
<path d="M18.951 23H18.918C18.407 22.992 17.921 22.775 17.574 22.4L15.656 20.519C15.272 20.122 15.281 19.489 15.678 19.105C15.679 19.104 15.68 19.103 15.681 19.102C16.078 18.721 16.708 18.732 17.091 19.126L18.952 20.949L22.293 17.608C22.683 17.218 23.317 17.218 23.707 17.608C24.097 17.998 24.097 18.632 23.707 19.022L20.286 22.443C19.934 22.8 19.453 23.001 18.951 23Z" fill="#A3A3A3"/>
<path d="M14.035 20.015C14.031 16.718 16.7 14.042 19.996 14.037C21.279 14.035 22.529 14.447 23.559 15.212C25.332 8.827 21.593 2.214 15.209 0.441003C8.82499 -1.332 2.21299 2.406 0.439986 8.791C-1.33301 15.176 2.40599 21.79 8.78999 23.563C10.89 24.146 13.109 24.146 15.209 23.563C14.447 22.537 14.035 21.293 14.035 20.015ZM13 12.022C13 12.288 12.894 12.542 12.706 12.73L9.70099 15.736C9.30299 16.12 8.66899 16.109 8.28499 15.711C7.90999 15.323 7.90999 14.707 8.28499 14.319L10.997 11.607V7.013C10.997 6.46 11.445 6.011 11.999 6.011C12.552 6.011 13 6.46 13 7.013V12.022Z" fill="#A3A3A3"/>
</g>
<defs>
<clipPath id="clip0_400_1015">
<rect width="24" height="24" fill="white"/>
</clipPath>
</defs>
</svg>
