<svg width="15" height="14" viewBox="0 0 15 14" fill="none" xmlns="http://www.w3.org/2000/svg">
<g clip-path="url(#clip0_459_105)">
<path d="M7.40357 0C6.0191 0 4.66572 0.410543 3.51458 1.17971C2.36343 1.94888 1.46622 3.04213 0.936411 4.32122C0.406597 5.6003 0.267974 7.00777 0.538071 8.36563C0.808167 9.7235 1.47485 10.9708 2.45382 11.9497C3.43279 12.9287 4.68007 13.5954 6.03794 13.8655C7.3958 14.1356 8.80327 13.997 10.0824 13.4672C11.3614 12.9373 12.4547 12.0401 13.2239 10.889C13.993 9.73785 14.4036 8.38447 14.4036 7C14.4016 5.1441 13.6634 3.36479 12.3511 2.05247C11.0388 0.74015 9.25947 0.0020073 7.40357 0ZM7.9869 6.92942C7.98696 7.0283 7.96189 7.12557 7.91403 7.2121C7.86618 7.29863 7.79711 7.37158 7.71332 7.42408L5.47332 8.82408C5.4082 8.86476 5.33572 8.89221 5.25999 8.90488C5.18427 8.91754 5.10679 8.91516 5.03199 8.89788C4.95718 8.8806 4.88651 8.84876 4.82401 8.80417C4.76152 8.75958 4.70841 8.70311 4.66773 8.638C4.62706 8.57289 4.5996 8.5004 4.58694 8.42467C4.57428 8.34895 4.57665 8.27147 4.59393 8.19667C4.61121 8.12186 4.64306 8.0512 4.68765 7.9887C4.73224 7.9262 4.7887 7.87309 4.85382 7.83242L6.82023 6.60625V4.08333C6.82023 3.92862 6.88169 3.78025 6.99109 3.67085C7.10049 3.56146 7.24886 3.5 7.40357 3.5C7.55828 3.5 7.70665 3.56146 7.81605 3.67085C7.92544 3.78025 7.9869 3.92862 7.9869 4.08333V6.92942Z" fill="#A3A3A3"/>
</g>
<defs>
<clipPath id="clip0_459_105">
<rect width="14" height="14" fill="white" transform="translate(0.403564)"/>
</clipPath>
</defs>
</svg>
