<svg width="24" height="24" viewBox="0 0 24 24" fill="none" xmlns="http://www.w3.org/2000/svg">
<path d="M12 2C10.0222 2 8.08879 2.58649 6.4443 3.6853C4.79981 4.78412 3.51809 6.3459 2.76121 8.17317C2.00433 10.0004 1.8063 12.0111 2.19215 13.9509C2.578 15.8907 3.53041 17.6725 4.92894 19.0711C6.32746 20.4696 8.10929 21.422 10.0491 21.8079C11.9889 22.1937 13.9996 21.9957 15.8268 21.2388C17.6541 20.4819 19.2159 19.2002 20.3147 17.5557C21.4135 15.9112 22 13.9778 22 12C21.9958 9.34913 20.9408 6.80805 19.0664 4.93361C17.192 3.05916 14.6509 2.00423 12 2ZM16.35 15.57C16.2838 15.6834 16.1889 15.7774 16.0747 15.8423C15.9606 15.9073 15.8313 15.941 15.7 15.94C15.5652 15.9424 15.4327 15.9041 15.32 15.83L12.22 13.98C11.824 13.7227 11.4956 13.374 11.2624 12.9633C11.0292 12.5526 10.8981 12.0919 10.88 11.62V7.52C10.88 7.32109 10.959 7.13032 11.0997 6.98967C11.2403 6.84902 11.4311 6.77 11.63 6.77C11.8289 6.77 12.0197 6.84902 12.1603 6.98967C12.301 7.13032 12.38 7.32109 12.38 7.52V11.62C12.3988 11.8317 12.463 12.0369 12.5682 12.2216C12.6735 12.4062 12.8174 12.566 12.99 12.69L16.09 14.54C16.1758 14.5895 16.2509 14.6557 16.3106 14.7347C16.3704 14.8137 16.4137 14.9039 16.4379 15C16.4622 15.096 16.4669 15.196 16.4518 15.2939C16.4367 15.3918 16.4021 15.4857 16.35 15.57Z" fill="#A3A3A3"/>
</svg>
